<svg xmlns="http://www.w3.org/2000/svg" xmlns:xlink="http://www.w3.org/1999/xlink" viewBox="0 0 1070.07 1400.33"><defs><style>.cls-1,.cls-195,.cls-5,.cls-67{fill:none;}.cls-2{fill:#fffff7;}.cls-3{fill:#754c24;}.cls-4{fill:#42210b;}.cls-5{stroke:red;}.cls-5,.cls-67{stroke-linecap:round;stroke-linejoin:round;stroke-width:5px;}.cls-6{fill:#fbcca2;}.cls-7{fill:#fbb696;}.cls-8{fill:#666;}.cls-9{clip-path:url(#clip-path);}.cls-10{fill:#18364b;}.cls-11{opacity:0.3;}.cls-12,.cls-193{fill:#fff;}.cls-13{clip-path:url(#clip-path-2);}.cls-14{fill:#0c6d96;}.cls-15{fill:#feceb5;}.cls-16{fill:#8c6239;}.cls-17{fill:#fec7ae;}.cls-18{clip-path:url(#clip-path-3);}.cls-19{fill:#ffc7a7;}.cls-20{fill:#ffc8a8;}.cls-21{fill:#ffc8a9;}.cls-22{fill:#ffc9aa;}.cls-23{fill:#ffc9ac;}.cls-24{fill:#ffcaad;}.cls-25{fill:#ffcbae;}.cls-26{fill:#ffcbaf;}.cls-27{fill:#ffccb0;}.cls-28{fill:#ffccb1;}.cls-29{fill:#ffcdb2;}.cls-30{fill:#ffceb3;}.cls-31{fill:#ffceb4;}.cls-32{fill:#ffcfb6;}.cls-33{fill:#ffcfb7;}.cls-34{fill:#ffd0b8;}.cls-35{fill:#ffd0b9;}.cls-36{fill:#ffd1ba;}.cls-37{fill:#ffd2bb;}.cls-38{fill:#ffd2bc;}.cls-39{fill:#ffd3bd;}.cls-40{fill:#ffd3be;}.cls-41{fill:#ffd4bf;}.cls-42{fill:#ffd4c0;}.cls-43{fill:#ffd5c1;}.cls-44{fill:#ffd6c2;}.cls-45{fill:#ffd6c3;}.cls-46{fill:#ffd7c4;}.cls-47{fill:#ffd7c5;}.cls-48{fill:#ffd8c6;}.cls-49{fill:#ffd8c8;}.cls-50{fill:#ffd9c9;}.cls-51{fill:#ffd9ca;}.cls-52{fill:#ffdaca;}.cls-53{fill:#ffdacb;}.cls-54{fill:#ffdbcc;}.cls-55{fill:#ffdbcd;}.cls-56{fill:#ffdcce;}.cls-57{fill:#ffdccf;}.cls-58{fill:#ffddd0;}.cls-59{fill:#ffddd1;}.cls-60{fill:#ffded2;}.cls-61{fill:#ffded3;}.cls-62{fill:#ffdfd4;}.cls-63{fill:#ffdfd5;}.cls-64{fill:#ffe0d5;}.cls-65{fill:#ffe0d6;}.cls-66{fill:#29abe2;}.cls-67{stroke:#8c6239;}.cls-68{fill:#a38161;}.cls-69{fill:#814f1b;}.cls-70{fill:#603813;}.cls-71{opacity:0.15;}.cls-72{opacity:0.7;}.cls-73{fill:#985e20;}.cls-74{opacity:0.4;}.cls-75{fill:#fec5ae;}.cls-76{opacity:0.5;}.cls-77{fill:#fec6ac;}.cls-78{opacity:0.1;}.cls-79{clip-path:url(#clip-path-4);}.cls-80{fill:#050402;}.cls-81{fill:#090803;}.cls-82{fill:#0d0c05;}.cls-83{fill:#110f06;}.cls-84{fill:#141207;}.cls-85{fill:#171508;}.cls-86{fill:#1a1709;}.cls-87{fill:#1c190a;}.cls-88{fill:#1e1b0a;}.cls-89{fill:#201d0b;}.cls-90{fill:#221e0c;}.cls-91{fill:#23200c;}.cls-92{fill:#24210d;}.cls-93{fill:#25220d;}.cls-94{fill:#26230d;}.cls-95{fill:#27230e;}.cls-96{fill:#28240e;}.cls-97{fill:#28250e;}.cls-98{fill:#29250e;}.cls-99{fill:#2a260f;}.cls-100{fill:#2b270f;}.cls-101{fill:#001a1a;}.cls-102{clip-path:url(#clip-path-5);}.cls-103{fill:#010000;}.cls-104{fill:#020000;}.cls-105{fill:#030100;}.cls-106{fill:#040100;}.cls-107{fill:#050100;}.cls-108{fill:#060200;}.cls-109{fill:#070200;}.cls-110{fill:#080200;}.cls-111{fill:#090200;}.cls-112{fill:#0a0300;}.cls-113{fill:#0b0300;}.cls-114{fill:#0c0300;}.cls-115{fill:#0d0300;}.cls-116{fill:#0e0400;}.cls-117{fill:#0f0400;}.cls-118{fill:#100400;}.cls-119{fill:#110400;}.cls-120{fill:#120500;}.cls-121{fill:#130500;}.cls-122{fill:#140500;}.cls-123{fill:#150500;}.cls-124{fill:#160600;}.cls-125{fill:#170600;}.cls-126{fill:#180600;}.cls-127{fill:#190600;}.cls-128{fill:#1a0700;}.cls-129{fill:#1b0700;}.cls-130{fill:#1c0700;}.cls-131{fill:#1d0800;}.cls-132{fill:#1e0800;}.cls-133{fill:#1f0800;}.cls-134{fill:#200800;}.cls-135{fill:#210900;}.cls-136{fill:#220900;}.cls-137{fill:#230900;}.cls-138{fill:#240900;}.cls-139{fill:#250a00;}.cls-140{fill:#260a00;}.cls-141{fill:#270a00;}.cls-142{fill:#280a00;}.cls-143{fill:#290b00;}.cls-144{fill:#2a0b00;}.cls-145{fill:#2b0b00;}.cls-146{fill:#2c0b00;}.cls-147{fill:#2d0c01;}.cls-148{fill:#2e0c01;}.cls-149{fill:#2f0c01;}.cls-150{fill:#310d01;}.cls-151{fill:#320d01;}.cls-152{fill:#330d01;}.cls-153{fill:#340d01;}.cls-154{fill:#350e01;}.cls-155{fill:#360e01;}.cls-156{fill:#370e01;}.cls-157{fill:#380e01;}.cls-158{fill:#390f01;}.cls-159{fill:#3a0f01;}.cls-160{fill:#3b0f01;}.cls-161{fill:#3c0f01;}.cls-162{fill:#3d1001;}.cls-163{fill:#3e1001;}.cls-164{fill:#3f1001;}.cls-165{fill:#401101;}.cls-166{fill:#411101;}.cls-167{fill:#421101;}.cls-168{fill:#431101;}.cls-169{fill:#441201;}.cls-170{fill:#451201;}.cls-171{fill:#461201;}.cls-172{fill:#471201;}.cls-173{fill:#481301;}.cls-174{fill:#491301;}.cls-175{fill:#4a1301;}.cls-176{fill:#4b1301;}.cls-177{fill:#4c1401;}.cls-178{fill:#4d1401;}.cls-179{fill:#4f1401;}.cls-180{fill:#501501;}.cls-181{fill:#511501;}.cls-182{fill:#521501;}.cls-183{fill:#531501;}.cls-184{fill:#541601;}.cls-185{fill:#551601;}.cls-186{fill:#561601;}.cls-187{fill:#571601;}.cls-188{fill:#581701;}.cls-189{fill:#591701;}.cls-190{fill:#fed6c0;}.cls-191{fill:#fed1bb;}.cls-192,.cls-193,.cls-195{stroke:#000;stroke-miterlimit:10;}.cls-192,.cls-193{stroke-width:0.75px;}.cls-194{fill:#e6e6e6;}</style><clipPath id="clip-path"><path class="cls-1" d="M623.17,243.64s6.5,54.83,61.83,102.17l22,80.28L518,385.92s7.35-50.45,28.17-90.62C546.17,295.29,562.31,279.11,623.17,243.64Z"/></clipPath><clipPath id="clip-path-2"><path class="cls-1" d="M785.87,243.64S779.37,298.47,724,345.8l-22,80.28,189-40.16s-7.35-50.45-28.17-90.62C862.86,295.29,846.73,279.11,785.87,243.64Z"/></clipPath><clipPath id="clip-path-3"><path class="cls-1" d="M778,153.73c0,32.64-33.11,59.11-74,59.11h0c-40.89,0-74-26.46-74-59.11V61.61C630,29,663.11,2.5,704,2.5h0c40.89,0,74,26.46,74,59.11Z"/></clipPath><clipPath id="clip-path-4"><ellipse class="cls-1" cx="476" cy="1356.33" rx="476" ry="44"/></clipPath><clipPath id="clip-path-5"><path class="cls-1" d="M460.36,1345.53a40,40,0,0,0,20.46,10.66C352.18,533.39,770,406.58,770,406.58c-23.51.83-47.86,1.36-72.79,1.58s-49.29.09-72.81-.34-46.21-1.16-67.83-2.17-42.17-2.29-61.4-3.83-37.15-3.31-53.51-5.31-31.17-4.21-44.17-6.61a323.25,323.25,0,0,1-33.37-7.73c-9.16-2.74-11-2.78-15.79-5.81Z"/></clipPath></defs><title>benjamins coffee-cup</title><g id="Layer_2" data-name="Layer 2"><g id="Camada_1" data-name="Camada 1"><path class="cls-2" d="M1067.57,319.33l-6.07,43.81c0,3.26-2.53,6.44-7.34,9.51s-11.91,6-21,8.85a323.42,323.42,0,0,1-33.31,8c-13,2.51-27.77,4.85-44.11,7s-34.25,4.06-53.46,5.76-39.75,3.15-61.36,4.35-44.29,2.12-67.81,2.75-47.87,1-72.8,1-49.29-.33-72.8-1-46.2-1.56-67.81-2.75-42.15-2.65-61.36-4.35-37.12-3.63-53.46-5.76-31.13-4.47-44.11-7a323.32,323.32,0,0,1-33.31-8c-9.14-2.82-16.24-5.78-21-8.85S339,366.4,339,363.14l-3-47C336,290.09,499.77,269,701.79,269s365.79,21.12,365.79,47.17"/><path class="cls-3" d="M700.25,412.81c-24.53,0-49-.32-72.87-1-23.19-.62-46-1.54-67.88-2.75-21.46-1.18-42.13-2.65-61.45-4.35-19.16-1.69-37.18-3.63-53.57-5.77s-31.3-4.5-44.26-7a326.22,326.22,0,0,1-33.57-8.08c-9.44-2.91-16.72-6-21.66-9.14-5.6-3.57-8.45-7.45-8.49-11.53l-3-46.93c0-.05,0-.11,0-.16,0-14.42,36.78-26.48,109.32-35.83,69.19-8.92,161.16-13.84,259-13.84s189.78,4.91,259,13.84c72.54,9.35,109.32,21.41,109.32,35.83a2.49,2.49,0,0,1-.57,1.59,2.5,2.5,0,0,1,.55,1.94L1064,363.33c-.08,4-2.94,7.88-8.49,11.43-4.94,3.15-12.22,6.22-21.66,9.14a326.44,326.44,0,0,1-33.57,8.08c-13,2.51-27.85,4.86-44.26,7s-34.41,4.08-53.57,5.77c-19.32,1.7-40,3.17-61.45,4.35-21.86,1.21-44.7,2.13-67.88,2.75C749.29,412.49,724.78,412.81,700.25,412.81ZM338.5,316.08l3,46.91c0,.05,0,.11,0,.16,0,2.85,3.36,5.6,6.18,7.4,4.56,2.91,11.44,5.79,20.44,8.57a321.36,321.36,0,0,0,33,7.95c12.86,2.49,27.65,4.83,44,7s34.27,4.06,53.36,5.75c19.26,1.7,39.88,3.16,61.28,4.34,21.81,1.2,44.6,2.13,67.74,2.75,47.57,1.27,97.91,1.27,145.48,0,23.14-.62,45.93-1.54,67.74-2.75,21.4-1.18,42-2.64,61.28-4.34,19.09-1.68,37-3.62,53.36-5.75s31.1-4.47,44-7a321.59,321.59,0,0,0,33-7.95c9-2.78,15.88-5.66,20.44-8.57,2.82-1.8,6.18-4.54,6.18-7.4a2.52,2.52,0,0,1,0-.34L1065.1,319a2.49,2.49,0,0,1,.55-1.25,2.49,2.49,0,0,1-.57-1.59c0-8.38-27.57-20.89-105-30.87-69-8.9-160.73-13.79-258.33-13.79s-189.35,4.9-258.33,13.79C366.28,295.22,338.65,307.69,338.5,316.08Z"/><ellipse class="cls-4" cx="702" cy="325.14" rx="356" ry="47.17"/><path class="cls-4" d="M702,372.81c-95.11,0-184.54-4.91-251.8-13.82-39.1-5.18-104.7-16.47-104.7-33.85s65.6-28.67,104.7-33.85c67.26-8.91,156.68-13.82,251.8-13.82s184.54,4.91,251.8,13.82c39.1,5.18,104.7,16.47,104.7,33.85S992.9,353.81,953.8,359C886.54,367.9,797.11,372.81,702,372.81Zm0-94.33c-95.07,0-184.45,4.9-251.66,13.81C384.35,301,346.5,313,346.5,325.14S384.35,349.26,450.34,358c67.22,8.91,156.59,13.81,251.66,13.81s184.45-4.9,251.66-13.81c66-8.74,103.84-20.72,103.84-32.86S1019.65,301,953.66,292.29C886.45,283.38,797.07,278.48,702,278.48Z"/><path class="cls-5" d="M591,251.14"/><path class="cls-6" d="M707.51,203.83s142.72,67,156.07,91.46c0,0,26.69,54.51,28.17,90.62L702.13,418"/><path class="cls-4" d="M702.13,420.52a2.5,2.5,0,0,1-.41-5l187.42-31.73c-2.36-34.69-26.85-85.48-27.78-87.38-3.7-6.68-20.95-21.44-82-53.82-36.87-19.56-72.58-36.36-72.94-36.53a2.5,2.5,0,1,1,2.13-4.53c5.86,2.75,143.62,67.68,157.2,92.52l.05.1c1.1,2.25,26.94,55.4,28.43,91.62a2.5,2.5,0,0,1-2.08,2.57l-189.62,32.1A2.5,2.5,0,0,1,702.13,420.52Z"/><path class="cls-7" d="M703.24,203.83s-142.72,67-156.07,91.46c0,0-26.69,54.51-28.17,90.62L708.62,418"/><path class="cls-4" d="M708.62,420.52a2.5,2.5,0,0,1-.42,0l-189.62-32.1a2.5,2.5,0,0,1-2.08-2.57c1.49-36.22,27.33-89.38,28.43-91.62l.05-.1c13.58-24.84,151.34-89.77,157.2-92.52a2.5,2.5,0,1,1,2.13,4.53c-.36.17-36.07,17-72.94,36.53-61,32.38-78.28,47.13-82,53.82-.92,1.9-25.42,52.7-27.78,87.38L709,415.55a2.5,2.5,0,0,1-.41,5Z"/><path class="cls-8" d="M619.87,247.4s48.83,63.46,75.8,67.24l6.48,54.21,10.34-54.21s53.77-22.43,88.14-63l9,74.16s-39,78.08-108.67,96.11c0,0-77-54.56-88.19-92.13Z"/><path class="cls-4" d="M701,424.41a2.5,2.5,0,0,1-1.44-.46c-.19-.14-19.61-13.93-40.13-32.15-27.76-24.65-44.25-45.27-49-61.31a2.51,2.51,0,0,1-.09-.92l7.06-82.38a2.5,2.5,0,0,1,4.47-1.31c.48.63,48.52,62.69,74.16,66.29a2.5,2.5,0,0,1,2.14,2.18l4.57,38.19L710,314.18a2.5,2.5,0,0,1,1.49-1.84c.53-.22,53.63-22.68,87.2-62.31a2.5,2.5,0,0,1,4.39,1.31l9,74.16a2.49,2.49,0,0,1-.25,1.42c-.4.81-10.1,20-28.54,41.79-17.07,20.14-45.12,46.14-81.74,55.62A2.51,2.51,0,0,1,701,424.41Zm-85.66-94.89c10.57,34.09,77.39,83.33,86.16,89.67,63.71-17.18,101.65-86.36,105.59-93.85l-8.27-67.84c-31.39,34.59-76.12,55.37-84.13,58.92l-10.09,52.91a2.5,2.5,0,0,1-4.94-.17l-6.26-52.38c-23.5-5.31-59.62-48-71.58-62.87Z"/><g class="cls-9"><rect class="cls-10" x="494" y="232.33" width="268" height="222"/><g class="cls-11"><rect class="cls-12" x="503.5" y="208.08" width="9.5" height="254.25"/></g><g class="cls-11"><rect class="cls-12" x="522.5" y="191.58" width="9.5" height="273.25"/></g><g class="cls-11"><rect class="cls-12" x="541.5" y="208.08" width="9.5" height="256.75"/></g><g class="cls-11"><rect class="cls-12" x="560.5" y="220.58" width="9.5" height="256.75"/></g><g class="cls-11"><rect class="cls-12" x="579.5" y="216.46" width="9.5" height="256.75"/></g><g class="cls-11"><rect class="cls-12" x="598" y="208.83" width="9.5" height="254.25"/></g><g class="cls-11"><rect class="cls-12" x="617" y="192.33" width="9.5" height="273.25"/></g><g class="cls-11"><rect class="cls-12" x="636" y="208.83" width="9.5" height="256.75"/></g><g class="cls-11"><rect class="cls-12" x="655" y="221.33" width="9.5" height="256.75"/></g><g class="cls-11"><rect class="cls-12" x="674" y="217.21" width="9.5" height="256.75"/></g><g class="cls-11"><rect class="cls-12" x="693" y="212.58" width="9.5" height="254.25"/></g><g class="cls-11"><rect class="cls-12" x="712" y="196.08" width="9.5" height="273.25"/></g><g class="cls-11"><rect class="cls-12" x="731" y="212.58" width="9.5" height="256.75"/></g><g class="cls-11"><rect class="cls-12" x="750" y="225.08" width="9.5" height="256.75"/></g><g class="cls-11"><rect class="cls-12" x="483" y="241.33" width="293" height="9"/></g><g class="cls-11"><rect class="cls-12" x="481" y="259.33" width="293" height="9"/></g><g class="cls-11"><rect class="cls-12" x="483" y="277.33" width="293" height="9"/></g><g class="cls-11"><rect class="cls-12" x="480" y="295.33" width="293" height="9"/></g><g class="cls-11"><rect class="cls-12" x="485" y="313.33" width="293" height="9"/></g><g class="cls-11"><rect class="cls-12" x="483" y="331.33" width="293" height="9"/></g><g class="cls-11"><rect class="cls-12" x="485" y="349.33" width="293" height="9"/></g><g class="cls-11"><rect class="cls-12" x="482" y="367.33" width="293" height="9"/></g><g class="cls-11"><rect class="cls-12" x="480" y="385.33" width="293" height="9"/></g><g class="cls-11"><rect class="cls-12" x="482" y="403.33" width="293" height="9"/></g><g class="cls-11"><rect class="cls-12" x="486" y="421.33" width="293" height="9"/></g><g class="cls-11"><rect class="cls-12" x="484" y="439.33" width="293" height="9"/></g></g><g class="cls-13"><rect class="cls-10" x="647" y="232.33" width="268" height="222"/><g class="cls-11"><rect class="cls-12" x="896.04" y="208.08" width="9.5" height="254.25"/></g><g class="cls-11"><rect class="cls-12" x="877.04" y="191.58" width="9.5" height="273.25"/></g><g class="cls-11"><rect class="cls-12" x="858.04" y="208.08" width="9.5" height="256.75"/></g><g class="cls-11"><rect class="cls-12" x="839.04" y="220.58" width="9.5" height="256.75"/></g><g class="cls-11"><rect class="cls-12" x="820.04" y="216.46" width="9.5" height="256.75"/></g><g class="cls-11"><rect class="cls-12" x="801.54" y="208.83" width="9.5" height="254.25"/></g><g class="cls-11"><rect class="cls-12" x="782.54" y="192.33" width="9.5" height="273.25"/></g><g class="cls-11"><rect class="cls-12" x="763.54" y="208.83" width="9.5" height="256.75"/></g><g class="cls-11"><rect class="cls-12" x="744.54" y="221.33" width="9.5" height="256.75"/></g><g class="cls-11"><rect class="cls-12" x="725.54" y="217.21" width="9.5" height="256.75"/></g><g class="cls-11"><rect class="cls-12" x="706.54" y="212.58" width="9.5" height="254.25"/></g><g class="cls-11"><rect class="cls-12" x="687.54" y="196.08" width="9.5" height="273.25"/></g><g class="cls-11"><rect class="cls-12" x="668.54" y="212.58" width="9.5" height="256.75"/></g><g class="cls-11"><rect class="cls-12" x="649.54" y="225.08" width="9.5" height="256.75"/></g><g class="cls-11"><rect class="cls-12" x="633" y="241.33" width="293" height="9"/></g><g class="cls-11"><rect class="cls-12" x="635" y="259.33" width="293" height="9"/></g><g class="cls-11"><rect class="cls-12" x="633" y="277.33" width="293" height="9"/></g><g class="cls-11"><rect class="cls-12" x="636" y="295.33" width="293" height="9"/></g><g class="cls-11"><rect class="cls-12" x="631" y="313.33" width="293" height="9"/></g><g class="cls-11"><rect class="cls-12" x="633" y="331.33" width="293" height="9"/></g><g class="cls-11"><rect class="cls-12" x="631" y="349.33" width="293" height="9"/></g><g class="cls-11"><rect class="cls-12" x="634" y="367.33" width="293" height="9"/></g><g class="cls-11"><rect class="cls-12" x="636" y="385.33" width="293" height="9"/></g><g class="cls-11"><rect class="cls-12" x="634" y="403.33" width="293" height="9"/></g><g class="cls-11"><rect class="cls-12" x="630" y="421.33" width="293" height="9"/></g><g class="cls-11"><rect class="cls-12" x="632" y="439.33" width="293" height="9"/></g></g><path class="cls-4" d="M708,428.58a2.5,2.5,0,0,1-.52-.05l-189-40.16a2.5,2.5,0,0,1-2-2.81c.07-.51,7.65-51.33,28.43-91.41a2.51,2.51,0,0,1,.45-.61c.67-.67,17.06-16.82,77.5-52.05a2.5,2.5,0,0,1,3.74,1.86c.06.54,7.1,54.48,61,100.56a2.51,2.51,0,0,1,.79,1.24l22,80.28a2.5,2.5,0,0,1-2.41,3.16ZM521.84,384l182.69,38.81L683.79,347.2c-47.35-40.8-59-86.35-61.51-99.57-53.39,31.33-70.82,47-73.08,49.17C531.45,331.26,523.57,373.7,521.84,384Z"/><line class="cls-14" x1="553.38" y1="288.06" x2="580.41" y2="396.31"/><path class="cls-4" d="M580.41,397.31a1,1,0,0,1-1-.76l-27-108.26a1,1,0,0,1,1.94-.48l27,108.26a1,1,0,0,1-.73,1.21A1,1,0,0,1,580.41,397.31Z"/><path class="cls-4" d="M635.5,343.68h-.15a1.5,1.5,0,0,1-1.07-.62,291.93,291.93,0,0,1-18.1-29.84c-11.95-22.7-17.7-41.37-17.1-55.51a1.5,1.5,0,0,1,3,.13c-1.26,29.49,27.91,73.65,33.67,82.07l18.53-17.33a1.5,1.5,0,1,1,2,2.19l-19.79,18.52A1.5,1.5,0,0,1,635.5,343.68Z"/><path class="cls-4" d="M701,424.41a2.5,2.5,0,0,1-2.43-3.1l17.7-71.94a2.51,2.51,0,0,1,.8-1.3c31.74-27.26,48.52-54.83,57-73.15,9.2-19.86,10.91-33.45,10.93-33.58a2.5,2.5,0,0,1,3.74-1.86c60.44,35.23,76.84,51.38,77.5,52.05a2.51,2.51,0,0,1,.45.61c20.78,40.09,28.35,90.91,28.43,91.41a2.5,2.5,0,0,1-2,2.81l-191.67,38A2.5,2.5,0,0,1,701,424.41Zm19.94-73.07-16.57,67.35,185.45-36.76c-1.73-10.33-9.62-52.73-27.35-87.12-2.27-2.13-19.85-17.94-73.09-49.18C786.77,258.92,774.25,305.29,720.94,351.34Z"/><line class="cls-14" x1="858.29" y1="286.06" x2="831.26" y2="394.31"/><path class="cls-4" d="M831.26,395.31a1,1,0,0,1-1-1.24l27-108.26a1,1,0,0,1,1.94.48l-27,108.26A1,1,0,0,1,831.26,395.31Z"/><path class="cls-4" d="M776.17,341.68a1.5,1.5,0,0,1-1-.4l-19.79-18.52a1.5,1.5,0,1,1,2-2.19l18.53,17.33c5.76-8.42,34.93-52.59,33.67-82.07a1.5,1.5,0,0,1,3-.13c.6,14.14-5.15,32.81-17.1,55.51a291.93,291.93,0,0,1-18.1,29.84,1.5,1.5,0,0,1-1.07.62Z"/><path class="cls-15" d="M774,99.08s9.5-22,21.25-12.75c0,0,22.75,26.37-21.25,55.75Z"/><path class="cls-16" d="M774,144.08a2,2,0,0,1-2-2v-43a2,2,0,0,1,.16-.79c.24-.56,6-13.71,14.69-15.91,3.32-.84,6.56,0,9.63,2.38a2,2,0,0,1,.28.26,30.44,30.44,0,0,1,6.08,22.84c-1.72,12.67-11.05,24.74-27.74,35.88A2,2,0,0,1,774,144.08Zm2-44.58v38.76c13.7-9.82,21.39-20.19,22.87-30.87a27,27,0,0,0-5-19.63,6.8,6.8,0,0,0-6-1.52C782.4,87.64,777.61,96,776,99.51Z"/><path class="cls-15" d="M793.5,95.08s-13.4,7.48-18,25.5"/><path class="cls-16" d="M775.5,122.58a2,2,0,0,1-1.94-2.5c4.75-18.64,18.38-26.43,19-26.75a2,2,0,0,1,2,3.49,40.6,40.6,0,0,0-17,24.25A2,2,0,0,1,775.5,122.58Z"/><path class="cls-17" d="M635,97.08s-9.5-22-21.25-12.75c0,0-21.75,26.37,21.25,55.75Z"/><path class="cls-16" d="M635,142.08a2,2,0,0,1-1.13-.35c-16.32-11.15-25.51-23.23-27.31-35.91a30.76,30.76,0,0,1,5.64-22.77,2,2,0,0,1,.31-.3c3.08-2.42,6.32-3.22,9.63-2.38,8.68,2.2,14.45,15.35,14.69,15.91a2,2,0,0,1,.16.79v43a2,2,0,0,1-2,2ZM615.17,85.76a27.36,27.36,0,0,0-4.64,19.59c1.54,10.68,9.1,21.05,22.46,30.87V97.51c-1.62-3.55-6.42-11.88-11.84-13.25A6.79,6.79,0,0,0,615.17,85.76Z"/><path class="cls-17" d="M618.39,93.08s13.4,7.48,18,25.5"/><path class="cls-16" d="M636.39,120.58a2,2,0,0,1-1.94-1.51,40.59,40.59,0,0,0-17-24.25,2,2,0,0,1,2-3.49c.58.32,14.21,8.11,19,26.75a2,2,0,0,1-1.94,2.5Z"/><g class="cls-18"><path class="cls-19" d="M630,2.5v0Z"/><rect class="cls-19" x="630" y="2.33" width="4" height="211"/><rect class="cls-20" x="634" y="2.33" width="3" height="211"/><rect class="cls-21" x="637" y="2.33" width="3" height="211"/><rect class="cls-22" x="640" y="2.33" width="3" height="211"/><rect class="cls-23" x="643" y="2.33" width="3" height="211"/><rect class="cls-24" x="646" y="2.33" width="3" height="211"/><rect class="cls-25" x="649" y="2.33" width="4" height="211"/><rect class="cls-26" x="653" y="2.33" width="3" height="211"/><rect class="cls-27" x="656" y="2.33" width="3" height="211"/><rect class="cls-28" x="659" y="2.33" width="3" height="211"/><rect class="cls-29" x="662" y="2.33" width="3" height="211"/><rect class="cls-30" x="665" y="2.33" width="3" height="211"/><rect class="cls-31" x="668" y="2.33" width="3" height="211"/><rect class="cls-32" x="671" y="2.33" width="4" height="211"/><rect class="cls-33" x="675" y="2.33" width="3" height="211"/><rect class="cls-34" x="678" y="2.33" width="3" height="211"/><rect class="cls-35" x="681" y="2.33" width="3" height="211"/><rect class="cls-36" x="684" y="2.33" width="3" height="211"/><rect class="cls-37" x="687" y="2.33" width="3" height="211"/><rect class="cls-38" x="690" y="2.33" width="3" height="211"/><rect class="cls-39" x="693" y="2.33" width="4" height="211"/><rect class="cls-40" x="697" y="2.33" width="3" height="211"/><rect class="cls-41" x="700" y="2.33" width="3" height="211"/><rect class="cls-42" x="703" y="2.33" width="3" height="211"/><rect class="cls-43" x="706" y="2.33" width="3" height="211"/><rect class="cls-44" x="709" y="2.33" width="3" height="211"/><rect class="cls-45" x="712" y="2.33" width="4" height="211"/><rect class="cls-46" x="716" y="2.33" width="3" height="211"/><rect class="cls-47" x="719" y="2.33" width="3" height="211"/><rect class="cls-48" x="722" y="2.33" width="3" height="211"/><rect class="cls-49" x="725" y="2.33" width="3" height="211"/><rect class="cls-50" x="728" y="2.33" width="3" height="211"/><rect class="cls-51" x="731" y="2.33" width="3" height="211"/><rect class="cls-52" x="734" y="2.33" width="4" height="211"/><rect class="cls-53" x="738" y="2.33" width="3" height="211"/><rect class="cls-54" x="741" y="2.33" width="3" height="211"/><rect class="cls-55" x="744" y="2.33" width="3" height="211"/><rect class="cls-56" x="747" y="2.33" width="3" height="211"/><rect class="cls-57" x="750" y="2.33" width="3" height="211"/><rect class="cls-58" x="753" y="2.33" width="3" height="211"/><rect class="cls-59" x="756" y="2.33" width="4" height="211"/><rect class="cls-60" x="760" y="2.33" width="3" height="211"/><rect class="cls-61" x="763" y="2.33" width="3" height="211"/><rect class="cls-62" x="766" y="2.33" width="3" height="211"/><rect class="cls-63" x="769" y="2.33" width="3" height="211"/><rect class="cls-64" x="772" y="2.33" width="3" height="211"/><rect class="cls-65" x="775" y="2.33" width="3" height="211"/><path class="cls-65" d="M778,212.83v0Z"/></g><path class="cls-16" d="M704.5,215.33c-42.18,0-76.5-27.64-76.5-61.61V61.61C628,27.64,662.32,0,704.5,0S781,27.64,781,61.61v92.12C781,187.7,746.68,215.33,704.5,215.33ZM704.5,5C665.08,5,633,30.39,633,61.61v92.12c0,31.21,32.08,56.61,71.5,56.61S776,184.94,776,153.73V61.61C776,30.39,743.92,5,704.5,5Z"/><path class="cls-66" d="M738,120.17c9.65,0,9.67-15,0-15s-9.67,15,0,15Z"/><path class="cls-66" d="M663,120.5s10-15,0-15c-9,0-9,15,0,15Z"/><path class="cls-67" d="M711.75,96.33"/><path class="cls-68" d="M718.67,82.24s.58-.51,1.62-1.35,2.6-2,4.54-3.22c1-.63,2-1.28,3.2-1.94s2.42-1.29,3.75-1.91a40.21,40.21,0,0,1,4.22-1.7,39.32,39.32,0,0,1,4.61-1.27c.8-.16,1.59-.32,2.41-.44s1.63-.24,2.46-.31A20.89,20.89,0,0,1,748,70a20.67,20.67,0,0,1,2.45.27,14.93,14.93,0,0,1,4.43,1.64,12.35,12.35,0,0,1,1.85,1.19,11.51,11.51,0,0,1,1.54,1.33,15.05,15.05,0,0,1,2.2,2.71,18.92,18.92,0,0,1,1.19,2.35,17.38,17.38,0,0,1,.63,2.18.32.32,0,0,1-.48.34h0s-.74-.42-1.81-1.17c-.27-.19-.6-.36-.93-.56s-.66-.44-1-.65c-.79-.39-1.59-.88-2.52-1.27a11.89,11.89,0,0,0-1.42-.58c-.25-.09-.48-.21-.74-.29l-.78-.24c-1-.33-2.16-.57-3.33-.84-.58-.14-1.19-.23-1.81-.38s-1.26-.26-1.93-.31a20.3,20.3,0,0,0-4.12-.12,34.79,34.79,0,0,0-4.21.57c-1.39.27-2.77.6-4.09,1s-2.59.78-3.8,1.19-2.34.83-3.38,1.26c-2.08.83-3.77,1.66-5,2.22s-1.84.94-1.84.94a.3.3,0,0,1-.35-.49Z"/><path class="cls-68" d="M683.89,79.73a17.65,17.65,0,0,0-1.52-1,33.85,33.85,0,0,0-4.24-2.16,30.83,30.83,0,0,0-6.24-1.92,32.75,32.75,0,0,0-3.55-.44,23.62,23.62,0,0,0-3.62.05,16.59,16.59,0,0,0-3.5.71c-.56.15-1.1.4-1.65.54s-1.06.38-1.59.53c-1,.34-2.09.59-3.1.85-.51.12-1,.26-1.49.39s-1,.23-1.43.36c-.92.26-1.81.44-2.6.65s-1.54.32-2.13.47a18.76,18.76,0,0,1-2,.34h0a.4.4,0,0,1-.44-.36.41.41,0,0,1,0-.19,14.4,14.4,0,0,1,1-1.83,13.62,13.62,0,0,1,1.38-1.89,16.93,16.93,0,0,1,2.13-2.14,18.67,18.67,0,0,1,2.94-2.07,16,16,0,0,1,3.72-1.6,18.05,18.05,0,0,1,4.34-.56,40.28,40.28,0,0,1,4.48.18,28.92,28.92,0,0,1,4.35.72,25.91,25.91,0,0,1,4,1.35,27.56,27.56,0,0,1,3.46,1.75,31.41,31.41,0,0,1,2.84,1.91c.85.63,1.57,1.27,2.2,1.84s1.14,1.1,1.55,1.55a18.53,18.53,0,0,1,1.23,1.46h0a.35.35,0,0,1-.5.49Z"/><path class="cls-69" d="M705.79,303.59c57-17.67,84.21-60.26,84.21-60.26,42-60-11.5-129.5-11.5-129.5s8.37,74.4-74,61.06"/><path class="cls-70" d="M705.79,306.09a2.5,2.5,0,0,1-.74-4.89c55.52-17.2,82.57-58.79,82.84-59.21l.06-.09c16.92-24.17,20.19-52.73,9.72-84.9a158.2,158.2,0,0,0-16.45-34.74c-.36,10.82-3.17,29.42-16.88,42.48-13.32,12.69-33.58,16.93-60.23,12.62a2.5,2.5,0,0,1,.8-4.94c25,4,43.86.25,56-11.3,18.23-17.37,15.16-46.72,15.13-47a2.5,2.5,0,0,1,4.47-1.8,156.49,156.49,0,0,1,21.89,43c10.88,33.31,7.32,64.22-10.3,89.42-1.51,2.35-28.72,43.65-85.54,61.25A2.5,2.5,0,0,1,705.79,306.09Z"/><path class="cls-69" d="M705.79,303.59c-57-17.67-84.21-60.26-84.21-60.26-42-60,11.5-129.5,11.5-129.5s-8.37,74.4,74,61.06"/><path class="cls-70" d="M705.8,306.09a2.5,2.5,0,0,1-.74-.11c-56.82-17.6-84-58.9-85.54-61.25-17.62-25.19-21.18-56.11-10.3-89.42a156.5,156.5,0,0,1,21.9-43,2.5,2.5,0,0,1,4.47,1.8c0,.29-3.06,29.71,15.15,47,12.13,11.53,31,15.33,56,11.28a2.5,2.5,0,0,1,.8,4.94c-26.65,4.32-46.92.07-60.23-12.62-13.71-13.07-16.52-31.66-16.88-42.48A158.2,158.2,0,0,0,613.92,157c-10.47,32.17-7.2,60.73,9.72,84.9l.06.09c.27.42,27.41,42,82.84,59.21a2.5,2.5,0,0,1-.74,4.89Z"/><g class="cls-71"><path d="M659.92,238.67c.72-39.21,45.17-62.77,45.17-62.77-82.37,13.33-74-61.06-74-61.06s-53.5,69.5-11.5,129.5c0,0,28.46,43,85.5,60.67C705.09,305,659.26,275.08,659.92,238.67Z"/><path d="M711.62,308.07,704.79,306c-56.72-17.57-85.75-60.64-86-61.07-21.92-31.31-17.6-65.2-10.12-88.11a158,158,0,0,1,21.66-42.55l2.18-2.84-.4,3.56c0,.3-3.16,30.42,15.59,48.28,12.48,11.88,31.75,15.82,57.25,11.69l6-1-5.35,2.84a111.17,111.17,0,0,0-22.13,16.55c-10.07,9.71-22.14,25.46-22.51,45.35-.65,35.45,44.26,65.18,44.71,65.48ZM629.9,118.22a159.51,159.51,0,0,0-19.38,39.23c-7.33,22.46-11.56,55.67,9.89,86.31.29.43,26.85,39.81,78.79,58.23a149.1,149.1,0,0,1-17.67-15.81c-10.51-11.11-23-28.38-22.61-47.53.59-32,30.12-53.86,41.39-61.06-23.73,3-41.89-1.38-54-12.93C630.69,149.8,629.67,126.9,629.9,118.22Z"/></g><g class="cls-72"><path class="cls-12" d="M701,7.33,702.66,7c1.09-.17,2.71-.46,4.77-.62A62.46,62.46,0,0,1,715,6.2a68.6,68.6,0,0,1,9.79,1c1.8.32,3.61.74,5.56,1.24.88.21,1.87.52,2.88.83s2,.64,3,1a67.61,67.61,0,0,1,12,5.79,61.66,61.66,0,0,1,5.87,4l.75.58.66.52c.42.32,1,.79,1.43,1.18.95.82,1.83,1.65,2.73,2.52A59.67,59.67,0,0,1,769,36.74a56.79,56.79,0,0,1,3.51,6.8A51.69,51.69,0,0,1,775,50.77a51,51,0,0,1,1.77,14.68c0,1.25-.1,2.25-.16,3.33s-.12,2.12-.19,3.16c-.15,2.08-.27,4.12-.44,6.11-.32,4-.67,7.72-1,11.19-.75,6.93-1.59,12.7-2.27,16.74-.33,2-.67,3.61-.86,4.69l-.34,1.66-.34-1.66c-.2-1.08-.53-2.67-.86-4.69-.68-4-1.53-9.82-2.27-16.74-.37-3.46-.72-7.22-1-11.19-.17-2-.29-4-.44-6.11q-.12-1.56-.19-3.16c-.06-1-.11-2.19-.19-3.11a54.32,54.32,0,0,0-.79-5.83,58.22,58.22,0,0,0-1.51-5.8,51.16,51.16,0,0,0-2.21-5.65,55.42,55.42,0,0,0-2.9-5.45,61.83,61.83,0,0,0-7.47-9.88c-.7-.75-1.44-1.49-2.16-2.2-.37-.35-.65-.66-1.09-1.06l-.62-.57-.54-.49c-1.52-1.37-3.1-2.64-4.69-3.87a82.49,82.49,0,0,0-9.77-6.37c-.82-.46-1.63-.89-2.44-1.32s-1.57-.79-2.44-1.2c-1.57-.77-3.19-1.46-4.72-2.1a111.64,111.64,0,0,0-15.58-5.11c-2-.49-3.52-.86-4.6-1.08Z"/></g><path class="cls-73" d="M703.7,158s-13,41-69,41C634.67,199,657.07,135.33,703.7,158Z"/><path class="cls-70" d="M634.67,201a2,2,0,0,1-1.89-2.66,102.9,102.9,0,0,1,9-18.25c5.57-9,14.92-20.76,27.85-26.07,10.93-4.49,22.67-3.76,34.9,2.18a2,2,0,0,1,1,2.4c-.14.44-3.53,10.83-14,21.31C682,189.53,664.28,201,634.67,201Zm49.53-45.87a33.91,33.91,0,0,0-13,2.58C652.19,165.52,641,189,637.62,197c45.26-1.23,60.46-30.63,63.54-37.94A41.56,41.56,0,0,0,684.2,155.13Z"/><path class="cls-73" d="M703.67,158s13,41,69,41C772.7,199,750.3,135.33,703.67,158Z"/><path class="cls-70" d="M772.7,201c-29.61,0-47.3-11.47-56.93-21.08-10.48-10.47-13.87-20.87-14-21.31a2,2,0,0,1,1-2.4c12.22-5.94,24-6.68,34.9-2.18,12.93,5.31,22.29,17.11,27.85,26.07a102.9,102.9,0,0,1,9,18.25A2,2,0,0,1,772.7,201Zm-66.5-42a58.18,58.18,0,0,0,12.54,18.21c8.76,8.7,24.64,19,51,19.73-3.35-8-14.57-31.44-33.59-39.25C726.82,153.87,716.75,154.32,706.2,159Z"/><g class="cls-71"><path d="M670.54,191.59c-9.1,3.84-20.41,6.41-34.41,6.41a90.43,90.43,0,0,1,4.23-9.59A94.72,94.72,0,0,1,653.16,169c5.72-6.54,12.89-12.37,21.55-15.16C674.71,153.84,631.75,190.35,670.54,191.59Z"/><path d="M636.13,199a1,1,0,0,1-.94-1.33,90.68,90.68,0,0,1,4.28-9.71,96.5,96.5,0,0,1,12.94-19.61c6.76-7.74,14.16-12.93,22-15.45a1,1,0,0,1,1,1.71c-6.47,5.5-22.61,21.6-19.68,30,1.3,3.72,6.31,5.74,14.9,6a1,1,0,0,1,.36,1.92C660.74,196.81,649,199,636.13,199Zm33.78-42.13a52.17,52.17,0,0,0-16,12.79,94.54,94.54,0,0,0-12.66,19.2c-1.81,3.6-3,6.53-3.67,8.13a89.06,89.06,0,0,0,28.47-4.73c-6.82-.86-10.94-3.21-12.27-7C650.8,176.7,663.13,163.36,669.91,156.86Z"/></g><g class="cls-74"><path class="cls-12" d="M719.87,118.27c5.19,13.65,16.33,12.55,16.33,12.55h22.48a15.53,15.53,0,0,0,5.22-1.07,14.22,14.22,0,0,0,4.26-2.52,11.52,11.52,0,0,0,2.83-3.59,9.44,9.44,0,0,0,1-4.3v-20a9,9,0,0,0-1-4.21,11,11,0,0,0-2.85-3.44,13.59,13.59,0,0,0-4.25-2.16,16.13,16.13,0,0,0-5.21-.69H728.48a16.19,16.19,0,0,0-5.22.69A13.81,13.81,0,0,0,719,91.75a10.91,10.91,0,0,0-2.88,3.4,9.3,9.3,0,0,0-1.05,4.28S714.05,103,719.87,118.27Z"/></g><path class="cls-4" d="M735.59,132.84a17.89,17.89,0,0,1-6.77-1.41c-3.67-1.53-8.7-5-11.76-13.09h0c-5-13.12-5.27-18.28-5-20.19a12.29,12.29,0,0,1,1.39-5.39,13.92,13.92,0,0,1,3.65-4.34,16.66,16.66,0,0,1,5.18-2.74,18.68,18.68,0,0,1,6.19-.85h30.19a18.66,18.66,0,0,1,6.18.85A16.67,16.67,0,0,1,770,88.34a13.9,13.9,0,0,1,3.62,4.38,11.94,11.94,0,0,1,1.35,5.6v20a12.48,12.48,0,0,1-1.34,5.67,14.45,14.45,0,0,1-3.57,4.52,17.08,17.08,0,0,1-5.18,3,18.44,18.44,0,0,1-6.24,1.25H736.31Zm-12.92-16.64c4.33,11.37,13.14,10.64,13.23,10.63h22.77a12.86,12.86,0,0,0,4.21-.9,11.27,11.27,0,0,0,3.35-2,8.47,8.47,0,0,0,2.09-2.66,6.45,6.45,0,0,0,.68-2.94v-20a6,6,0,0,0-.66-2.82,7.93,7.93,0,0,0-2.08-2.5,10.57,10.57,0,0,0-3.34-1.66,13.11,13.11,0,0,0-4.24-.53H728.48a13.14,13.14,0,0,0-4.26.53,10.83,10.83,0,0,0-3.35,1.74,8,8,0,0,0-2.1,2.46,6.33,6.33,0,0,0-.71,2.88c0,.4.06.42-.07.71,0,.82.1,5,4.68,17.07Z"/><path class="cls-16" d="M739.78,151.45a1.5,1.5,0,0,1-1.11-.5l-11.5-12.75a1.5,1.5,0,0,1,2.23-2l11.5,12.75a1.5,1.5,0,0,1-1.11,2.5Z"/><path class="cls-16" d="M667,151.45a1.5,1.5,0,0,1-1.11-2.5l11.5-12.75a1.5,1.5,0,0,1,2.23,2L668.11,151A1.5,1.5,0,0,1,667,151.45Z"/><path class="cls-75" d="M703.5,94c9.2,2.34,15,38.67,15,38.67s9.48-2.58,9.77,8.54c0,0,1.35,13.67-10.77,9.88a7.93,7.93,0,0,1-2.25-1.92s-5.55,7.42-11.72,6.5"/><path class="cls-16" d="M704.57,157.22a8.77,8.77,0,0,1-1.29-.09,1.5,1.5,0,0,1,.44-3c4.33.64,8.9-4.05,10.29-5.91a1.5,1.5,0,0,1,2.32-.1,7.84,7.84,0,0,0,1.71,1.52c2.83.86,5,.72,6.39-.43,2.33-1.89,2.46-6.36,2.31-7.92,0,0,0-.07,0-.11-.08-3-.89-5.14-2.41-6.28-2.23-1.67-5.43-.86-5.47-.85a1.5,1.5,0,0,1-1.87-1.21c-2.17-13.67-7.85-35.92-13.85-37.45a1.5,1.5,0,1,1,.74-2.91c9.07,2.3,14.54,30.84,15.83,38.41a9.37,9.37,0,0,1,6.39,1.59c2.3,1.71,3.52,4.6,3.64,8.57.06.74.51,7.29-3.4,10.47-2.26,1.84-5.4,2.15-9.32.92l-.17-.07a6.75,6.75,0,0,1-1.53-1.07C713.42,153.43,709.32,157.22,704.57,157.22Z"/><g class="cls-76"><path class="cls-12" d="M702.15,99.26a5.29,5.29,0,0,1,2.42,1.14,10.59,10.59,0,0,1,1.91,2,24,24,0,0,1,2.73,4.64,52.55,52.55,0,0,1,3.27,10,92.26,92.26,0,0,1,1.71,10.31c.19,1.73.33,3.46.44,5.2s.15,3.46.15,5.23l-2.36-1.18c.38-.22.7-.38,1-.55s.69-.32,1-.48a17.28,17.28,0,0,1,2.17-.76,13.2,13.2,0,0,1,2.31-.44,7.52,7.52,0,0,1,2.45.13,5,5,0,0,1,2.26,1.15,4.43,4.43,0,0,1,.8,1,4.92,4.92,0,0,1,.52,1.08,6.57,6.57,0,0,1,.29,1.11,8.45,8.45,0,0,1,.13,1.11c0,.37,0,.74,0,1.1l-.1,1.08-.2-1.06c-.09-.35-.17-.69-.27-1a10.22,10.22,0,0,0-.35-1,5.62,5.62,0,0,0-.45-.89,4.11,4.11,0,0,0-.58-.75,3.09,3.09,0,0,0-.69-.56,3.37,3.37,0,0,0-1.64-.47,8.4,8.4,0,0,0-3.64.84c-.6.26-1.19.58-1.77.9-.29.17-.58.34-.85.52s-.57.37-.79.54a1.47,1.47,0,0,1-2.33-1l0-.22-1.44-10.12c-.48-3.37-1-6.73-1.55-10.06s-1.18-6.65-2-9.89a32.36,32.36,0,0,0-1.58-4.73A13.9,13.9,0,0,0,704,101,6,6,0,0,0,702.15,99.26Z"/></g><g class="cls-76"><path class="cls-12" d="M788.06,253a203.67,203.67,0,0,1,19.13,8.33q4.66,2.3,9.24,4.73t9.07,5c1.51.85,3,1.74,4.47,2.62s3,1.76,4.44,2.68l4.4,2.74,4.35,2.83c2.9,1.9,5.75,3.89,8.59,5.91,1.41,1,2.81,2.1,4.22,3.15s2.79,2.26,4.18,3.38l.16.13a3.8,3.8,0,0,1,1,1.34l1.23,2.65,1.14,2.65c.75,1.77,1.49,3.54,2.17,5.34s1.37,3.59,2,5.41,1.24,3.64,1.79,5.5c.28.92.57,1.84.81,2.78s.52,1.86.75,2.8c.46,1.88.91,3.76,1.25,5.67.19.95.36,1.9.49,2.87s.31,1.91.37,2.89.19,1.93.21,2.9,0,1.94,0,2.9c-.38-.9-.73-1.79-1.08-2.67l-1.15-2.61c-.37-.86-.79-1.72-1.19-2.57s-.79-1.7-1.22-2.54l-1.25-2.52-1.28-2.51c-.41-.84-.87-1.66-1.3-2.5l-1.3-2.49-2.64-5-2.67-4.93L855.83,305l-2.7-4.85,1.2,1.47c-1.36-.95-2.65-1.89-4-2.85s-2.75-1.91-4.18-2.84l-8.47-5.7-4.26-2.86-4.24-2.9-4.23-2.92c-1.41-1-2.83-1.94-4.22-3-2.81-2-5.59-4-8.37-6s-5.52-4.12-8.26-6.23C798.62,262.07,793.22,257.74,788.06,253Z"/></g><g class="cls-74"><path class="cls-12" d="M688.81,117.27c-5.19,13.65-16.33,12.55-16.33,12.55H650a15.52,15.52,0,0,1-5.22-1.07,14.22,14.22,0,0,1-4.27-2.52,11.5,11.5,0,0,1-2.83-3.59,9.43,9.43,0,0,1-1-4.3v-20a9,9,0,0,1,1-4.21,10.93,10.93,0,0,1,2.85-3.44,13.58,13.58,0,0,1,4.25-2.16,16.12,16.12,0,0,1,5.21-.69h30.2a16.19,16.19,0,0,1,5.22.69,13.81,13.81,0,0,1,4.27,2.24,10.9,10.9,0,0,1,2.88,3.4,9.3,9.3,0,0,1,1.05,4.28S694.62,102,688.81,117.27Z"/></g><path class="cls-77" d="M704.28,94c-9.2,2.34-15,38.67-15,38.67s-9.48-2.58-9.77,8.54c0,0-1.35,13.67,10.77,9.88a7.93,7.93,0,0,0,2.25-1.92s5.55,7.42,11.72,6.5"/><path class="cls-16" d="M703.22,157.72c-4.68,0-8.72-3.5-10.79-5.68a6.51,6.51,0,0,1-1.28.84l-.23.09c-4.09,1.28-7.38.94-9.78-1-4.07-3.31-3.65-10-3.58-10.89.12-4.13,1.41-7.14,3.84-8.95a9.66,9.66,0,0,1,6.27-1.72c1.57-9.13,6.94-36,16.13-38.37a2,2,0,0,1,1,3.88c-5.46,1.39-11.17,22.5-13.48,37a2,2,0,0,1-2.5,1.62s-3-.76-5,.77c-1.39,1-2.14,3-2.21,5.89,0,0,0,.1,0,.14-.14,1.48,0,5.73,2.13,7.48,1.26,1,3.24,1.14,5.88.35a7.92,7.92,0,0,0,1.53-1.39,2,2,0,0,1,3.1.13c1.35,1.79,5.75,6.33,9.82,5.72a2,2,0,0,1,.59,4A9.23,9.23,0,0,1,703.22,157.72Z"/><path class="cls-4" d="M714.12,103.56a3,3,0,0,1-2.61-1.51c-2.63-4.59-5.2-7-7.31-6.93-2.68.15-5.42,4.53-6.33,6.62a3,3,0,0,1-5.52-2.36c.43-1,4.4-9.84,11.49-10.25,4.59-.27,8.94,3.07,12.87,9.94a3,3,0,0,1-2.6,4.49Z"/><line class="cls-69" x1="705.09" y1="180.83" x2="707.09" y2="299.79"/><rect class="cls-69" x="704.09" y="180.83" width="4" height="118.97" transform="translate(-3.94 11.9) rotate(-0.96)"/><g class="cls-78"><g class="cls-79"><path d="M0,1312.33v0Z"/><rect y="1312.33" width="22" height="88"/><rect class="cls-80" x="22" y="1312.33" width="22" height="88"/><rect class="cls-81" x="44" y="1312.33" width="22" height="88"/><rect class="cls-82" x="66" y="1312.33" width="23" height="88"/><rect class="cls-83" x="89" y="1312.33" width="22" height="88"/><rect class="cls-84" x="111" y="1312.33" width="22" height="88"/><rect class="cls-85" x="133" y="1312.33" width="22" height="88"/><rect class="cls-86" x="155" y="1312.33" width="22" height="88"/><rect class="cls-87" x="177" y="1312.33" width="22" height="88"/><rect class="cls-88" x="199" y="1312.33" width="22" height="88"/><rect class="cls-89" x="221" y="1312.33" width="23" height="88"/><rect class="cls-90" x="244" y="1312.33" width="22" height="88"/><rect class="cls-91" x="266" y="1312.33" width="22" height="88"/><rect class="cls-92" x="288" y="1312.33" width="22" height="88"/><rect class="cls-93" x="310" y="1312.33" width="22" height="88"/><rect class="cls-94" x="332" y="1312.33" width="22" height="88"/><rect class="cls-95" x="354" y="1312.33" width="22" height="88"/><rect class="cls-96" x="376" y="1312.33" width="23" height="88"/><rect class="cls-97" x="399" y="1312.33" width="22" height="88"/><rect class="cls-98" x="421" y="1312.33" width="22" height="88"/><rect class="cls-98" x="443" y="1312.33" width="22" height="88"/><rect class="cls-99" x="465" y="1312.33" width="22" height="88"/><rect class="cls-99" x="487" y="1312.33" width="22" height="88"/><rect class="cls-99" x="509" y="1312.33" width="22" height="88"/><rect class="cls-99" x="531" y="1312.33" width="22" height="88"/><rect class="cls-100" x="553" y="1312.33" width="23" height="88"/><rect class="cls-100" x="576" y="1312.33" width="22" height="88"/><rect class="cls-100" x="598" y="1312.33" width="22" height="88"/><rect class="cls-100" x="620" y="1312.33" width="22" height="88"/><rect class="cls-100" x="642" y="1312.33" width="22" height="88"/><rect class="cls-100" x="664" y="1312.33" width="22" height="88"/><rect class="cls-100" x="686" y="1312.33" width="22" height="88"/><rect class="cls-100" x="708" y="1312.33" width="23" height="88"/><rect class="cls-100" x="731" y="1312.33" width="22" height="88"/><rect class="cls-100" x="753" y="1312.33" width="22" height="88"/><rect class="cls-100" x="775" y="1312.33" width="22" height="88"/><rect class="cls-100" x="797" y="1312.33" width="22" height="88"/><rect class="cls-100" x="819" y="1312.33" width="22" height="88"/><rect class="cls-100" x="841" y="1312.33" width="22" height="88"/><rect class="cls-100" x="863" y="1312.33" width="23" height="88"/><rect class="cls-100" x="886" y="1312.33" width="22" height="88"/><rect class="cls-100" x="908" y="1312.33" width="22" height="88"/><rect class="cls-100" x="930" y="1312.33" width="22" height="88"/><path class="cls-100" d="M952,1400.33v0Z"/></g></g><path class="cls-12" d="M346,327.14c0,3.26,2.49,6.44,7.23,9.51s11.74,6,20.74,8.85a314.77,314.77,0,0,0,32.82,8c12.8,2.51,27.36,4.85,43.47,7S484,364.56,503,366.26s39.18,3.16,60.47,4.35,43.65,2.12,66.83,2.75,47.17,1,71.75,1,48.57-.33,71.75-1,45.53-1.56,66.83-2.75S882.1,368,901,366.26s36.58-3.63,52.69-5.76,30.68-4.47,43.47-7a314.79,314.79,0,0,0,32.82-8c9-2.82,16-5.78,20.74-8.85s7.23-6.25,7.23-9.51l-11,59.17s-285.91,73.86-686.39,2L346,325.14"/><path class="cls-5" d="M630,325.14"/><path class="cls-2" d="M1054.16,372.65,952,1342.33c0,18.78-110.81,34-247.5,34s-247.5-15.22-247.5-34L346.34,372.65"/><path class="cls-3" d="M704.5,1379.33c-66.24,0-128.54-3.55-175.42-10-22.91-3.15-40.93-6.82-53.56-10.93-14.53-4.72-21.38-9.78-21.52-15.9L343.36,373a3,3,0,0,1,6-.68L460,1342a2.92,2.92,0,0,1,0,.34c0,4.26,14.72,13.49,69.9,21.07,46.62,6.4,108.62,9.93,174.6,9.93s128-3.53,174.6-9.93c55.18-7.58,69.9-16.81,69.9-21.07a3.07,3.07,0,0,1,0-.31l102.16-969.68a3,3,0,0,1,6,.63L955,1342.51c-.13,6.13-7,11.19-21.52,15.91-12.63,4.1-30.65,7.78-53.56,10.93C833,1375.79,770.74,1379.33,704.5,1379.33Z"/><g class="cls-11"><path class="cls-101" d="M701.28,426.31c-24.43,0-48.85-.32-72.59-1-23.1-.62-45.86-1.55-67.63-2.76-21.39-1.19-42-2.66-61.25-4.36s-37.1-3.64-53.46-5.79-31.31-4.53-44.29-7.05a327.58,327.58,0,0,1-33.86-8.2c-9.91-3.08-17.31-6.23-22.64-9.65l7.56-11.78c4.19,2.69,10.66,5.4,19.23,8.06a313.64,313.64,0,0,0,32.38,7.83c12.7,2.47,27.32,4.79,43.44,6.91s34,4,52.87,5.73c19.1,1.69,39.56,3.15,60.79,4.33,21.65,1.2,44.27,2.12,67.23,2.74,47.22,1.27,97.2,1.27,144.42,0,23-.62,45.59-1.54,67.23-2.74,21.23-1.18,41.69-2.64,60.79-4.33,18.92-1.68,36.71-3.61,52.87-5.73s30.75-4.44,43.44-6.91a313.66,313.66,0,0,0,32.38-7.83c8.57-2.66,15-5.37,19.23-8.06l7.56,11.78c-5.32,3.42-12.73,6.57-22.64,9.65a327.54,327.54,0,0,1-33.86,8.2c-13,2.52-27.88,4.89-44.29,7.05s-34.34,4.1-53.46,5.79-39.87,3.18-61.25,4.36c-21.78,1.21-44.53,2.14-67.63,2.76C750.13,426,725.71,426.31,701.28,426.31Z"/></g><g class="cls-78"><g class="cls-102"><polygon points="770 406.58 769.71 376.33 770 376.33 770 406.58"/><polygon points="770 963.65 764.98 376.33 769.71 376.33 770 406.58 770 963.65"/><polygon class="cls-103" points="770 1355.73 768.58 1355.73 760.24 376.33 764.98 376.33 770 963.65 770 1355.73"/><polygon class="cls-104" points="768.57 1355.73 763.83 1355.76 755.51 376.33 760.24 376.33 768.57 1355.73"/><polygon class="cls-105" points="763.83 1355.77 759.1 1355.8 750.77 376.33 755.51 376.33 763.83 1355.77"/><polygon class="cls-106" points="759.1 1355.81 754.36 1355.84 746.04 376.33 750.77 376.33 759.1 1355.81"/><polygon class="cls-107" points="754.36 1355.85 749.63 1355.88 741.3 376.33 746.04 376.33 754.36 1355.85"/><polygon class="cls-107" points="749.63 1355.89 744.89 1355.92 736.57 376.33 741.3 376.33 749.63 1355.89"/><polygon class="cls-108" points="744.89 1355.93 740.16 1355.96 731.83 376.33 736.57 376.33 744.89 1355.93"/><polygon class="cls-109" points="740.16 1355.97 735.42 1356 727.1 376.33 731.83 376.33 740.16 1355.97"/><polygon class="cls-110" points="735.42 1356.01 730.69 1356.04 722.36 376.33 727.1 376.33 735.42 1356.01"/><polygon class="cls-111" points="730.69 1356.05 725.95 1356.08 717.63 376.33 722.36 376.33 730.69 1356.05"/><polygon class="cls-112" points="725.95 1356.09 721.22 1356.12 712.89 376.33 717.63 376.33 725.95 1356.09"/><polygon class="cls-113" points="721.22 1356.13 716.48 1356.16 708.16 376.33 712.89 376.33 721.22 1356.13"/><polygon class="cls-114" points="716.48 1356.24 716.13 1356.33 711.75 1356.33 703.42 376.33 708.16 376.33 716.48 1356.24"/><polygon class="cls-115" points="707.01 1356.33 698.68 376.33 703.42 376.33 711.75 1356.33 707.01 1356.33"/><polygon class="cls-116" points="702.28 1356.33 693.95 376.33 698.68 376.33 707.01 1356.33 702.28 1356.33"/><polygon class="cls-117" points="697.54 1356.33 689.22 376.33 693.95 376.33 702.28 1356.33 697.54 1356.33"/><polygon class="cls-118" points="692.81 1356.33 684.48 376.33 689.22 376.33 697.54 1356.33 692.81 1356.33"/><polygon class="cls-119" points="688.07 1356.33 679.75 376.33 684.48 376.33 692.81 1356.33 688.07 1356.33"/><polygon class="cls-120" points="683.34 1356.33 675.01 376.33 679.75 376.33 688.07 1356.33 683.34 1356.33"/><polygon class="cls-121" points="678.6 1356.33 670.27 376.33 675.01 376.33 683.34 1356.33 678.6 1356.33"/><polygon class="cls-122" points="673.87 1356.33 665.54 376.33 670.27 376.33 678.6 1356.33 673.87 1356.33"/><polygon class="cls-123" points="669.13 1356.33 660.8 376.33 665.54 376.33 673.87 1356.33 669.13 1356.33"/><polygon class="cls-124" points="664.4 1356.33 656.07 376.33 660.8 376.33 669.13 1356.33 664.4 1356.33"/><polygon class="cls-125" points="659.66 1356.33 651.33 376.33 656.07 376.33 664.4 1356.33 659.66 1356.33"/><polygon class="cls-126" points="654.93 1356.33 646.6 376.33 651.33 376.33 659.66 1356.33 654.93 1356.33"/><polygon class="cls-127" points="650.19 1356.33 641.86 376.33 646.6 376.33 654.93 1356.33 650.19 1356.33"/><polygon class="cls-128" points="645.46 1356.33 637.13 376.33 641.86 376.33 650.19 1356.33 645.46 1356.33"/><polygon class="cls-129" points="640.72 1356.33 632.39 376.33 637.13 376.33 645.46 1356.33 640.72 1356.33"/><polygon class="cls-130" points="635.99 1356.33 627.66 376.33 632.39 376.33 640.72 1356.33 635.99 1356.33"/><polygon class="cls-131" points="631.25 1356.33 622.92 376.33 627.66 376.33 635.99 1356.33 631.25 1356.33"/><polygon class="cls-132" points="626.52 1356.33 618.19 376.33 622.92 376.33 631.25 1356.33 626.52 1356.33"/><polygon class="cls-133" points="621.78 1356.33 613.45 376.33 618.19 376.33 626.52 1356.33 621.78 1356.33"/><polygon class="cls-134" points="617.05 1356.33 608.72 376.33 613.45 376.33 621.78 1356.33 617.05 1356.33"/><polygon class="cls-135" points="612.31 1356.33 603.98 376.33 608.72 376.33 617.05 1356.33 612.31 1356.33"/><polygon class="cls-136" points="607.58 1356.33 599.25 376.33 603.98 376.33 612.31 1356.33 607.58 1356.33"/><polygon class="cls-137" points="602.84 1356.33 594.51 376.33 599.25 376.33 607.58 1356.33 602.84 1356.33"/><polygon class="cls-138" points="598.11 1356.33 589.78 376.33 594.51 376.33 602.84 1356.33 598.11 1356.33"/><polygon class="cls-139" points="593.37 1356.33 585.04 376.33 589.78 376.33 598.11 1356.33 593.37 1356.33"/><polygon class="cls-140" points="588.64 1356.33 580.31 376.33 585.04 376.33 593.37 1356.33 588.64 1356.33"/><polygon class="cls-141" points="583.9 1356.33 575.57 376.33 580.31 376.33 588.64 1356.33 583.9 1356.33"/><polygon class="cls-142" points="579.17 1356.33 570.84 376.33 575.57 376.33 583.9 1356.33 579.17 1356.33"/><polygon class="cls-143" points="574.43 1356.33 566.1 376.33 570.84 376.33 579.17 1356.33 574.43 1356.33"/><polygon class="cls-144" points="569.7 1356.33 561.37 376.33 566.1 376.33 574.43 1356.33 569.7 1356.33"/><polygon class="cls-145" points="564.96 1356.33 556.63 376.33 561.37 376.33 569.7 1356.33 564.96 1356.33"/><polygon class="cls-146" points="560.23 1356.33 551.9 376.33 556.63 376.33 564.96 1356.33 560.23 1356.33"/><polygon class="cls-147" points="555.49 1356.33 547.16 376.33 551.9 376.33 560.23 1356.33 555.49 1356.33"/><polygon class="cls-148" points="550.75 1356.33 542.43 376.33 547.16 376.33 555.49 1356.33 550.75 1356.33"/><polygon class="cls-149" points="546.02 1356.33 537.69 376.33 542.43 376.33 550.75 1356.33 546.02 1356.33"/><polygon class="cls-150" points="541.28 1356.33 532.96 376.33 537.69 376.33 546.02 1356.33 541.28 1356.33"/><polygon class="cls-151" points="536.55 1356.33 528.22 376.33 532.96 376.33 541.28 1356.33 536.55 1356.33"/><polygon class="cls-152" points="531.82 1356.33 523.49 376.33 528.22 376.33 536.55 1356.33 531.82 1356.33"/><polygon class="cls-153" points="527.08 1356.33 518.75 376.33 523.49 376.33 531.82 1356.33 527.08 1356.33"/><polygon class="cls-154" points="522.35 1356.33 514.02 376.33 518.75 376.33 527.08 1356.33 522.35 1356.33"/><polygon class="cls-155" points="517.61 1356.33 509.28 376.33 514.02 376.33 522.35 1356.33 517.61 1356.33"/><polygon class="cls-156" points="512.88 1356.33 504.55 376.33 509.28 376.33 517.61 1356.33 512.88 1356.33"/><polygon class="cls-157" points="508.14 1356.33 499.81 376.33 504.55 376.33 512.88 1356.33 508.14 1356.33"/><polygon class="cls-158" points="503.4 1356.33 495.08 376.33 499.81 376.33 508.14 1356.33 503.4 1356.33"/><polygon class="cls-159" points="498.67 1356.33 490.34 376.33 495.08 376.33 503.4 1356.33 498.67 1356.33"/><polygon class="cls-160" points="493.93 1356.33 485.61 376.33 490.34 376.33 498.67 1356.33 493.93 1356.33"/><polygon class="cls-161" points="489.2 1356.33 480.87 376.33 485.61 376.33 493.93 1356.33 489.2 1356.33"/><polygon class="cls-162" points="484.46 1356.33 476.13 376.33 480.87 376.33 489.2 1356.33 484.46 1356.33"/><polygon class="cls-163" points="479.73 1356.33 471.4 376.33 476.13 376.33 484.46 1356.33 479.73 1356.33"/><polygon class="cls-164" points="474.99 1356.33 466.67 376.33 471.4 376.33 479.73 1356.33 474.99 1356.33"/><polygon class="cls-165" points="470.26 1356.33 461.93 376.33 466.67 376.33 474.99 1356.33 470.26 1356.33"/><polygon class="cls-166" points="465.52 1356.33 457.19 376.33 461.93 376.33 470.26 1356.33 465.52 1356.33"/><polygon class="cls-167" points="460.79 1356.33 452.46 376.33 457.19 376.33 465.52 1356.33 460.79 1356.33"/><polygon class="cls-168" points="456.05 1356.33 447.73 376.33 452.46 376.33 460.79 1356.33 456.05 1356.33"/><polygon class="cls-169" points="451.32 1356.33 442.99 376.33 447.73 376.33 456.05 1356.33 451.32 1356.33"/><polygon class="cls-170" points="446.58 1356.33 438.25 376.33 442.99 376.33 451.32 1356.33 446.58 1356.33"/><polygon class="cls-171" points="441.85 1356.33 433.52 376.33 438.25 376.33 446.58 1356.33 441.85 1356.33"/><polygon class="cls-172" points="437.11 1356.33 428.78 376.33 433.52 376.33 441.85 1356.33 437.11 1356.33"/><polygon class="cls-173" points="432.38 1356.33 424.05 376.33 428.78 376.33 437.11 1356.33 432.38 1356.33"/><polygon class="cls-174" points="427.64 1356.33 419.31 376.33 424.05 376.33 432.38 1356.33 427.64 1356.33"/><polygon class="cls-175" points="422.91 1356.33 414.58 376.33 419.31 376.33 427.64 1356.33 422.91 1356.33"/><polygon class="cls-176" points="418.17 1356.33 409.84 376.33 414.58 376.33 422.91 1356.33 418.17 1356.33"/><polygon class="cls-177" points="413.44 1356.33 405.11 376.33 409.84 376.33 418.17 1356.33 413.44 1356.33"/><polygon class="cls-178" points="408.7 1356.33 400.37 376.33 405.11 376.33 413.44 1356.33 408.7 1356.33"/><polygon class="cls-179" points="403.97 1356.33 395.64 376.33 400.37 376.33 408.7 1356.33 403.97 1356.33"/><polygon class="cls-180" points="399.23 1356.33 390.9 376.33 395.64 376.33 403.97 1356.33 399.23 1356.33"/><polygon class="cls-181" points="394.5 1356.33 386.17 376.33 390.9 376.33 399.23 1356.33 394.5 1356.33"/><polygon class="cls-182" points="389.76 1356.33 381.43 376.33 386.17 376.33 394.5 1356.33 389.76 1356.33"/><polygon class="cls-183" points="385.03 1356.33 376.7 376.33 381.43 376.33 389.76 1356.33 385.03 1356.33"/><polygon class="cls-184" points="380.29 1356.33 371.96 376.33 376.7 376.33 385.03 1356.33 380.29 1356.33"/><polygon class="cls-185" points="375.56 1356.33 367.23 376.33 371.96 376.33 380.29 1356.33 375.56 1356.33"/><polygon class="cls-186" points="370.82 1356.33 362.49 376.33 367.23 376.33 375.56 1356.33 370.82 1356.33"/><polygon class="cls-187" points="366.09 1356.33 357.76 376.33 362.49 376.33 370.82 1356.33 366.09 1356.33"/><polygon class="cls-188" points="361.35 1356.33 353.02 376.33 357.76 376.33 366.09 1356.33 361.35 1356.33"/><polygon class="cls-189" points="356.62 1356.33 348.29 376.33 353.02 376.33 361.35 1356.33 356.62 1356.33"/><polygon class="cls-189" points="348 376.37 356.62 1356.33 348 1356.33 348 376.37"/></g></g><path class="cls-3" d="M702.25,412.81c-24.53,0-49-.32-72.87-1-23.19-.62-46-1.54-67.88-2.75-21.46-1.18-42.13-2.65-61.45-4.35-19.16-1.69-37.18-3.63-53.57-5.77s-31.3-4.5-44.26-7a326.22,326.22,0,0,1-33.57-8.08c-9.44-2.91-16.72-6-21.66-9.14a2.5,2.5,0,1,1,2.69-4.21c4.56,2.91,11.44,5.79,20.44,8.57a321.48,321.48,0,0,0,33,7.95c12.86,2.49,27.65,4.83,44,7s34.27,4.06,53.36,5.75c19.26,1.7,39.88,3.16,61.28,4.34,21.81,1.2,44.6,2.13,67.74,2.75,47.57,1.27,97.91,1.27,145.48,0,23.14-.62,45.93-1.54,67.74-2.75,21.4-1.18,42-2.64,61.28-4.34,19.09-1.68,37-3.62,53.36-5.75s31.1-4.47,44-7a321.59,321.59,0,0,0,33-7.95c9-2.78,15.88-5.66,20.44-8.57a2.5,2.5,0,1,1,2.69,4.21c-4.94,3.15-12.22,6.22-21.66,9.14a326.44,326.44,0,0,1-33.57,8.08c-13,2.51-27.85,4.86-44.26,7s-34.41,4.08-53.57,5.77c-19.32,1.7-40,3.17-61.45,4.35-21.86,1.21-44.7,2.13-67.88,2.75C751.29,412.49,726.78,412.81,702.25,412.81Z"/><path class="cls-3" d="M702,373.81c-24.17,0-48.33-.32-71.81-1-22.88-.62-45.39-1.55-66.9-2.75-21.12-1.18-41.5-2.65-60.55-4.35-18.89-1.69-36.65-3.63-52.79-5.77s-30.85-4.5-43.62-7a317.71,317.71,0,0,1-33.09-8.08c-9.3-2.91-16.49-6-21.36-9.14-5.56-3.6-8.37-7.5-8.37-11.6a2.5,2.5,0,0,1,5,0c0,2.86,3.31,5.61,6.09,7.41,4.49,2.91,11.26,5.79,20.13,8.57a313,313,0,0,0,32.56,7.94c12.68,2.49,27.25,4.83,43.32,7s33.76,4.06,52.58,5.75c19,1.7,39.32,3.16,60.39,4.34,21.46,1.2,43.92,2.13,66.75,2.75,46.88,1.27,96.48,1.27,143.36,0,22.83-.62,45.29-1.54,66.75-2.75,21.07-1.18,41.39-2.64,60.39-4.34,18.82-1.68,36.51-3.62,52.58-5.75s30.64-4.47,43.32-7a312.93,312.93,0,0,0,32.56-7.94c8.87-2.78,15.64-5.66,20.13-8.57,2.78-1.8,6.09-4.54,6.09-7.41a2.5,2.5,0,0,1,5,0c0,4.1-2.82,8-8.37,11.6-4.87,3.15-12.05,6.23-21.36,9.14A317.73,317.73,0,0,1,997.68,353c-12.78,2.51-27.45,4.86-43.62,7s-33.9,4.08-52.79,5.77c-19.06,1.71-39.43,3.17-60.55,4.35-21.51,1.21-44,2.13-66.9,2.75C750.33,373.49,726.17,373.81,702,373.81Z"/><path class="cls-190" d="M796,369.33s-2.67-40.83,21.67-24.17c0,0,10-17.42,23-1.42,0,0,8.33-15.37,20.67,1,0,0,10-16.69,18.33,3.31,0,0,6.67,33.66-3.67,42.66,0,0-10.33,7-13.33-3,0,0-11.67,15-19.33,1,0,0-10.33,15.66-18.33-.67,0,0-10.33,18.84-17-1.5,0,0-2.33-4.17-1.67-17.17Z"/><path class="cls-3" d="M815.83,398.26c-.22,0-.44,0-.66,0-4-.39-7.15-4-9.49-11-.5-1.1-2.18-5.57-1.94-15.85H796a2.5,2.5,0,0,1-2.49-2.34c-.16-2.4-1.25-23.58,8.67-29.24,4-2.29,9-1.69,14.81,1.76,2-2.61,6.06-6.71,11.53-7.15,4.11-.32,8.12,1.45,11.94,5.27,1.81-2.11,4.82-4.7,8.87-5s8,1.7,11.9,6c2-2.34,5.41-5.22,9.57-4.93C875.21,336,879,339.81,882,347a2.46,2.46,0,0,1,.14.48c.71,3.59,6.63,35.37-4.48,45l-.24.18c-.63.43-6.33,4.14-11.46,2.31a8.22,8.22,0,0,1-3.93-3c-2.59,2.43-6.78,5.45-11.44,5.07a10.56,10.56,0,0,1-7.43-4.22c-2.22,2.38-5.86,5.31-10.17,5-3.08-.2-5.8-2-8.14-5.25C822.8,395.24,819.58,398.26,815.83,398.26Zm-17.42-31.93h7.92a2.5,2.5,0,0,1,2.5,2.63c-.61,11.85,1.38,16.12,1.4,16.16a3.45,3.45,0,0,1,.14.35c1.56,4.77,3.48,7.61,5.26,7.78,2.31.22,5.64-3.73,7.18-6.47a2.5,2.5,0,0,1,4.43.12c1.3,2.66,3.41,5.86,6.05,6,3.32.21,6.94-4.11,7.95-5.64a2.5,2.5,0,0,1,4.28.18c1.6,2.93,3.43,4.49,5.45,4.66,3.91.32,8.34-4.22,9.73-6a2.5,2.5,0,0,1,4.37.82c.83,2.77,2.12,3.23,2.55,3.39,2.25.81,5.66-.89,6.87-1.66,7.36-6.7,4.56-30.83,2.79-39.95-2.14-5-4.56-7.9-6.83-8.07-3-.21-6.09,3.84-7,5.28a2.5,2.5,0,0,1-4.14.22c-2.36-3.12-5.92-6.79-9.62-6.53-4.09.29-6.83,5.15-6.85,5.2a2.5,2.5,0,0,1-4.13.37c-3.36-4.13-6.66-6.1-9.82-5.85-5.24.41-9,6.75-9.08,6.81a2.5,2.5,0,0,1-3.58.81c-5-3.44-8.92-4.4-11.6-2.88C799.28,347.17,798.33,359.75,798.41,366.33Z"/><path class="cls-3" d="M825,390.54a2.5,2.5,0,0,1-2.5-2.5V364a2.5,2.5,0,0,1,5,0v24A2.5,2.5,0,0,1,825,390.54Z"/><path class="cls-3" d="M806.33,371.58a2.5,2.5,0,0,1-2.5-2.5v-7a2.5,2.5,0,1,1,5,0v7A2.5,2.5,0,0,1,806.33,371.58Z"/><path class="cls-3" d="M843.42,391.21a2.5,2.5,0,0,1-2.5-2.5v-26a2.5,2.5,0,1,1,5,0v26A2.5,2.5,0,0,1,843.42,391.21Z"/><path class="cls-3" d="M862.67,390.25a2.5,2.5,0,0,1-2.5-2.5v-25a2.5,2.5,0,1,1,5,0v25A2.5,2.5,0,0,1,862.67,390.25Z"/><path class="cls-191" d="M624.7,368.33s2.67-40.83-21.67-24.17c0,0-10-17.42-23-1.42,0,0-8.33-15.37-20.67,1,0,0-10-16.69-18.33,3.31,0,0-6.67,33.66,3.67,42.66,0,0,10.33,7,13.33-3,0,0,11.67,15,19.33,1,0,0,10.33,15.66,18.33-.67,0,0,10.33,18.84,17-1.5,0,0,2.33-4.17,1.67-17.17Z"/><path class="cls-3" d="M604.87,397.26c-3.76,0-7-3-9-5.6-2.33,3.29-5.06,5.05-8.14,5.25-4.3.27-7.95-2.65-10.17-5a10.56,10.56,0,0,1-7.43,4.22c-4.65.38-8.85-2.64-11.44-5.07a8.22,8.22,0,0,1-3.93,3c-5.12,1.83-10.83-1.89-11.46-2.31l-.24-.18c-4.88-4.25-7.09-13.24-6.56-26.69a131.9,131.9,0,0,1,2.09-18.35,2.53,2.53,0,0,1,.15-.48c3-7.22,6.77-11,11.18-11.36,4.16-.3,7.54,2.59,9.57,4.93,3.88-4.25,7.86-6.25,11.9-6s7.06,2.89,8.87,5c3.82-3.83,7.82-5.6,11.94-5.27,5.47.43,9.49,4.53,11.53,7.15,5.82-3.45,10.8-4,14.81-1.76,9.93,5.66,8.83,26.84,8.68,29.24a2.5,2.5,0,0,1-2.5,2.34H617c.24,10.28-1.44,14.75-1.94,15.85-2.34,7-5.44,10.66-9.49,11Q605.2,397.26,604.87,397.26Zm-9.17-12.93a2.58,2.58,0,0,1,2.18,1.37c1.53,2.74,4.86,6.74,7.18,6.51,1.78-.17,3.7-3,5.26-7.76a2.35,2.35,0,0,1,.17-.38s2-4.27,1.38-16.12a2.5,2.5,0,0,1,2.5-2.62h7.92c.08-6.58-.88-19.18-6.25-22.23-2.68-1.53-6.58-.56-11.6,2.88a2.5,2.5,0,0,1-3.58-.81c0-.06-3.81-6.41-9.09-6.81-3.16-.25-6.45,1.73-9.8,5.85a2.5,2.5,0,0,1-4.14-.38s-2.76-4.9-6.85-5.19c-3.68-.26-7.27,3.41-9.62,6.53a2.5,2.5,0,0,1-4.14-.22c-.87-1.44-4-5.5-7-5.28-2.27.17-4.69,3-6.83,8.07-1.77,9.12-4.57,33.26,2.79,40,1.2.76,4.62,2.47,6.87,1.66.42-.15,1.72-.62,2.55-3.39a2.5,2.5,0,0,1,4.37-.82c1.39,1.77,5.84,6.32,9.72,6,2-.17,3.84-1.73,5.45-4.66a2.5,2.5,0,0,1,4.28-.18c1,1.53,4.67,5.85,8,5.64,2.64-.17,4.75-3.46,6-6.11a2.54,2.54,0,0,1,2.18-1.48Z"/><line class="cls-191" x1="595.7" y1="387.04" x2="595.7" y2="363.04"/><path class="cls-3" d="M595.7,389.54a2.5,2.5,0,0,1-2.5-2.5V363a2.5,2.5,0,0,1,5,0v24A2.5,2.5,0,0,1,595.7,389.54Z"/><line class="cls-191" x1="614.37" y1="368.08" x2="614.37" y2="361.08"/><path class="cls-3" d="M614.37,370.58a2.5,2.5,0,0,1-2.5-2.5v-7a2.5,2.5,0,1,1,5,0v7A2.5,2.5,0,0,1,614.37,370.58Z"/><line class="cls-191" x1="577.28" y1="387.71" x2="577.28" y2="361.71"/><path class="cls-3" d="M577.28,390.21a2.5,2.5,0,0,1-2.5-2.5v-26a2.5,2.5,0,1,1,5,0v26A2.5,2.5,0,0,1,577.28,390.21Z"/><line class="cls-191" x1="558.03" y1="386.75" x2="558.03" y2="361.75"/><path class="cls-3" d="M558,389.25a2.5,2.5,0,0,1-2.5-2.5v-25a2.5,2.5,0,0,1,5,0v25A2.5,2.5,0,0,1,558,389.25Z"/><path class="cls-12" d="M631,315s5-9,0-9c-6,0-6,9,0,9Z"/><path class="cls-12" d="M775,319.45s5-9,0-9c-6,0-6,9,0,9Z"/><path class="cls-4" d="M673.24,131.68l-.72,0H650.16a18.43,18.43,0,0,1-6.24-1.25,17.08,17.08,0,0,1-5.18-3,14.45,14.45,0,0,1-3.57-4.52,12.48,12.48,0,0,1-1.34-5.67v-20a12,12,0,0,1,1.35-5.6,13.92,13.92,0,0,1,3.63-4.38A16.68,16.68,0,0,1,644,84.51a18.67,18.67,0,0,1,6.18-.85h30.19a18.68,18.68,0,0,1,6.19.85,16.66,16.66,0,0,1,5.18,2.74,13.92,13.92,0,0,1,3.65,4.34,12.29,12.29,0,0,1,1.39,5.4c.27,1.91,0,7.07-5,20.19h0c-3.06,8-8.08,11.56-11.76,13.09A17.9,17.9,0,0,1,673.24,131.68Zm-23.08-42a13.11,13.11,0,0,0-4.25.53,10.59,10.59,0,0,0-3.33,1.65,8,8,0,0,0-2.08,2.5,6,6,0,0,0-.66,2.82v20a6.45,6.45,0,0,0,.68,2.94,8.46,8.46,0,0,0,2.08,2.66,11.27,11.27,0,0,0,3.35,2,12.85,12.85,0,0,0,4.21.9h22.77c.33,0,9,.58,13.23-10.63,4.58-12,4.71-16.25,4.68-17.07-.12-.29-.07-.31-.07-.71a6.33,6.33,0,0,0-.71-2.89,8,8,0,0,0-2.1-2.45,10.83,10.83,0,0,0-3.35-1.74,13.14,13.14,0,0,0-4.26-.53Z"/><g id="_Group_" data-name="&lt;Group&gt;"><path class="cls-192" d="M689.15,898.52a3.84,3.84,0,0,1-2.78-1,3.77,3.77,0,0,1-1-2.74,4.33,4.33,0,0,1,1.33-3.1,3.9,3.9,0,0,1,2.84-1.14,4.09,4.09,0,0,1,3.72,4.08h0a3.81,3.81,0,0,1-4,3.94Zm.21-7a2.9,2.9,0,0,0-2,.86,3.33,3.33,0,0,0-1,2.38,2.79,2.79,0,0,0,.75,2,2.87,2.87,0,0,0,2.08.75h0a2.83,2.83,0,0,0,3-3,3.1,3.1,0,0,0-2.76-3.07Zm-21.19-21.81a3,3,0,0,1-1.7-1c-.26-.25-.62-.59-.43-1a3.94,3.94,0,0,0,.23-1.29c.08-1.09.21-2.72,2.32-2.72h.06c.71,0,1.27.6,2,1.34.34.35.72.75,1.16,1.13l.43.38-.44.38c-.41.35-.76.68-1.09,1a11,11,0,0,1-2.26,1.77A.58.58,0,0,1,668.18,869.68Zm-1.12-1.86a5.63,5.63,0,0,0,1.06.84,11.44,11.44,0,0,0,1.91-1.54l.69-.63c-.29-.28-.56-.56-.8-.81-.51-.53-1-1-1.28-1h-.05c-1.13,0-1.22.56-1.32,1.8A5.76,5.76,0,0,1,667.06,867.82Zm32-22.09c-14.21,0-39.24-11-40.09-12.11l-1.05-1.32c-3.08-3.84-7.73-9.65-8.11-12.77a44.54,44.54,0,0,1-.24-4.93c0-1.2,0-2.44-.12-3.7a31.5,31.5,0,0,1,.28-5.42c.08-.74.16-1.45.21-2.11a23.73,23.73,0,0,0-.83-7,27.1,27.1,0,0,1-.89-6.71,66.19,66.19,0,0,0-.42-8.17c-.1-1.08-.2-2.16-.28-3.24-.14-1.83-.33-4.25-.61-6.7-.74-6.46-.91-12.17,4.49-16.58a2.85,2.85,0,0,0-.16-2,6.63,6.63,0,0,1-.54-6.63,10.47,10.47,0,0,0,.73-4.79c-.28-4.2-1.21-25.65,8.17-35.53,6.83-7.2,20-19.33,26.54-22.53a1.7,1.7,0,0,0,.3-.23,1.88,1.88,0,0,1,.77-.48c.77-.21,1.55-.43,2.32-.65a39.27,39.27,0,0,1,6.17-1.44c5.19-.63,10,1,14.73,2.57l2.59.85c13.57,4.33,23.9,13.21,30.71,26.39,4.91,9.5,7,20.15,8.94,30.45l.33,1.72a4.74,4.74,0,0,0,.52,0c1.93-.27,3.11-.11,3.94.53s1.26,1.7,1.48,3.57a46.54,46.54,0,0,1,.39,5.62c0,1.46-.08,2.94-.14,4.37-.18,4.07-.37,8.29.74,12.35a10.64,10.64,0,0,1,.34,2.77,13.42,13.42,0,0,0,1,4.42c.73,2.07,1.49,4.21.86,6.62,0,.07-.16.45-1.14,3.14-1.22,3.34-3.46,9.5-3.66,10.2.81,31.14-32.87,48.74-57.52,49.47ZM698,681.57a18.19,18.19,0,0,0-2.2.13,38.53,38.53,0,0,0-6,1.41c-.78.23-1.56.45-2.34.66a1.26,1.26,0,0,0-.35.26,2.39,2.39,0,0,1-.53.39h0c-6.44,3.14-19.48,15.17-26.26,22.31-9.08,9.58-8.17,30.65-7.89,34.77a11.33,11.33,0,0,1-.81,5.26,5.66,5.66,0,0,0,.49,5.72c.48.82.64,2.68-.07,3.26-5,4.1-4.86,9.31-4.12,15.7.28,2.47.47,4.9.61,6.74.08,1.07.18,2.15.28,3.23a67.11,67.11,0,0,1,.43,8.29,26.33,26.33,0,0,0,.87,6.46,24.88,24.88,0,0,1,.85,7.28c-.05.67-.13,1.39-.21,2.14a30.83,30.83,0,0,0-.28,5.24c.1,1.29.11,2.55.13,3.76a43.28,43.28,0,0,0,.24,4.82c.35,2.84,5.07,8.74,7.9,12.26l1.06,1.32c1.06.89,26.21,12.16,40,11.72,24.25-.72,57.39-18,56.55-48.51,0-.17,0-.26,3.73-10.5.62-1.69,1.07-2.95,1.11-3.07.55-2.1-.12-4-.84-6a14.37,14.37,0,0,1-1.09-4.75,9.67,9.67,0,0,0-.31-2.51c-1.15-4.22-1-8.51-.78-12.66.06-1.42.13-2.89.14-4.33a45.42,45.42,0,0,0-.38-5.5c-.18-1.55-.52-2.45-1.1-2.89s-1.55-.56-3.19-.33a6.8,6.8,0,0,1-.84,0l-.64,0-.5-2.56c-2-10.23-4-20.81-8.85-30.18-6.68-12.94-16.82-21.66-30.12-25.9l-2.61-.86C706.17,682.92,702.15,681.57,698,681.57Zm7.17,106.64a25.45,25.45,0,0,1-4.06-.36,3.43,3.43,0,0,1-1.6-.94c-.19-.16-.37-.32-.56-.45l-.43-.3.33-.42c.16-.21.31-.44.47-.67a3.58,3.58,0,0,1,1.48-1.53,4.25,4.25,0,0,1,2.88.45,1,1,0,0,1,.56.6l0-.06c.26-.83.53-1.69,1.29-2a2.36,2.36,0,0,1,2.08.57,6.08,6.08,0,0,1,1.66,2.11c.19.33.38.66.59,1l.36.51-.58.23c-.3.12-.6.27-.91.42a6.29,6.29,0,0,1-2.28.79C706,788.2,705.59,788.21,705.14,788.21ZM699.9,786l.24.2a2.81,2.81,0,0,0,1.11.71,22.16,22.16,0,0,0,5.12.3,5.48,5.48,0,0,0,1.91-.68l.43-.21-.31-.53A5.28,5.28,0,0,0,707,784c-.73-.5-1.06-.5-1.18-.45-.29.1-.49.74-.66,1.31a6.79,6.79,0,0,1-.58,1.46l-.51.87-.38-.94c-.11-.27-.19-.54-.26-.78a2.77,2.77,0,0,0-.2-.55,3.89,3.89,0,0,0-2.1-.41,3,3,0,0,0-1,1.15Zm-42.54-10,0-.59c0-.23,0-.46,0-.67a10.11,10.11,0,0,0-.08-1.24c-.09-.61-.21-1.22-.32-1.84-.15-.79-.3-1.61-.41-2.43s-.23-1.51-.36-2.27a20.72,20.72,0,0,1-.44-6.19l.09-.63c.21-1.43.38-2.55-.45-3.74-1.3-1.87-1-3.6.83-5.28l.56-.51.61,1.76c1.89,5.54,3.67,10.78,10.75,10.84h.84l-.57,1,.17.16a2.31,2.31,0,0,0,.81.59c.78.2,1.59.34,2.37.48.94.17,1.91.34,2.85.6.62.17,1.07,1.13,1.18,1.45a.87.87,0,0,1,0,.81c-.78,1.06-1.66,2-2.51,3l-.92,1-1.67,1.95-.86,1-.36-.22c-.39-.24-.77-.49-1.14-.74a11.49,11.49,0,0,0-2.51-1.4,3.6,3.6,0,0,0-1,.56c-.31.21-.64.42-1,.61l-.32.17-.26-.25c-1-1-1.58-.57-2.79.4a6,6,0,0,1-2.42,1.38Zm-1.06-23.58a2.44,2.44,0,0,0-.13,3.42c1.05,1.51.84,2.94.61,4.46l-.09.61a20,20,0,0,0,.43,5.89c.13.77.26,1.54.36,2.31s.25,1.59.4,2.37c.12.62.23,1.24.33,1.87a10.55,10.55,0,0,1,.09,1.35,7.45,7.45,0,0,0,1.42-1c1-.82,2.27-1.83,3.82-.6l.6-.39c.71-.47,1.32-.88,1.91-.67a12.2,12.2,0,0,1,2.74,1.51l.74.49.3-.35,1.67-2,.93-1.06c.8-.9,1.63-1.84,2.36-2.81a2.09,2.09,0,0,0-.54-.85c-.87-.24-1.82-.41-2.73-.57s-1.63-.29-2.44-.5a3,3,0,0,1-1.25-.84c-.14-.13-.27-.26-.42-.37l-.33-.26.17-.31c-7.11-.46-9-6.06-10.87-11.49Zm41.56,14.08a45.24,45.24,0,0,1-5.39-.44c-.89-.11-1.79-.21-2.7-.3l-.71-.07.3-.64a7.51,7.51,0,0,1,5.23-3.9,5.82,5.82,0,0,1,5,.91,2.94,2.94,0,0,1,1,3.08,2,2,0,0,1-1.83,1.33Zm-7.24-1.65,2,.23a37.5,37.5,0,0,0,6.1.41.94.94,0,0,0,.92-.65,1.92,1.92,0,0,0-.69-2,4.84,4.84,0,0,0-4.12-.7A6.75,6.75,0,0,0,690.62,764.8Zm-28.16-4.95-1.64-3.59-.69,0,.43-.57-.27-.62a9.86,9.86,0,0,1-.8-2.31,2.92,2.92,0,0,1,.45-1.69c.13-.27.27-.56.39-.88l.36-1,2.71,4.4-1.31,1.72,2,.1v4Zm-.51-3.54,1.07,2.35.08,0v-2.27Zm-1.08-4.91,0,.06a2.44,2.44,0,0,0-.36,1.1,9,9,0,0,0,.73,2.08l.05.12.92-1.21Zm36.92,2.79-1.65-.06.37-7.77.73.48c3.19,2.08,2,4.89.7,7.11Zm-.6-1h0c1.51-2.58,1.26-3.94.19-4.94ZM655,745.42l-1.1-1.73c-1.25-2-1.67-3.23-1.36-4.11a1.81,1.81,0,0,1,1.23-1.09l.6-.21Zm-1.49-5.56,0,.06a1.73,1.73,0,0,0,.12,1.08Z"/></g><g id="_Group_2" data-name="&lt;Group&gt;"><g id="_Group_3" data-name="&lt;Group&gt;" class="cls-78"><g id="_Group_4" data-name="&lt;Group&gt;"><path class="cls-192" d="M686.32,683c.33-.16.61-.59,1-.69a63.19,63.19,0,0,1,8.42-2.08c6-.73,11.55,1.63,17.11,3.41,13.81,4.4,23.86,13.46,30.42,26.15,5.2,10.08,7.14,21.26,9.31,32.45a9.58,9.58,0,0,0,1-.05c3.35-.46,4.46.34,4.85,3.66a45.54,45.54,0,0,1,.39,5.56c0,5.63-.9,11.28.62,16.86a10.2,10.2,0,0,1,.33,2.64c0,3.75,2.94,7,1.91,10.91,0,.18-4.82,13.17-4.82,13.41.85,31-32.56,48.29-57,49-14,.42-39.82-11.11-40.45-11.91-2.67-3.38-8.65-10.47-9.06-13.84-.36-2.93-.14-5.66-.36-8.6a54.23,54.23,0,0,1,.49-7.46c.36-4.71-1.87-9-1.72-13.72a109.38,109.38,0,0,0-.71-11.47c-.17-2.24-.35-4.49-.61-6.72-.68-5.94-1.06-11.76,4.31-16.14.44-.36.36-1.93,0-2.62a6.17,6.17,0,0,1-.51-6.18,11,11,0,0,0,.77-5c-.23-3.52-1.29-25.33,8-35.15C667,697.91,679.9,686.1,686.32,683Zm-25.18,71.77,1.6,3.51.86-.24V754.9l-2.49-.12,1.68-2.2-2-3.24c-.37,1-.91,1.71-.81,2.31A16.41,16.41,0,0,0,661.14,754.74Zm-4.62-4.29c-1.82,1.65-1.81,3.11-.75,4.63s.68,3,.44,4.72c-.36,2.69.44,5.55.8,8.33.18,1.43.51,2.83.73,4.25.09.62.07,1.25.11,2,2.3-.5,3.48-3.74,5.66-1.66,1-.52,1.88-1.38,2.41-1.2a20.81,20.81,0,0,1,3.75,2.18c.62-.72,1.43-1.68,2.25-2.63,1.15-1.33,2.37-2.61,3.41-4,.15-.2-.46-1.37-.88-1.49-1.7-.48-3.49-.65-5.21-1.08-.55-.14-1-.74-1.49-1.12l.36-.65C660.2,762.61,658.6,756.48,656.52,750.46Zm36.19,143.12a3.6,3.6,0,0,0-3.24-3.58,3.72,3.72,0,0,0-3.65,3.74,3.1,3.1,0,0,0,3.35,3.28A3.33,3.33,0,0,0,692.71,893.57ZM704.17,785c-.3-.74-.37-1.45-.67-1.56A4,4,0,0,0,701,783c-.74.3-1.18,1.34-1.74,2.06.65.46,1.25,1.2,2,1.31a23,23,0,0,0,5.23.31,11,11,0,0,0,3-1.17c-.69-1-1.18-2.31-2.12-3C704.77,780.81,705.05,783.54,704.17,785Zm-14.36-20.8a68.2,68.2,0,0,0,8.9.72c1.73-.07,2-2.31.54-3.53C696.82,759.34,691.45,760.7,689.81,764.22ZM671.48,865.49c-1.31-1.14-2.06-2.34-2.82-2.35-2.48,0-1.53,2.41-2.16,3.73-.07.15,1.43,1.46,1.72,1.31A20.53,20.53,0,0,0,671.48,865.49Zm25.18-112.84.85,0c1.79-2.93,1.77-4.92-.54-6.43Zm-42.32-10.23-.39-4.45C652.63,738.42,652.51,739.54,654.34,742.42Z"/><path class="cls-192" d="M689.15,897.52a3.84,3.84,0,0,1-2.78-1,3.77,3.77,0,0,1-1-2.74,4.33,4.33,0,0,1,1.33-3.1,3.9,3.9,0,0,1,2.84-1.14,4.09,4.09,0,0,1,3.72,4.08h0a3.81,3.81,0,0,1-4,3.94Zm.21-7a2.9,2.9,0,0,0-2,.86,3.33,3.33,0,0,0-1,2.38,2.79,2.79,0,0,0,.75,2,2.87,2.87,0,0,0,2.08.75h0a2.83,2.83,0,0,0,3-3,3.1,3.1,0,0,0-2.76-3.07Zm-21.19-21.81a3,3,0,0,1-1.7-1c-.26-.25-.62-.59-.43-1a3.94,3.94,0,0,0,.23-1.29c.08-1.09.21-2.72,2.32-2.72h.06c.71,0,1.27.6,2,1.34.34.35.72.75,1.16,1.13l.43.38-.44.38c-.41.35-.76.68-1.09,1a11,11,0,0,1-2.26,1.77A.58.58,0,0,1,668.18,868.68Zm-1.12-1.86a5.63,5.63,0,0,0,1.06.84,11.44,11.44,0,0,0,1.91-1.54l.69-.63c-.29-.28-.56-.56-.8-.81-.51-.53-1-1-1.28-1h-.05c-1.13,0-1.22.56-1.32,1.8A5.76,5.76,0,0,1,667.06,866.82Zm32-22.09c-14.21,0-39.24-11-40.09-12.11l-1.05-1.32c-3.08-3.84-7.73-9.65-8.11-12.77a44.54,44.54,0,0,1-.24-4.93c0-1.2,0-2.44-.12-3.7a31.5,31.5,0,0,1,.28-5.42c.08-.74.16-1.45.21-2.11a23.73,23.73,0,0,0-.83-7,27.1,27.1,0,0,1-.89-6.71,66.19,66.19,0,0,0-.42-8.17c-.1-1.08-.2-2.16-.28-3.24-.14-1.83-.33-4.25-.61-6.7-.74-6.46-.91-12.17,4.49-16.58a2.85,2.85,0,0,0-.16-2,6.63,6.63,0,0,1-.54-6.63,10.47,10.47,0,0,0,.73-4.79c-.28-4.2-1.21-25.65,8.17-35.53,6.83-7.2,20-19.33,26.54-22.53a1.7,1.7,0,0,0,.3-.23,1.88,1.88,0,0,1,.77-.48c.77-.21,1.55-.43,2.32-.65a39.27,39.27,0,0,1,6.17-1.44c5.19-.63,10,1,14.73,2.57l2.59.85c13.57,4.33,23.9,13.21,30.71,26.39,4.91,9.5,7,20.15,8.94,30.45l.33,1.72a4.74,4.74,0,0,0,.52,0c1.93-.27,3.11-.11,3.94.53s1.26,1.7,1.48,3.57a46.54,46.54,0,0,1,.39,5.62c0,1.46-.08,2.94-.14,4.37-.18,4.07-.37,8.29.74,12.35a10.64,10.64,0,0,1,.34,2.77,13.42,13.42,0,0,0,1,4.42c.73,2.07,1.49,4.21.86,6.62,0,.07-.16.45-1.14,3.14-1.22,3.34-3.46,9.5-3.66,10.2.81,31.14-32.87,48.74-57.52,49.47ZM698,680.57a18.19,18.19,0,0,0-2.2.13,38.53,38.53,0,0,0-6,1.41c-.78.23-1.56.45-2.34.66a1.26,1.26,0,0,0-.35.26,2.39,2.39,0,0,1-.53.39h0c-6.44,3.14-19.48,15.17-26.26,22.31-9.08,9.58-8.17,30.65-7.89,34.77a11.33,11.33,0,0,1-.81,5.26,5.66,5.66,0,0,0,.49,5.72c.48.82.64,2.68-.07,3.26-5,4.1-4.86,9.31-4.12,15.7.28,2.47.47,4.9.61,6.74.08,1.07.18,2.15.28,3.23a67.11,67.11,0,0,1,.43,8.29,26.33,26.33,0,0,0,.87,6.46,24.88,24.88,0,0,1,.85,7.28c-.05.67-.13,1.39-.21,2.14a30.83,30.83,0,0,0-.28,5.24c.1,1.29.11,2.55.13,3.76a43.28,43.28,0,0,0,.24,4.82c.35,2.84,5.07,8.74,7.9,12.26l1.06,1.32c1.06.89,26.21,12.16,40,11.72,24.25-.72,57.39-18,56.55-48.51,0-.17,0-.26,3.73-10.5.62-1.69,1.07-2.95,1.11-3.07.55-2.1-.12-4-.84-6a14.37,14.37,0,0,1-1.09-4.75,9.67,9.67,0,0,0-.31-2.51c-1.15-4.22-1-8.51-.78-12.66.06-1.42.13-2.89.14-4.33a45.42,45.42,0,0,0-.38-5.5c-.18-1.55-.52-2.45-1.1-2.89s-1.55-.56-3.19-.33a6.8,6.8,0,0,1-.84,0l-.64,0-.5-2.56c-2-10.23-4-20.81-8.85-30.18-6.68-12.94-16.82-21.66-30.12-25.9l-2.61-.86C706.17,681.92,702.15,680.57,698,680.57Zm7.17,106.64a25.45,25.45,0,0,1-4.06-.36,3.43,3.43,0,0,1-1.6-.94c-.19-.16-.37-.32-.56-.45l-.43-.3.33-.42c.16-.21.31-.44.47-.67a3.58,3.58,0,0,1,1.48-1.53,4.25,4.25,0,0,1,2.88.45,1,1,0,0,1,.56.6l0-.06c.26-.83.53-1.69,1.29-2a2.36,2.36,0,0,1,2.08.57,6.08,6.08,0,0,1,1.66,2.11c.19.33.38.66.59,1l.36.51-.58.23c-.3.12-.6.27-.91.42a6.29,6.29,0,0,1-2.28.79C706,787.2,705.59,787.21,705.14,787.21ZM699.9,785l.24.2a2.81,2.81,0,0,0,1.11.71,22.16,22.16,0,0,0,5.12.3,5.48,5.48,0,0,0,1.91-.68l.43-.21-.31-.53A5.28,5.28,0,0,0,707,783c-.73-.5-1.06-.5-1.18-.45-.29.1-.49.74-.66,1.31a6.79,6.79,0,0,1-.58,1.46l-.51.87-.38-.94c-.11-.27-.19-.54-.26-.78a2.77,2.77,0,0,0-.2-.55,3.89,3.89,0,0,0-2.1-.41,3,3,0,0,0-1,1.15Zm-42.54-10,0-.59c0-.23,0-.46,0-.67a10.11,10.11,0,0,0-.08-1.24c-.09-.61-.21-1.22-.32-1.84-.15-.79-.3-1.61-.41-2.43s-.23-1.51-.36-2.27a20.72,20.72,0,0,1-.44-6.19l.09-.63c.21-1.43.38-2.55-.45-3.74-1.3-1.87-1-3.6.83-5.28l.56-.51.61,1.76c1.89,5.54,3.67,10.78,10.75,10.84h.84l-.57,1,.17.16a2.31,2.31,0,0,0,.81.59c.78.2,1.59.34,2.37.48.94.17,1.91.34,2.85.6.62.17,1.07,1.13,1.18,1.45a.87.87,0,0,1,0,.81c-.78,1.06-1.66,2-2.51,3l-.92,1-1.67,1.95-.86,1-.36-.22c-.39-.24-.77-.49-1.14-.74a11.49,11.49,0,0,0-2.51-1.4,3.6,3.6,0,0,0-1,.56c-.31.21-.64.42-1,.61l-.32.17-.26-.25c-1-1-1.58-.57-2.79.4a6,6,0,0,1-2.42,1.38Zm-1.06-23.58a2.44,2.44,0,0,0-.13,3.42c1.05,1.51.84,2.94.61,4.46l-.09.61a20,20,0,0,0,.43,5.89c.13.77.26,1.54.36,2.31s.25,1.59.4,2.37c.12.62.23,1.24.33,1.87a10.55,10.55,0,0,1,.09,1.35,7.45,7.45,0,0,0,1.42-1c1-.82,2.27-1.83,3.82-.6l.6-.39c.71-.47,1.32-.88,1.91-.67a12.2,12.2,0,0,1,2.74,1.51l.74.49.3-.35,1.67-2,.93-1.06c.8-.9,1.63-1.84,2.36-2.81a2.09,2.09,0,0,0-.54-.85c-.87-.24-1.82-.41-2.73-.57s-1.63-.29-2.44-.5a3,3,0,0,1-1.25-.84c-.14-.13-.27-.26-.42-.37l-.33-.26.17-.31c-7.11-.46-9-6.06-10.87-11.49Zm41.56,14.08a45.24,45.24,0,0,1-5.39-.44c-.89-.11-1.79-.21-2.7-.3l-.71-.07.3-.64a7.51,7.51,0,0,1,5.23-3.9,5.82,5.82,0,0,1,5,.91,2.94,2.94,0,0,1,1,3.08,2,2,0,0,1-1.83,1.33Zm-7.24-1.65,2,.23a37.5,37.5,0,0,0,6.1.41.94.94,0,0,0,.92-.65,1.92,1.92,0,0,0-.69-2,4.84,4.84,0,0,0-4.12-.7A6.75,6.75,0,0,0,690.62,763.8Zm-28.16-4.95-1.64-3.59-.69,0,.43-.57-.27-.62a9.86,9.86,0,0,1-.8-2.31,2.92,2.92,0,0,1,.45-1.69c.13-.27.27-.56.39-.88l.36-1,2.71,4.4-1.31,1.72,2,.1v4Zm-.51-3.54,1.07,2.35.08,0v-2.27Zm-1.08-4.91,0,.06a2.44,2.44,0,0,0-.36,1.1,9,9,0,0,0,.73,2.08l.05.12.92-1.21Zm36.92,2.79-1.65-.06.37-7.77.73.48c3.19,2.08,2,4.89.7,7.11Zm-.6-1h0c1.51-2.58,1.26-3.94.19-4.94ZM655,744.42l-1.1-1.73c-1.25-2-1.67-3.23-1.36-4.11a1.81,1.81,0,0,1,1.23-1.09l.6-.21Zm-1.49-5.56,0,.06a1.73,1.73,0,0,0,.12,1.08Z"/></g><g id="_Group_5" data-name="&lt;Group&gt;"><path class="cls-193" d="M656.52,750.46c2.08,6,3.69,12.16,11.58,12.22l-.36.65c.49.39.93,1,1.49,1.12,1.72.43,3.5.6,5.21,1.08.42.12,1,1.29.88,1.49-1,1.41-2.26,2.7-3.41,4-.82.95-1.63,1.9-2.25,2.63a20.81,20.81,0,0,0-3.75-2.18c-.53-.18-1.42.67-2.41,1.2-2.18-2.08-3.36,1.16-5.66,1.66,0-.71,0-1.35-.11-2-.22-1.42-.54-2.83-.73-4.25-.36-2.78-1.16-5.64-.8-8.33.24-1.77.63-3.19-.44-4.72S654.69,752.11,656.52,750.46Z"/><path class="cls-192" d="M657.36,775l0-.59c0-.23,0-.46,0-.67a10.11,10.11,0,0,0-.08-1.24c-.09-.61-.21-1.22-.32-1.84-.15-.79-.3-1.61-.41-2.43s-.23-1.51-.36-2.27a20.72,20.72,0,0,1-.44-6.19l.09-.63c.21-1.43.38-2.55-.45-3.74-1.3-1.87-1-3.6.83-5.28l.56-.51.61,1.76c1.89,5.54,3.67,10.78,10.75,10.84h.84l-.57,1,.17.16a2.31,2.31,0,0,0,.81.59c.78.2,1.59.34,2.37.48.94.17,1.91.34,2.85.6.62.17,1.07,1.13,1.18,1.45a.87.87,0,0,1,0,.81c-.78,1.06-1.66,2-2.51,3l-.92,1-1.67,1.95-.86,1-.36-.22c-.39-.24-.77-.49-1.14-.74a11.49,11.49,0,0,0-2.51-1.4,3.6,3.6,0,0,0-1,.56c-.31.21-.64.42-1,.61l-.32.17-.26-.25c-1-1-1.58-.57-2.79.4a6,6,0,0,1-2.42,1.38Zm-1.06-23.58a2.44,2.44,0,0,0-.13,3.42c1.05,1.51.84,2.94.61,4.46l-.09.61a20,20,0,0,0,.43,5.89c.13.77.26,1.54.36,2.31s.25,1.59.4,2.37c.12.62.23,1.24.33,1.87a10.55,10.55,0,0,1,.09,1.35,7.45,7.45,0,0,0,1.42-1c1-.82,2.27-1.83,3.82-.6l.6-.39c.71-.47,1.32-.88,1.91-.67a12.2,12.2,0,0,1,2.74,1.51l.74.49.3-.35,1.67-2,.93-1.06c.8-.9,1.63-1.84,2.36-2.81a2.09,2.09,0,0,0-.54-.85c-.87-.24-1.82-.41-2.73-.57s-1.63-.29-2.44-.5a3,3,0,0,1-1.25-.84c-.14-.13-.27-.26-.42-.37l-.33-.26.17-.31c-7.11-.46-9-6.06-10.87-11.49Z"/></g><g id="_Group_6" data-name="&lt;Group&gt;"><path class="cls-193" d="M692.71,893.57a3.33,3.33,0,0,1-3.53,3.45,3.1,3.1,0,0,1-3.35-3.28,3.72,3.72,0,0,1,3.65-3.74A3.6,3.6,0,0,1,692.71,893.57Z"/><path class="cls-192" d="M689.15,897.52a3.84,3.84,0,0,1-2.78-1,3.77,3.77,0,0,1-1-2.74,4.33,4.33,0,0,1,1.33-3.1,3.9,3.9,0,0,1,2.84-1.14,4.09,4.09,0,0,1,3.72,4.08h0a3.81,3.81,0,0,1-4,3.94Zm.21-7a2.9,2.9,0,0,0-2,.86,3.33,3.33,0,0,0-1,2.38,2.79,2.79,0,0,0,.75,2,2.87,2.87,0,0,0,2.08.75h0a2.83,2.83,0,0,0,3-3,3.1,3.1,0,0,0-2.76-3.07Z"/></g><g id="_Group_7" data-name="&lt;Group&gt;"><path class="cls-193" d="M704.17,785c.88-1.48.6-4.21,3.14-2.47.94.64,1.43,1.95,2.12,3a11,11,0,0,1-3,1.17,23,23,0,0,1-5.23-.31c-.7-.11-1.31-.85-2-1.31.57-.72,1-1.76,1.74-2.06a4,4,0,0,1,2.54.46C703.8,783.57,703.87,784.28,704.17,785Z"/><path class="cls-192" d="M705.14,787.21a25.45,25.45,0,0,1-4.06-.36,3.43,3.43,0,0,1-1.6-.94c-.19-.16-.37-.32-.56-.45l-.43-.3.33-.42c.16-.21.31-.44.47-.67a3.58,3.58,0,0,1,1.48-1.53,4.25,4.25,0,0,1,2.88.45,1,1,0,0,1,.56.6l0-.06c.26-.83.53-1.69,1.29-2a2.36,2.36,0,0,1,2.08.57,6.08,6.08,0,0,1,1.66,2.11c.19.33.38.66.59,1l.36.51-.58.23c-.3.12-.6.27-.91.42a6.29,6.29,0,0,1-2.28.79C706,787.2,705.59,787.21,705.14,787.21ZM699.9,785l.24.2a2.79,2.79,0,0,0,1.11.71,22.06,22.06,0,0,0,5.12.3,5.48,5.48,0,0,0,1.91-.68l.43-.21-.31-.53A5.28,5.28,0,0,0,707,783c-.73-.5-1.06-.5-1.18-.45-.29.1-.49.74-.66,1.31a6.79,6.79,0,0,1-.58,1.46l-.51.87-.38-.94c-.11-.27-.19-.54-.26-.78a2.77,2.77,0,0,0-.2-.55,3.89,3.89,0,0,0-2.1-.41,3,3,0,0,0-1,1.15Z"/></g><g id="_Group_8" data-name="&lt;Group&gt;"><path class="cls-193" d="M689.81,764.22c1.64-3.52,7-4.89,9.44-2.81,1.43,1.22,1.19,3.46-.54,3.53A68.2,68.2,0,0,1,689.81,764.22Z"/><path class="cls-192" d="M697.86,765.46a45.24,45.24,0,0,1-5.39-.44c-.89-.11-1.79-.21-2.7-.3l-.71-.07.3-.64a7.51,7.51,0,0,1,5.23-3.9,5.82,5.82,0,0,1,5,.91,2.94,2.94,0,0,1,1,3.08,2,2,0,0,1-1.83,1.33Zm-7.24-1.65,2,.23a37.5,37.5,0,0,0,6.1.41.94.94,0,0,0,.92-.65,1.92,1.92,0,0,0-.69-2,4.84,4.84,0,0,0-4.12-.7A6.75,6.75,0,0,0,690.62,763.8Z"/></g><g id="_Group_9" data-name="&lt;Group&gt;"><path class="cls-193" d="M671.48,865.49a20.53,20.53,0,0,1-3.26,2.69c-.29.15-1.79-1.15-1.72-1.31.63-1.32-.32-3.77,2.16-3.73C669.43,863.15,670.17,864.35,671.48,865.49Z"/><path class="cls-192" d="M668.18,868.68a3,3,0,0,1-1.7-1c-.26-.25-.62-.59-.43-1a3.94,3.94,0,0,0,.23-1.29c.08-1.09.21-2.72,2.32-2.72h.06c.71,0,1.27.6,2,1.34.34.35.72.75,1.16,1.13l.43.38-.44.38c-.41.35-.76.68-1.09,1a11,11,0,0,1-2.26,1.77A.58.58,0,0,1,668.18,868.68Zm-1.12-1.86a5.63,5.63,0,0,0,1.06.84,11.44,11.44,0,0,0,1.91-1.54l.69-.63c-.29-.28-.56-.56-.8-.81-.51-.53-1-1-1.28-1h-.05c-1.13,0-1.22.56-1.32,1.8A5.76,5.76,0,0,1,667.06,866.82Z"/></g><g id="_Group_10" data-name="&lt;Group&gt;"><path class="cls-193" d="M696.66,752.65l.31-6.4c2.32,1.51,2.33,3.5.54,6.43Z"/><path class="cls-192" d="M697.78,753.2l-1.65-.06.37-7.77.73.48c3.19,2.08,2,4.89.7,7.11Zm-.6-1h0c1.51-2.58,1.26-3.94.19-4.94Z"/></g><g id="_Group_11" data-name="&lt;Group&gt;"><path class="cls-193" d="M661.14,754.74a16.33,16.33,0,0,1-1.15-3.1c-.1-.6.43-1.31.81-2.31l2,3.24-1.68,2.2Z"/><path class="cls-192" d="M661.45,755.14l-.4-.36-.38.15c-.12-.3-.25-.59-.38-.88a9.91,9.91,0,0,1-.8-2.32,2.92,2.92,0,0,1,.45-1.69c.13-.27.27-.56.39-.88l.36-1,2.71,4.4-1.69,2.21,0,.06Zm-.58-4.73,0,.06a2.44,2.44,0,0,0-.36,1.1,9,9,0,0,0,.73,2.08l0,.11.92-1.21Z"/></g><g id="_Group_12" data-name="&lt;Group&gt;"><path class="cls-193" d="M661.1,754.77l2.49.12V758l-.86.24-1.6-3.51Z"/><path class="cls-192" d="M662.46,758.85l-1.64-3.59-.91,0,.84-.8.3.32h0l-.28-.34.32.32h0l0-.43,3,.15v4Zm-.51-3.54,1.07,2.35.08,0v-2.27Z"/></g><g id="_Group_13" data-name="&lt;Group&gt;"><path class="cls-193" d="M654.34,742.42c-1.83-2.88-1.71-4-.39-4.45Z"/><path class="cls-192" d="M655,744.42l-1.1-1.73c-1.25-2-1.67-3.23-1.36-4.11a1.81,1.81,0,0,1,1.23-1.09l.6-.21Zm-1.49-5.56,0,.06a1.73,1.73,0,0,0,.12,1.08Z"/></g></g><g id="_Group_14" data-name="&lt;Group&gt;"><g id="_Group_15" data-name="&lt;Group&gt;"><path class="cls-12" d="M653.86,750.47h-3.22l1.46,4.55.52-.06Z"/></g><g id="_Group_16" data-name="&lt;Group&gt;"><path d="M699.44,849.58c-1.44.7-7.65.17-13.86-3.94-6.73-4.46-6.6-2-9-2.36-5.15-.8-4.16-1.33-4.79-2.42-1-1.76-1.84-3.24-3.8-3.11-3,.19-4.16-2-5.35-2.44-5.13-1.81-3.77-2.44-6.15-3.79-4-2.29-2.85,3-2.86,2.43-1.42-1.42-2.12-6.29-1.37-6-1.49-1.35,2.63-4.68-1.81-4.59.55-1.47,1.24-2.65-.68-3.72-.83-.46-1-2.44-1.14-3.76-.26-3.64-.34-7.29-.4-10.94,0-.86.44-1.71.5-2.58.36-5.48.62-11,1-16.44a20.56,20.56,0,0,1,1-3.79l-2.71,1.45c.52-1.69.93-2.75,1.16-3.85a4.11,4.11,0,0,0-.23-1.71c-.29-1.15-1-2.33-.89-3.43.33-3.12,1.12-6.19,1.43-9.31.12-1.19-.55-2.47-.85-3.68l2.3-3.53-.5-.43h2.24l-2.49,3.23a12,12,0,0,1,2,.63c-.38,2.77,2.06,6.21-1.81,8.43l1.92-.1.42,8.33a9.62,9.62,0,0,1,1.85,1.45,8.94,8.94,0,0,1,.64,1.75c.6,1.5.52,3.29,2.67,4,1,.32,1.67,1.79,2.33,2.84s2.65,1.07,3.75-.34v2.51c1.59-1.21,3.27-3.53,4.91-3.5,2.89.06,2.11-2.12,2.92-3.23,1.12-1.55,2-3.29,3-4.94,1.12-1.86,2.16-3.77,3.4-5.55,1.79-2.55,3.75-5,5.58-7.49a13.62,13.62,0,0,0,1.07-2.18,7.09,7.09,0,0,0-2.37-.33,47.32,47.32,0,0,1-17.34,1c-2.87-.44-5-1.62-5.74-4.66-1.06-4.38-2.5-8.7-3.18-13.14-.7-4.63.72-6.46,5.06-8.14a34.84,34.84,0,0,0,4.91-2c-5.15,0-9.87,2.08-15,2.79a9.53,9.53,0,0,1,2-.91c8.53-1.76,17-3.67,25.64-5.08,3-.5,6.28.07,9.38.53,7.83,1.16,15.3-.27,22.61-2.87,1.66-.59,3.07-1.9,4.74-2.49a35.7,35.7,0,0,1,8.81-2l-2.7,1.58c.47.27.67.44.71.41,2.68-2.14,5.68-1.32,8.69-1.1,4.43.32,8.88.4,13.33.46,2.05,0,3,.91,2.93,2.92a16.38,16.38,0,0,0,2.75,9.25c.78,1.3.59,3.18.91,5.28.67.79,3.53-.28,3.24,2.67l1.84-.15a2.61,2.61,0,0,1,.3.74c.14,5.22.1,10.45.43,15.65.32,5,1.06,9.9,1.51,14.85.14,1.47-.21,3-.08,4.46.27,3.35,1,6.69,1,10a62.08,62.08,0,0,0,.6,8.61c.12,1.09-.61,2.26-.52,3.36.18,2.17.81,4.3,1,6.47a15.25,15.25,0,0,1-.57,3.69c0,.25-.29.55-.21.72,1.29,2.82-3.11,5.44-4,8.09-.28.83-.27,1.75-.55,2.58a8.25,8.25,0,0,1-1.94,3.29,10.73,10.73,0,0,0,.06,2.36c.07.39-.75,1.34-.29,1.46s.68,1.11-4.62,2.47a24.7,24.7,0,0,0-7,2.93c-13.87,8.71-5.51.07-7.95,1.15-4.87,2.17-8.09,2.08-10.26,2.54-4.33.92-8.8,5.53-13.38,3.46-5-2.27-8.91,2.59-9.08,3.09Zm-29.33-86.81.13.56c5-1,10.13-1.93,15.11-3.2a8.68,8.68,0,0,0,6.65-6.74,63.84,63.84,0,0,0,1.63-9.76c.26-4.08-.62-5.12-4.49-6.31a19,19,0,0,0-4.73-.73,68.91,68.91,0,0,0-22.05,2.56c-2.35.68-4.8,1.62-5,4.58a28.92,28.92,0,0,0,2.92,14.82,6.82,6.82,0,0,0,5.93,4C667.52,762.67,668.82,762.71,670.11,762.77ZM739.7,780.2c1.69-3.2,3.55-6.77,7.32-9.14l2.19-3.35c0-1.19,0-2.25,0-3.31.22-4.25.73-8.5.63-12.73a33.7,33.7,0,0,0-1.57-8.49c-.3-1-1.67-1.78-2.82-2.92-.52,3.07-1,5.44-1.31,7.83-.71,4.8-3.57,7.87-8.13,8.85-5.17,1.11-10.47,1.61-15.71,2.36-1,.14-1.94.19-3.21.3,3,3.59,5.6,6.82,8.28,10s5.39,6.4,8.22,9.46c.54.59,1.73.64,2.64.81S738.33,780.08,739.7,780.2Zm-30.44-19.64c-.17-1.89.05-3.42-.48-4.61-1.91-4.21-4-8.35-6.2-12.42a5.36,5.36,0,0,0-2.76-2.62c-1.72-.44-2.49,1.16-2.88,2.62-.68,2.57-1.18,5.19-1.87,7.77-.94,3.52-1.93,7.05-5,9.45-3.61,2.81-5.06,6.94-6.62,11-.27.7-.71,2.85.74,3.2s1.37-1.66,1.82-2.09c1.83-1.76,4.09-3.21,6.48-2,3.77,1.83,7.51,2.95,11.72,2.41-.12-.58-.45-1.18-.28-1.43,2.12-3,4.33-5.94,8.58-5.67,1.64.1,2.71-.38,2.83-2.15a2.44,2.44,0,0,0-2.48-2.91C711.6,760.89,710.35,760.7,709.26,760.56Zm8.62,35.32c-4.09-1.69-8.12-2.93-12.56-2.21,2.17-.63,4.31-1.15,6.42-1.73,1.44-.4,2.11-1.14,1.23-2.22l-16.76.65L697.5,794l-.23.11-2.82-4.08L689.36,794c-1.34.41-3.47-.45-4.61.27s-1.61,3-1.64,4.61c0,1.41,1,2.85,1.51,4.27l.71-.23-.26,1.76,4.32,1.46-.17-2.4,1.47,2.25a36.35,36.35,0,0,1,3.33-3.29c2.46-1.89,5-4,8.34-1.74.11.07.42-.19.66-.25,1.67-.43,3.36-1.24,5-1.16a61.39,61.39,0,0,1,7.47,1.35,6.78,6.78,0,0,0,1.65-.11v-.47L712,798.71C714.64,799.4,716.28,798.18,717.88,795.88ZM709,784.3a16.36,16.36,0,0,0-1.76-2.16c-.47-.41-1.42-.38-1.75-.84-1.85-2.63-3.69-3.17-6.72-1.78.68,3.16.12,4-2.78,5.37a3.28,3.28,0,0,0-1.43,2.46c0,.53,1.18,1.55,1.88,1.59,3.17.18,6.37.19,9.55.06,1.39-.06,2.76-.68,4.16-.86a26,26,0,0,1,3.41,0l0-.47,2.29,1.78a14.45,14.45,0,0,0,.16-2.21C713.51,786.64,712.16,783.22,709,784.3ZM692.54,784c-.75,1.62-1.45,3-2,4.44-.12.31.19,1.11.44,1.18a1.93,1.93,0,0,0,1.48-.29C694.23,788,694.15,786.31,692.54,784Zm3.36-43.7.94-.14a16.94,16.94,0,0,0-.48-4.07c-.24-.68-1.42-1-2.18-1.5l-.36.49Zm-6.65,42.06-1-.33-1.34,4.65.72.23ZM736.9,753.2a6.82,6.82,0,0,0,4.51-5.56,28.92,28.92,0,0,0-1.5-15c-1-2.79-3.63-3-6.08-2.95A68.91,68.91,0,0,0,712,733.6a19,19,0,0,0-4.32,2.07c-3.36,2.26-3.9,3.51-2.47,7.34a63.84,63.84,0,0,0,4.39,8.86,8.68,8.68,0,0,0,8.32,4.52c5.14-.23,10.26-.86,15.39-1.31l0-.57C734.46,754.07,735.69,753.66,736.9,753.2Z"/></g><g id="_Group_17" data-name="&lt;Group&gt;"><path d="M653.86,750.47,652.62,755l-.52.06-1.46-4.55Z"/></g><g id="_Group_18" data-name="&lt;Group&gt;"><path class="cls-12" d="M709.26,760.56c.76.79,2.34.33,3.6.46a2.44,2.44,0,0,1,2.48,2.91c-.12,1.77-1.19,2.26-2.83,2.15-4.26-.27-6.46,2.68-8.58,5.67-.18.25.62.95.28,1.43-2.45,3.47-8-.57-11.72-2.41-2.39-1.16-4.65.29-6.48,2-.45.44-.83,1-1.82,2.09-.36-1.44-1-2.5-.74-3.2,1.56-4,3-8.15,6.62-11,3.07-2.39,4.06-5.92,5-9.45.69-2.57,1.19-5.19,1.87-7.77.39-1.46,1.16-3.07,2.88-2.62a5.36,5.36,0,0,1,2.76,2.62c2.2,4.07,4.29,8.21,6.2,12.42C709.31,757.13,707.94,759.19,709.26,760.56Z"/></g><g id="_Group_19" data-name="&lt;Group&gt;"><path class="cls-12" d="M717.88,795.88c-1.6,2.3-3.23,3.52-5.84,2.83l5.11,1.57v.47a6.78,6.78,0,0,1-1.65.11,61.39,61.39,0,0,0-7.47-1.35c-1.65-.08-3.34.73-5,1.16-.23.06-.54.33-.66.25-3.37-2.21-5.88-.15-8.34,1.74a36.35,36.35,0,0,0-3.33,3.29l-1.47-2.25.17,2.4-4.32-1.46.26-1.76-.71.23c-.54-1.42-1.54-2.86-1.51-4.27,0-1.61.53-3.91,1.64-4.61s3.27.14,4.61-.27l5.09-3.91,2.82,4.08.23-.11-1.28-3.66,16.76-.65c.88,1.07.2,1.82-1.23,2.22-2.12.59-4.26,1.1-6.42,1.73C709.76,792.95,713.78,794.19,717.88,795.88Z"/></g><g id="_Group_20" data-name="&lt;Group&gt;"><path class="cls-12" d="M709,784.3c3.15-1.08,4.5,2.34,7,2.93a14.45,14.45,0,0,1-.16,2.21l-2.29-1.78,0,.47a26,26,0,0,0-3.41,0c-1.4.19-2.76.81-4.16.86-3.18.13-6.37.12-9.55-.06-.7,0-1.9-1.06-1.88-1.59a3.28,3.28,0,0,1,1.43-2.46c2.91-1.37,3.46-2.21,2.78-5.37,3-1.4,4.88-.86,6.72,1.78.32.46,1.27.42,1.75.84A16.36,16.36,0,0,1,709,784.3Z"/></g><g id="_Group_21" data-name="&lt;Group&gt;"><path class="cls-12" d="M692.54,784c1.61,2.28,1.68,4-.09,5.33a1.93,1.93,0,0,1-1.48.29c-.24-.06-.56-.86-.44-1.18C691.1,787,691.8,785.66,692.54,784Z"/></g><g id="_Group_22" data-name="&lt;Group&gt;"><path class="cls-12" d="M695.91,740.33l-2.08-5.22.36-.49c.76.49,1.94.83,2.18,1.5a16.94,16.94,0,0,1,.48,4.07Z"/></g><g id="_Group_23" data-name="&lt;Group&gt;"><path class="cls-12" d="M689.26,782.4l-1.66,4.55-.72-.23,1.34-4.65Z"/></g></g><g id="_Group_24" data-name="&lt;Group&gt;"><g id="_Group_25" data-name="&lt;Group&gt;"><path class="cls-194" d="M675.59,852.76m14.3-8.53c3.64.85,7.18-1.92,10.6-2.87,2.59-.71,5.1,2.47,7.49,1.8,3.92-1.1,5.09.79,8.2-.08,1.69-.48,5.66-4.79,7-5.17,4.06-1.12,6.59-4.66,6.88-4.52,5.66,2.71-1,4.63,6.67,4.4-.33-9,6-10.22,6.35-7.24-2.66-.74-.44,5.48-.28,5.35,2.75-2.31,9.61-3.07,7.56-4.7-2.36-1.88-4.69.65-3.09-1.19-.33-1.1,3-.06,3.2-.52,1.48-2.81,2.29-6.73,5.7-8.9-.72-1.84,1.82-3.47.67-5.52a4.77,4.77,0,0,1,.21-5.67,2.18,2.18,0,0,0,.17-1.4c-.44-4.85-.84-9.7-1.43-14.54a22.31,22.31,0,0,0-1.21-4.14c.55-4.65,1-8.81,1.52-13,0-.09-.17-.2-.27-.31l-.87,1.66c-.81-1.66.34-3.88-1.86-4.72.06.88.35,1.65.11,2.21-.67,1.61-1.55,3.14-2.37,4.74l-.8-1c-.25,1.39-.19,4-.83,4.15-1.91.55-1.56,2.06-2.06,3.14-1.42,3.07-1.91,3.18-4.28.62-.08-.09-.28-.07-.55-.13v3.93l-1.22-.36c-.24,3.12,1.79,6.39-1.15,9.37v-4.28l-.48,0-.44,1.46-2.79,1.07c1-2.65-2.44-2.54-2.78-4.45a19.1,19.1,0,0,0,.22,3.43c.1,1.4.84,1.58,2,1.22L732.42,807l.55,0-1.59-4.52c.84-.86,2.2-1.56.74-2.62l-3.91-2a5.52,5.52,0,0,0,1.26,6l-1.27,1.94L726,802.2l-1,15.86-1-.05a20.17,20.17,0,0,0,.14-3.49c-.06-.55-.86-1.49-1.19-1.44a5.07,5.07,0,0,0-2.11,1.22c-.18.15,0,.72,0,1.15l2.29-1c-1.07,3.21-1.88,5.79-2.83,8.31-.12.33-.94.41-1.59.66l.29-2.19-.61-.48c-1.35,1.35-2.74,2.67-4,4.07s-2.22,3.66-4.84,3.75c-3.35.12-5.37,2-6.54,5.14a45.31,45.31,0,0,1-2.72,5.23l-3.76-3.43,1-4.24-5.75,3,1.65-4.13-.88-.42-3.36,6.59-.44-4.44-.57.06-.77,4-.8-.15,1-7.22-1.46.56c1-1.5,2.1-3,3.13-4.51s1.71-2.78,1-4.42c-1.46,2.31-2.92,4.41-6,4.4l-.55.58c-1.94-1-2.5.28-2.9,1.79l-2.45,1.8,1.15.57-1.46,4-.52.08-2.53-8-1.07,2-.48-.09.69-10-.73-.16-2,4c-.18-2.39-.47-4.34-.44-6.28,0-2.41.31-4.81.54-7.21s-1.11-4.47-2-6.66a4.14,4.14,0,0,0-4.25-2.88l-.35,4-2-2.29-1,2.16-1.51-3.86-1.32,1.89-4.73-4.34c-.38,3.51-.78,6.24-1,9-.12,1.85-.19,3.82,2.16,4.68-.21.51-.25,1-.52,1.21-3.58,2.49-2,6.23-.46,8.05,2.13,2.49,1.63,5.34,2.83,7.8a1.39,1.39,0,0,1,.07.55l-2.08,1.7c4.78,0,1.78-.35,3.62,1.29-.68.38.14-3.53-.53-3.17,1.07.26,1-.51,1.9-.29-2.5,2.12.49.07,1.94.85-2.16,2,.69-.2,1.48,1.22.71-.62,1.26,1.28,1.82.8.15.1,1.81,2.14,2,2.24-1,1.55,2.51,1.68,1.76,2.91,1.14.82,3.42.68,3.75,1.86.39,1.43,2.84,3,5.32,2.49a9.36,9.36,0,0,1,5.49.82C685.61,840.52,688.08,843.81,689.89,844.23Zm-17.41-44.67.67.46c1.31-1.53,2.67-3,3.87-4.62.25-.33-.12-1.11-.2-1.69a5.82,5.82,0,0,0-1.42.93,23.77,23.77,0,0,0-2,2.85A16,16,0,0,0,672.48,799.56Zm40.08,23.61a25,25,0,0,0-3.15,1.72,23.41,23.41,0,0,0-2.52,2.57C710.48,827.8,712.71,825.85,712.56,823.18Zm-33.73-26.64,2.61-4C678.93,792,678.35,792.71,678.84,796.53Zm45,10.71-1.71,3.35.8.42C724.16,810.45,724.93,809.63,723.8,807.24Zm-16,14.65c2.45-.79,2.25-2.45,2.82-3.72l-.71-.37Z"/></g><g id="_Group_26" data-name="&lt;Group&gt;"><path class="cls-194" d="M685.9,828.31l-.32,0L684,823.78c3.08,0,4.54-2.09,6-4.41.69,1.64-.08,3.05-1,4.42S686.95,826.81,685.9,828.31Z"/></g><g id="_Group_27" data-name="&lt;Group&gt;"><path class="cls-194" d="M731.22,801.66,729.31,803a5.52,5.52,0,0,1-1.26-6l3.91,2C733.43,800.1,732.07,800.8,731.22,801.66Z"/></g><g id="_Group_28" data-name="&lt;Group&gt;"><path class="cls-194" d="M672.32,798.71a16,16,0,0,1,.9-2.05,23.77,23.77,0,0,1,2-2.85,5.82,5.82,0,0,1,1.42-.93c.08.57.45,1.36.2,1.69-1.2,1.61-2.56,3.09-3.87,4.62Z"/></g><g id="_Group_29" data-name="&lt;Group&gt;"><path class="cls-194" d="M712.4,822.33c.15,2.68-2.09,4.63-5.67,4.29a23.41,23.41,0,0,1,2.52-2.57A25,25,0,0,1,712.4,822.33Z"/></g><g id="_Group_30" data-name="&lt;Group&gt;"><path class="cls-194" d="M736.14,797.09l-.61.21c-1.12.36-1.85.18-2-1.22a19.1,19.1,0,0,1-.22-3.43C733.7,794.54,737.17,794.44,736.14,797.09Z"/></g><g id="_Group_31" data-name="&lt;Group&gt;"><path class="cls-194" d="M681.4,827.15l-.81-1c.4-1.51,1-2.76,2.91-1.79a15.42,15.42,0,0,1,.38,2.62c0,.37-.62,1.07-.84,1A6.07,6.07,0,0,1,681.4,827.15Z"/></g><g id="_Group_32" data-name="&lt;Group&gt;"><path class="cls-194" d="M681.4,827.15A6.07,6.07,0,0,0,683,828c.22,0,.83-.66.84-1a15.42,15.42,0,0,0-.38-2.62l.55-.58,1.54,4.56-2.52,1.77Z"/></g><g id="_Group_33" data-name="&lt;Group&gt;"><path class="cls-194" d="M685.53,788c-.48-3.82.1-4.54,2.61-4Z"/></g><g id="_Group_34" data-name="&lt;Group&gt;"><path class="cls-194" d="M723.64,806.39c1.13,2.39.36,3.21-.91,3.77l-.8-.42Z"/></g><g id="_Group_35" data-name="&lt;Group&gt;"><path class="cls-194" d="M707.64,821l2.11-4.08.71.37C709.89,818.59,710.08,820.25,707.64,821Z"/></g><g id="_Group_36" data-name="&lt;Group&gt;"><path class="cls-194" d="M659.35,808.75l4.93-3.08c-1.46,3.18-2.16,6.67-5.82,8.4l3-5.19-2.15-.16Z"/></g><g id="_Group_37" data-name="&lt;Group&gt;"><path class="cls-194" d="M751.26,850.38"/></g><g id="_Group_38" data-name="&lt;Group&gt;"><path class="cls-194" d="M705.21,835.58l2.38-6.86c.57.79.74.94.71,1-.75,2.06-1.52,4.11-2.28,6.16Z"/></g><g id="_Group_39" data-name="&lt;Group&gt;"><path class="cls-194" d="M659.32,808.71l-3.23,5.67-1-.71,4.23-4.93Z"/></g><g id="_Group_40" data-name="&lt;Group&gt;"><path class="cls-194" d="M667,812.82l1.36-2.56.71,0c.05.64.35,1.41.09,1.88s-1.1.89-1.68,1.32Z"/></g><g id="_Group_41" data-name="&lt;Group&gt;"><path class="cls-194" d="M710.32,833.39l-1.89,4.06c-.85-3-.58-3.5,1.87-4Z"/></g><g id="_Group_42" data-name="&lt;Group&gt;"><path class="cls-194" d="M667.2,806.43l-1-4.87.69-.14,1.13,4.84Z"/></g></g><path class="cls-2" d="M651.52,769.1S648,790.33,648,798.33s2,23,6,30,18.48,19.5,28.24,20.25,36.76,1.75,40.76.75,21-7,26-11,13-18,15-23,0-22-1-28c-.75-4.5-7.17-20-8-24-.42-2.06-3.28,7.54-4,7-1.85-1.38,5,.68-2,3-3,1-9.64,1.92-11,6-1,3,8-2,6,5-2.46,8.62-24.05-12-32-9s-9.7,2.86-19,1c-5-1-11,4-13,5-3.58,1.79-11,14-16,9s8.06-8.63,4.53-10.31c-.28-.13,1.77,3.5,1.47,3.31-3.43-2.2,0-7-9-3-9.18,4.08-4,16-4,16v-17C657,778.33,651.52,769.1,651.52,769.1Z"/><path d="M765.76,792.87l-.18-.44c-3.92-15.63-9.33-33-9.49-33.1a1.83,1.83,0,0,0-1.44-1.09c-.75.06-3.4,7.47-3.65,8.09-1.31,4.46-1.35,4.93-2.12,6.64a8.87,8.87,0,0,0-4.42-.71c-5.68.44-7.63,4.35-7.92,6.48a3,3,0,0,0,1.9,3.16,2.91,2.91,0,0,0,3.53-1,.88.88,0,0,1,.59-.2,3,3,0,0,1,1.08,2.32c.1,1.35-.78,1.56-1.52,1.77-2.23.32-6.36-2.51-8.89-4.12-6.66-4.45-16.8-11-28.1-3.68a3.18,3.18,0,0,1-2.84.22c-12.31-5.51-20.88,2.22-27.2,8-2.94,2.78-6.06,5.28-8.15,5.44-1.36,0-1.69-.47-1.77-1.52a4.9,4.9,0,0,1,.56-2.45l.75-.06a3.36,3.36,0,0,0,3.37.79c.15,0,.15,0,.29-.17a3.12,3.12,0,0,0,1.39-3.42c-.6-1.91-3.14-5.62-8.82-5.18a8.75,8.75,0,0,0-3.82,1.2c-1.21-2-4.12-8.55-5.79-12.63a1.39,1.39,0,0,0-2.69.21c0,.15-4.64,17.65-5.38,35.3l-.08.91a47.92,47.92,0,0,0,35.13,47.65,90.49,90.49,0,0,0,31.35,2.83c10.31-.8,19.33-2.85,26.89-6.15A47.71,47.71,0,0,0,765.76,792.87Zm-96.88-8.27h0l-.16-.14a4.09,4.09,0,0,0-3.37-.79c-2.08.31-3.37,3.12-3.17,5.66s2,4.21,4.83,4.14c3.15-.09,6.39-2.9,10-6.19,6.32-5.75,13.49-12.17,23.93-7.42a5.55,5.55,0,0,0,5.68-.44c9.73-6.32,18.45-.53,24.79,3.64,4.12,2.69,7.75,5,10.88,4.57a4.38,4.38,0,0,0,4.14-4.83c0-2.25-1.74-5-3.86-5.11a3.23,3.23,0,0,0-2.88,1.58h-.15c0-.15.63-3.51,5.11-3.86a7.33,7.33,0,0,1,5.09,1.71,12.08,12.08,0,0,1,3.19,8.17c-.21,6.93-5,15.57-18,16.58-13.6,1.06-22.68-3.5-26.8-6.19a4,4,0,0,0-2.92-.83,4.21,4.21,0,0,0-2.76,1.27c-3.79,3.45-12.07,9.21-25.52,10.25-13,1-19-6.64-20.3-13.61a11.21,11.21,0,0,1,1.89-8.57,6.47,6.47,0,0,1,4.62-2.46C667.43,781.4,668.68,784,668.88,784.6ZM737,845.17c-7.13,3.11-15.84,5.14-25.86,5.92a91.78,91.78,0,0,1-30.28-2.61,44.69,44.69,0,0,1-32.79-44.67l.07-1.06a178.69,178.69,0,0,1,4.12-30.24,92.73,92.73,0,0,0,4.48,9.28,2.26,2.26,0,0,0-.55.64,13.52,13.52,0,0,0-2.46,10.87c1.54,8.15,8.56,17.23,23.35,16.08,14.5-1.13,23.34-7.38,27.42-11a1.8,1.8,0,0,1,2.09-.16c4.59,3,14.3,7.91,28.8,6.79,14.95-1.16,20.48-11.21,20.59-19.49A15.5,15.5,0,0,0,751.89,775a.52.52,0,0,0-.31-.13,80.35,80.35,0,0,0,3.16-9.72c1.83,6.17,5.27,17.49,7.9,28.11l.18.44A44.58,44.58,0,0,1,737,845.17Z"/><path d="M704.45,843.79c-.91-.08-1.81,0-2.56-.1a1.44,1.44,0,0,0-.23,2.87,16.52,16.52,0,0,0,2.71.09h.15a1.59,1.59,0,0,0,1.39-1.46A1.3,1.3,0,0,0,704.45,843.79Z"/><path d="M694.34,843.37c-26.27-1.42-37.56-26.71-37.58-27a1.56,1.56,0,0,0-2-.75,1.5,1.5,0,0,0-.75,2c.17.29,12.2,27.32,40.28,28.75h.15a1.59,1.59,0,0,0,1.39-1.46A1.53,1.53,0,0,0,694.34,843.37Z"/><path d="M683.84,791.41a1.36,1.36,0,0,0,1-.53l.69-.81a1.49,1.49,0,0,0-2.12-2.09l-.83,1a1.45,1.45,0,0,0,.16,2.09A1.62,1.62,0,0,0,683.84,791.41Z"/><path d="M688.21,787.61a.9.9,0,0,0,.59-.2c4.75-2.77,8.91-1.44,9.07-1.31a1.48,1.48,0,1,0,1-2.78,14.25,14.25,0,0,0-11.61,1.5,1.49,1.49,0,0,0-.6,2A1.82,1.82,0,0,0,688.21,787.61Z"/></g><g id="_Group_43" data-name="&lt;Group&gt;"><path d="M573.79,926.83c-3.11,3-8.16,2.29-12.14,2.29-2.38,0-2.68-.13-2.68-2.42V899c0-1.86,4-1,5.14-1,4.1,0,9,0,11.15,4.19,1.68,3.2,1.47,8.47-1.69,10.63,4,2.63,3.41,11,.22,14.08Zm-8.55-6c0,2.25-.52,2.33,1.43,2.68,3.59,0,3.89-3.28,3.37-6.18-.39-2.25-3.07-2-4.79-2Zm4.23-11.45c3.5-4.45-4.23-8.12-4.23-4.75V910c0,.56,3.8-.09,4.23-.65S569.08,909.86,569.47,909.34Z"/><path d="M578.8,924.29V903.42c0-1-.6-4.28.17-5.1,1-1,5.53-.22,6.78-.22,1.73,0,6.61-.91,8.08,0,1.17,0,1.3,5.36-.09,5.36H585.1c-.22,0-.13,6.35-.13,7.08,0,.3,6.65.17,7.52.17,1.43,0,1.3,5.36.13,5.36-1.6,1-6.26-1.3-7.65,0-.3.3-.3,7,0,7.21,1.08,1,6.91,0,8.42,0s1.81,4.54,1,5.4c-1.12,1.12-6.31.22-7.69.22h-7.17C578.24,928.91,578.8,924.93,578.8,924.29Z"/><path d="M615.77,927.35c0,3.46-5.53,2.76-6.61.13l-5.7-13.61V924.8c0,4.15.3,4.54-4.1,4.54-2.94,0-2.25-1.55-2.25-4.06V900.74c0-3.2.65-2.94,3.93-2.94s3.5,3.63,4.58,6.22c1.25,3.11,2.51,6.18,3.8,9.29V901.56c0-.6-.52-3.76.69-3.76.91-.56,3.84,0,4.92,0C616.55,897.81,615.77,924.37,615.77,927.35Z"/><path d="M620.7,928.35c-3.24-1.86-3.24-2.46-.61-4.32s2.07-.35,5-.35c3.41,0,2.59-4.88,2.59-7.08,0-2-1-18.71.91-18.71,2.85,0,5.36-1,5.36,2.29v21.12c0,6.44-7.95,10.15-13.26,7C619.62,927.74,621.82,929,620.7,928.35Z"/><path d="M656.25,925.58c.17.6,1.08,2.59.56,3.24s-5.92.69-6.13-.26c-1.12-1.08-.09-5-1.3-5.87a16.94,16.94,0,0,0-5.53,0c-1.25.86-.22,4.79-1.34,5.88-.22,1-5.57,1-6.13.26-1.12-1.47,2-9,2.42-10.58l4.28-16.59c.13-.65.3-2.72.82-3.24.22-1,5.18-1,5.4,0C651.62,907.48,654,916.51,656.25,925.58Zm-9.68-15.38c-.52,2.38-1,4.71-1.55,7.08h3.11Z"/><path d="M682.85,926.71c0,1.38.26,2.42-1.47,2.42-1.17,0-4.88.78-4.88-1V913.79c-1,2.72-2.12,10-5.49,10s-4.45-7.21-5.44-9.94v10.54c0,4.23.39,4.75-4.1,4.75-2.94,0-2.25-1.56-2.25-4.06V900.57c0-3.15.65-2.94,3.93-2.94s3.46,3.76,4.49,6.35c1.12,2.85,2.25,5.66,3.37,8.51,1.42-3.67,2.89-7.3,4.32-10.93,1.64-4.19,2.16-3.93,6.83-3.93C683.63,897.63,682.85,923.81,682.85,926.71Z"/><path d="M685.49,909.94V899.66c0-2.07,4.06-2.59,5.57-1.6,1.47,0,.69,17.58.69,19.27v10.28c0,2.63-3.58,1.6-5.57,1.6C684.67,929.21,685.49,911.63,685.49,909.94Z"/><path d="M712.87,927.35c0,3.46-5.53,2.76-6.61.13l-5.7-13.61V924.8c0,4.15.3,4.54-4.1,4.54-2.94,0-2.25-1.55-2.25-4.06V900.74c0-3.2.65-2.94,3.93-2.94s3.5,3.63,4.58,6.22c1.25,3.11,2.5,6.18,3.8,9.29V901.56c0-.6-.52-3.76.69-3.76.91-.56,3.84,0,4.92,0C713.65,897.81,712.87,924.37,712.87,927.35Z"/><path d="M722.24,898.63c.3.73-.17,2.76-1.34,6.52a22.23,22.23,0,0,0-.69,2.46c-.13,1-2.76,1.25-3.5,1.25a2.07,2.07,0,0,1-.65-.09.79.79,0,0,1-.61-.34c-.52-.82.09-3.15,1.94-7.3l.09-.22c.35-.82,1.86-3.11,3.37-3.11a1.45,1.45,0,0,1,1.17.56c.09,0,.17.13.17.17S722.24,898.58,722.24,898.63Z"/><path d="M740.34,900c1.17,1,4,5.92,2.25,7.69-.82.82-4.1.17-5.18.17-1.94,0-.13-4.54-3.63-4.54-3.8,0-3.24,5.4-.3,6.44,2.16,1,4.58,1.25,6.52,2.68,3,2.16,3.15,6.57,2.59,9.94-1.25,7.47-11.84,9.42-16.37,3.58-.56-.73-3.07-6.74-.65-6.74,1.08,0,4.32-.6,5.18.22,1.64,1.68-.69,4.84,3.89,4.1,2.2-.3,2.55-4.79,1.47-6.39s-5-2-6.7-2.85c-3.2-1.51-4.49-4.32-4.49-7.78,0-7.95,9.59-11.75,15.42-6.52C741.12,900.66,739.57,899.23,740.34,900Z"/><path d="M758.4,927.66c-4-2.85-2.89-9.07-2.89-13.35,0-3.84-1.08-10.11,1.38-13.43,2.68-3.54,8.34-4.19,12.05-2,1.77,1,5.44,5.92,3.71,8.21,0,1.34-4.58.73-5.36.73-1.47,0-.73-2.94-1.56-3.84-4.49-5.05-4,8-4,9.2,0,2.29-1.38,10.41,2.25,10.41,3.2,0,1.51-4.45,3.07-4.45a13.23,13.23,0,0,1,4.88,0c2.59,0-1.08,7.21-1.77,7.86a9.93,9.93,0,0,1-11.79.65C757.58,927.05,759.26,928.26,758.4,927.66Z"/><path d="M790.45,899.62c4.62,3.54,2.89,12.79,2.89,17.84,0,2.33.35,5.14-.82,7.3-2.59,4.88-9.81,5.7-14,2.46-4.62-3.54-2.89-12.79-2.89-17.84,0-2.38-.3-5.1.82-7.26,2.55-5,9.81-5.75,14-2.5C791.31,900.27,789.63,899,790.45,899.62Zm-8.55,6v4.54c0,3.28-.86,7.86,0,11,0,3.11,5.18,3.07,5.18,0V905.58C787.08,902.47,781.89,902.56,781.89,905.67Z"/><path d="M796.06,899.4c0-2.64,10.24-1.3,12.23-1.3,1.64,0,3.67-.65,3.67,1.51,0,2.55.56,3.89-2.29,3.89-.69,0-7.34-.13-7.34.13V911c0,.26,6.44.13,7.21.13,1.55,0,1.86,3.63,1.17,4.67,0,1.43-6.39.73-7.34.73-1.9,0-1,2.55-1,4.19v7.69c0,1.47-4.62.78-5.57.78C795.33,929.17,796.06,902.47,796.06,899.4Z"/><path d="M814.42,899.4c0-2.64,10.24-1.3,12.23-1.3,1.64,0,3.67-.65,3.67,1.51,0,2.55.56,3.89-2.29,3.89-.69,0-7.34-.13-7.34.13V911c0,.26,6.44.13,7.21.13,1.55,0,1.86,3.63,1.17,4.67,0,1.43-6.39.73-7.34.73-1.9,0-1,2.55-1,4.19v7.69c0,1.47-4.62.78-5.57.78C813.68,929.17,814.42,902.47,814.42,899.4Z"/><path d="M832.82,924.29V903.42c0-1-.6-4.28.17-5.1,1-1,5.53-.22,6.78-.22,1.73,0,6.61-.91,8.08,0,1.17,0,1.3,5.36-.09,5.36h-8.64c-.22,0-.13,6.35-.13,7.08,0,.3,6.65.17,7.52.17,1.43,0,1.3,5.36.13,5.36-1.6,1-6.26-1.3-7.65,0-.3.3-.3,7,0,7.21,1.08,1,6.91,0,8.42,0s1.81,4.54,1,5.4c-1.12,1.12-6.31.22-7.69.22h-7.17C832.26,928.91,832.82,924.93,832.82,924.29Z"/><path d="M851.31,924.29V903.42c0-1-.6-4.28.17-5.1,1-1,5.53-.22,6.78-.22,1.73,0,6.61-.91,8.08,0,1.17,0,1.3,5.36-.09,5.36h-8.64c-.22,0-.13,6.35-.13,7.08,0,.3,6.65.17,7.52.17,1.43,0,1.3,5.36.13,5.36-1.6,1-6.26-1.3-7.65,0-.3.3-.3,7,0,7.21,1.08,1,6.91,0,8.42,0s1.81,4.54,1,5.4c-1.12,1.12-6.31.22-7.69.22H852C850.75,928.91,851.31,924.93,851.31,924.29Z"/></g><g id="_Group_44" data-name="&lt;Group&gt;"><path d="M638,963.36h-7.83l-2,4.44h-3l9.05-19.45,8.73,19.45h-3Zm-1.13-2.59-2.71-6.22-2.84,6.22Z"/><path d="M652.13,949.51v11a6.06,6.06,0,0,0,.77,3.45,4.12,4.12,0,0,0,6.48,0,6,6,0,0,0,.77-3.45v-11h2.76v11.78a6.59,6.59,0,0,1-1.8,4.76,7,7,0,0,1-9.94,0,6.59,6.59,0,0,1-1.8-4.76V949.51Z"/><path d="M677.2,952.1v15.7h-2.76V952.1h-4.21v-2.59h11.16v2.59Z"/><path d="M691.47,956.66h7.89v-7.16h2.76v18.3h-2.76v-8.54h-7.89v8.54h-2.76v-18.3h2.76Z"/><path d="M721.46,952.1h-7.33v4.4h7.12v2.6h-7.12v6.11h7.33v2.6h-10.1v-18.3h10.1Z"/><path d="M729.94,967.8V948.26l13.34,14V949.51H746v19.41L732.71,955V967.8Z"/><path d="M760.34,952.1v15.7h-2.76V952.1h-4.21v-2.59h11.16v2.59Z"/><path d="M774.61,949.51v18.3h-2.76v-18.3Z"/><path d="M797.38,950.49v3.27a7.66,7.66,0,0,0-5-2,6.31,6.31,0,0,0-4.75,2,6.83,6.83,0,0,0-1.94,4.93,6.67,6.67,0,0,0,1.94,4.86,6.42,6.42,0,0,0,4.76,2,5.84,5.84,0,0,0,2.48-.47,7.14,7.14,0,0,0,1.18-.64,13.92,13.92,0,0,0,1.29-1v3.33a10,10,0,0,1-5,1.34,9.19,9.19,0,0,1-6.7-2.74,9.08,9.08,0,0,1-2.76-6.66,9.39,9.39,0,0,1,2.31-6.23,9.2,9.2,0,0,1,7.36-3.35A9.35,9.35,0,0,1,797.38,950.49Z"/></g><g id="_Group_45" data-name="&lt;Group&gt;"><path d="M738.24,747l-1.64-10.39c1.95,3.29,1.91,6.85,1.62,10.44Z"/></g><g id="_Group_46" data-name="&lt;Group&gt;"><g id="_Group_47" data-name="&lt;Group&gt;"><path d="M826.17,959.34A22.45,22.45,0,0,0,831,957.8c3-1.25,5.72-2.34,11.82-.57-.52,4.88-5.66,8.81-12,9-6.11.17-11.27-3.17-12.38-7.71A14.33,14.33,0,0,0,826.17,959.34Z"/></g><g id="_Group_48" data-name="&lt;Group&gt;"><path d="M842.66,954.78c-6.36-1.66-9.5-.38-12.55.87a20.32,20.32,0,0,1-4.35,1.4,12.3,12.3,0,0,1-7.57-1.18c.51-4.88,5.66-8.81,12-9C836.44,946.72,841.65,950.15,842.66,954.78Z"/></g></g><g id="_Group_49" data-name="&lt;Group&gt;"><g id="_Group_50" data-name="&lt;Group&gt;"><path d="M596.84,959.34A22.45,22.45,0,0,1,592,957.8c-3-1.25-5.72-2.34-11.82-.57.52,4.88,5.66,8.81,12,9,6.11.17,11.27-3.17,12.38-7.71A14.33,14.33,0,0,1,596.84,959.34Z"/></g><g id="_Group_51" data-name="&lt;Group&gt;"><path d="M580.34,954.78c6.36-1.66,9.5-.38,12.55.87a20.32,20.32,0,0,0,4.35,1.4,12.3,12.3,0,0,0,7.57-1.18c-.51-4.88-5.66-8.81-12-9C586.57,946.72,581.36,950.15,580.34,954.78Z"/></g></g><path d="M614.13,809.93a.57.57,0,1,0,.8-.81l-6-6v-4.62l5.22,5.22a.57.57,0,1,0,.8-.81l-6-6V729l3.19,5.51a.57.57,0,0,0,.49.29.55.55,0,0,0,.29-.08.57.57,0,0,0,.21-.78l-4.25-7.36h0l-.08-.11h0l-.1-.08,0,0-.1,0h0l-.14,0-.13,0h0l-.09,0,0,0-.1.08h0a.5.5,0,0,0-.08.11h0L603.59,734a.57.57,0,0,0,1,.57l3.19-5.51v67.82l-6,6a.57.57,0,0,0,.81.81l5.22-5.22v4.63l-6,6a.57.57,0,0,0,.81.81l5.22-5.22v4.62l-6,6a.57.57,0,0,0,.81.81l5.79-5.79,5.79,5.79a.56.56,0,0,0,.4.17.57.57,0,0,0,.4-1l-6-6v-4.62Z"/><path d="M579.87,732.74a.57.57,0,0,0-.81.81l6,6v4.62L579.87,739a.57.57,0,0,0-.81.81l6,6v67.82l-3.19-5.51a.57.57,0,0,0-.49-.29.55.55,0,0,0-.28.08.57.57,0,0,0-.21.78l4.25,7.36h0a.53.53,0,0,0,.08.11h0l.1.08,0,0,.09,0h0l.14,0,.14,0h0l.09,0,0,0,.1-.08h0a.5.5,0,0,0,.08-.11h0l4.25-7.36a.57.57,0,0,0-1-.57l-3.18,5.51V745.81l6-6a.57.57,0,1,0-.81-.81l-5.22,5.22v-4.63l6-6a.57.57,0,0,0-.81-.81L586.23,738v-4.62l6-6a.57.57,0,0,0-.81-.81l-5.79,5.79-5.79-5.79a.56.56,0,0,0-.4-.17.58.58,0,0,0-.4.17.57.57,0,0,0,0,.81l6,6V738Z"/><path d="M824.13,809.93a.57.57,0,1,0,.8-.81l-6-6v-4.62l5.22,5.22a.57.57,0,1,0,.8-.81l-6-6V729l3.19,5.51a.57.57,0,0,0,.49.29.55.55,0,0,0,.29-.08.57.57,0,0,0,.21-.78l-4.25-7.36h0l-.08-.11h0l-.1-.08,0,0-.1,0h0l-.14,0-.13,0h0l-.09,0,0,0-.1.08h0a.5.5,0,0,0-.08.11h0L813.59,734a.57.57,0,0,0,1,.57l3.19-5.51v67.82l-6,6a.57.57,0,0,0,.81.81l5.22-5.22v4.63l-6,6a.57.57,0,0,0,.81.81l5.22-5.22v4.62l-6,6a.57.57,0,0,0,.81.81l5.79-5.79,5.79,5.79a.56.56,0,0,0,.4.17.57.57,0,0,0,.4-1l-6-6v-4.62Z"/><path d="M789.87,732.74a.57.57,0,0,0-.81.81l6,6v4.62L789.87,739a.57.57,0,0,0-.81.81l6,6v67.82l-3.19-5.51a.57.57,0,0,0-.49-.29.55.55,0,0,0-.28.08.57.57,0,0,0-.21.78l4.25,7.36h0a.53.53,0,0,0,.08.11h0l.1.08,0,0,.09,0h0l.14,0,.14,0h0l.09,0,0,0,.1-.08h0a.5.5,0,0,0,.08-.11h0l4.25-7.36a.57.57,0,0,0-1-.57l-3.18,5.51V745.81l6-6a.57.57,0,1,0-.81-.81l-5.22,5.22v-4.63l6-6a.57.57,0,0,0-.81-.81L796.23,738v-4.62l6-6a.57.57,0,0,0-.81-.81l-5.79,5.79-5.79-5.79a.56.56,0,0,0-.4-.17.58.58,0,0,0-.4.17.57.57,0,0,0,0,.81l6,6V738Z"/><polygon class="cls-195" points="559.5 762.09 551.92 775.21 567.08 775.21 559.5 762.09"/><polygon class="cls-195" points="840.21 762.78 835.92 770.21 844.5 770.21 840.21 762.78"/><circle class="cls-195" cx="631" cy="698.33" r="5.5"/><circle class="cls-195" cx="776" cy="851.33" r="5.5"/><circle class="cls-195" cx="776" cy="781.33" r="3.5"/><polygon class="cls-195" points="565.71 782.09 560.92 790.38 570.5 790.38 565.71 782.09"/></g></g></svg>