<svg xmlns="http://www.w3.org/2000/svg" viewBox="0 0 316.31 289.72"><defs><style>.cls-1{opacity:0.1;}.cls-2,.cls-3,.cls-7{stroke:#000;stroke-miterlimit:10;}.cls-2,.cls-3{stroke-width:0.75px;}.cls-3,.cls-4{fill:#fff;}.cls-5{fill:#e6e6e6;}.cls-6{fill:#fffff7;}.cls-7{fill:none;}</style></defs><title>Benjamin-coffee-logo</title><g id="Layer_2" data-name="Layer 2"><g id="Camada_1" data-name="Camada 1"><g id="_Group_" data-name="&lt;Group&gt;"><g id="_Group_2" data-name="&lt;Group&gt;" class="cls-1"><g id="_Group_3" data-name="&lt;Group&gt;"><path class="cls-2" d="M135.26,3.78c.33-.16.61-.59,1-.69A63.19,63.19,0,0,1,144.66,1c6-.73,11.55,1.63,17.11,3.41,13.81,4.4,23.86,13.46,30.42,26.15,5.2,10.08,7.14,21.26,9.31,32.45a9.58,9.58,0,0,0,1-.05c3.35-.46,4.46.34,4.85,3.66a45.54,45.54,0,0,1,.39,5.56c0,5.63-.9,11.28.62,16.86a10.2,10.2,0,0,1,.33,2.64c0,3.75,2.94,7,1.91,10.91,0,.18-4.82,13.17-4.82,13.41.85,31-32.56,48.29-57,49-14,.42-39.82-11.11-40.45-11.91-2.67-3.38-8.65-10.47-9.06-13.84-.36-2.93-.14-5.66-.36-8.6a54.23,54.23,0,0,1,.49-7.46c.36-4.71-1.87-9-1.72-13.72A109.38,109.38,0,0,0,96.92,98c-.17-2.24-.35-4.49-.61-6.72-.68-5.94-1.06-11.76,4.31-16.14.44-.36.36-1.93,0-2.62a6.17,6.17,0,0,1-.51-6.18,11,11,0,0,0,.77-5c-.23-3.52-1.29-25.33,8-35.15C116,18.71,128.84,6.9,135.26,3.78ZM110.08,75.54l1.6,3.51.86-.24V75.7L110,75.57l1.68-2.2-2-3.24c-.37,1-.91,1.71-.81,2.31A16.41,16.41,0,0,0,110.08,75.54Zm-4.62-4.29c-1.82,1.65-1.81,3.11-.75,4.63s.68,3,.44,4.72c-.36,2.69.44,5.55.8,8.33.18,1.43.51,2.83.73,4.25.09.62.07,1.25.11,2,2.3-.5,3.48-3.74,5.66-1.66,1-.52,1.88-1.38,2.41-1.2a20.81,20.81,0,0,1,3.75,2.18c.62-.72,1.43-1.68,2.25-2.63,1.15-1.33,2.37-2.61,3.41-4,.15-.2-.46-1.37-.88-1.49-1.7-.48-3.49-.65-5.21-1.08-.55-.14-1-.74-1.49-1.12l.36-.65C109.14,83.41,107.54,77.28,105.46,71.26Zm36.19,143.12a3.6,3.6,0,0,0-3.24-3.58,3.72,3.72,0,0,0-3.65,3.74,3.1,3.1,0,0,0,3.35,3.28A3.33,3.33,0,0,0,141.65,214.37Zm11.46-108.55c-.3-.74-.37-1.45-.67-1.56a4,4,0,0,0-2.54-.46c-.74.3-1.18,1.34-1.74,2.06.65.46,1.25,1.2,2,1.31a23,23,0,0,0,5.23.31,11,11,0,0,0,3-1.17c-.69-1-1.18-2.31-2.12-3C153.71,101.61,154,104.34,153.11,105.82ZM138.75,85a68.2,68.2,0,0,0,8.9.72c1.73-.07,2-2.31.54-3.53C145.76,80.14,140.39,81.5,138.75,85ZM120.42,186.29c-1.31-1.14-2.06-2.34-2.82-2.35-2.48,0-1.53,2.41-2.16,3.73-.07.15,1.43,1.46,1.72,1.31A20.53,20.53,0,0,0,120.42,186.29ZM145.6,73.45l.85,0c1.79-2.93,1.77-4.92-.54-6.43ZM103.28,63.22l-.39-4.45C101.57,59.22,101.45,60.34,103.28,63.22Z"/><path class="cls-2" d="M138.09,218.32a3.84,3.84,0,0,1-2.78-1,3.77,3.77,0,0,1-1-2.74,4.33,4.33,0,0,1,1.33-3.1,3.9,3.9,0,0,1,2.84-1.14,4.09,4.09,0,0,1,3.72,4.08h0a3.81,3.81,0,0,1-4,3.94Zm.21-7a2.9,2.9,0,0,0-2,.86,3.33,3.33,0,0,0-1,2.38,2.79,2.79,0,0,0,.75,2,2.87,2.87,0,0,0,2.08.75h0a2.83,2.83,0,0,0,3-3,3.1,3.1,0,0,0-2.76-3.07Zm-21.19-21.81a3,3,0,0,1-1.7-1c-.26-.25-.62-.59-.43-1a3.94,3.94,0,0,0,.23-1.29c.08-1.09.21-2.72,2.32-2.72h.06c.71,0,1.27.6,2,1.34.34.35.72.75,1.16,1.13l.43.38-.44.38c-.41.35-.76.68-1.09,1a11,11,0,0,1-2.26,1.77A.58.58,0,0,1,117.12,189.48ZM116,187.62a5.63,5.63,0,0,0,1.06.84,11.44,11.44,0,0,0,1.91-1.54l.69-.63c-.29-.28-.56-.56-.8-.81-.51-.53-1-1-1.28-1h-.05c-1.13,0-1.22.56-1.32,1.8A5.76,5.76,0,0,1,116,187.62Zm32-22.09c-14.21,0-39.24-11-40.09-12.11l-1.05-1.32c-3.08-3.84-7.73-9.65-8.11-12.77a44.54,44.54,0,0,1-.24-4.93c0-1.2,0-2.44-.12-3.7a31.5,31.5,0,0,1,.28-5.42c.08-.74.16-1.45.21-2.11a23.73,23.73,0,0,0-.83-7,27.1,27.1,0,0,1-.89-6.71,66.19,66.19,0,0,0-.42-8.17c-.1-1.08-.2-2.16-.28-3.24-.14-1.83-.33-4.25-.61-6.7-.74-6.46-.91-12.17,4.49-16.58a2.85,2.85,0,0,0-.16-2,6.63,6.63,0,0,1-.54-6.63,10.47,10.47,0,0,0,.73-4.79c-.28-4.2-1.21-25.65,8.17-35.53,6.83-7.2,20-19.33,26.54-22.53a1.7,1.7,0,0,0,.3-.23,1.88,1.88,0,0,1,.77-.48c.77-.21,1.55-.43,2.32-.65A39.27,39.27,0,0,1,144.6.51c5.19-.63,10,1,14.73,2.57l2.59.85c13.57,4.33,23.9,13.21,30.71,26.39,4.91,9.5,7,20.15,8.94,30.45l.33,1.72a4.74,4.74,0,0,0,.52,0c1.93-.27,3.11-.11,3.94.53s1.26,1.7,1.48,3.57a46.54,46.54,0,0,1,.39,5.62c0,1.46-.08,2.94-.14,4.37-.18,4.07-.37,8.29.74,12.35a10.64,10.64,0,0,1,.34,2.77,13.42,13.42,0,0,0,1,4.42c.73,2.07,1.49,4.21.86,6.62,0,.07-.16.45-1.14,3.14-1.22,3.34-3.46,9.5-3.66,10.2.81,31.14-32.87,48.74-57.52,49.47ZM146.92,1.38a18.19,18.19,0,0,0-2.2.13,38.53,38.53,0,0,0-6,1.41c-.78.23-1.56.45-2.34.66a1.26,1.26,0,0,0-.35.26,2.39,2.39,0,0,1-.53.39h0C129,7.36,116,19.4,109.22,26.54c-9.08,9.58-8.17,30.65-7.89,34.77a11.33,11.33,0,0,1-.81,5.26,5.66,5.66,0,0,0,.49,5.72c.48.82.64,2.68-.07,3.26-5,4.1-4.86,9.31-4.13,15.7.28,2.47.47,4.9.61,6.74.08,1.07.18,2.15.28,3.23a67.11,67.11,0,0,1,.43,8.29A26.33,26.33,0,0,0,99,116a24.88,24.88,0,0,1,.85,7.28c-.05.67-.13,1.39-.21,2.14a30.83,30.83,0,0,0-.28,5.24c.1,1.29.11,2.55.13,3.76a43.28,43.28,0,0,0,.24,4.82c.35,2.84,5.07,8.74,7.9,12.26l1.06,1.32c1.06.89,26.21,12.16,40,11.72,24.25-.72,57.39-18,56.55-48.51,0-.17,0-.26,3.73-10.5.62-1.69,1.07-2.95,1.11-3.07.55-2.1-.12-4-.84-6a14.37,14.37,0,0,1-1.09-4.75,9.67,9.67,0,0,0-.31-2.51c-1.15-4.22-1-8.51-.78-12.66.06-1.42.13-2.89.14-4.33a45.42,45.42,0,0,0-.38-5.5c-.18-1.55-.52-2.45-1.1-2.89s-1.55-.56-3.19-.33a6.8,6.8,0,0,1-.84,0l-.64,0-.5-2.56c-2-10.23-4-20.81-8.85-30.18-6.68-12.94-16.82-21.66-30.12-25.9L159,4C155.11,2.72,151.09,1.38,146.92,1.38ZM154.09,108a25.45,25.45,0,0,1-4.06-.36,3.43,3.43,0,0,1-1.6-.94c-.19-.16-.37-.32-.56-.45l-.43-.3.33-.42c.16-.21.31-.44.47-.67a3.58,3.58,0,0,1,1.48-1.53,4.25,4.25,0,0,1,2.88.45,1,1,0,0,1,.56.6l0-.06c.26-.83.53-1.69,1.29-2a2.36,2.36,0,0,1,2.08.57A6.08,6.08,0,0,1,158.2,105c.19.33.38.66.59,1l.36.51-.58.23c-.3.12-.6.27-.91.42a6.29,6.29,0,0,1-2.28.79C155,108,154.53,108,154.09,108Zm-5.25-2.26.24.2a2.81,2.81,0,0,0,1.11.71,22.16,22.16,0,0,0,5.12.3,5.48,5.48,0,0,0,1.91-.68l.43-.21-.31-.53a5.28,5.28,0,0,0-1.36-1.79c-.73-.5-1.06-.5-1.18-.45-.29.1-.49.74-.66,1.31a6.79,6.79,0,0,1-.58,1.46l-.51.87-.38-.94c-.11-.27-.19-.54-.26-.78a2.77,2.77,0,0,0-.2-.55,3.89,3.89,0,0,0-2.1-.41,3,3,0,0,0-1,1.15Zm-42.54-10,0-.59c0-.23,0-.46,0-.67a10.11,10.11,0,0,0-.08-1.24c-.09-.61-.21-1.22-.32-1.84-.15-.79-.3-1.61-.41-2.43s-.23-1.51-.36-2.27a20.72,20.72,0,0,1-.44-6.19l.09-.63c.21-1.43.38-2.55-.45-3.74-1.3-1.87-1-3.6.83-5.28l.56-.51.61,1.76C108.17,77.68,110,82.92,117,83h.84l-.57,1,.17.16a2.31,2.31,0,0,0,.81.59c.78.2,1.59.34,2.37.48.94.17,1.91.34,2.85.6.62.17,1.07,1.13,1.18,1.45a.87.87,0,0,1,0,.81c-.78,1.06-1.66,2-2.51,3l-.92,1-1.67,1.95-.86,1-.36-.22c-.39-.24-.77-.49-1.14-.74a11.49,11.49,0,0,0-2.51-1.4,3.6,3.6,0,0,0-1,.56c-.31.21-.64.42-1,.61l-.32.17-.26-.25c-1-1-1.58-.57-2.79.4a6,6,0,0,1-2.42,1.38Zm-1.06-23.58a2.44,2.44,0,0,0-.13,3.42c1.05,1.51.84,2.94.61,4.46l-.09.61a20,20,0,0,0,.43,5.89c.13.77.26,1.54.36,2.31s.25,1.59.4,2.37c.12.62.23,1.24.33,1.87a10.55,10.55,0,0,1,.09,1.35,7.45,7.45,0,0,0,1.42-1c1-.82,2.27-1.83,3.82-.6l.6-.39c.71-.47,1.32-.88,1.91-.67a12.2,12.2,0,0,1,2.74,1.51l.74.49.3-.35,1.67-2,.93-1.06c.8-.9,1.63-1.84,2.36-2.81a2.09,2.09,0,0,0-.54-.85c-.87-.24-1.82-.41-2.73-.57s-1.63-.29-2.44-.5a3,3,0,0,1-1.25-.84c-.14-.13-.27-.26-.42-.37l-.33-.26.17-.31c-7.11-.46-9-6.06-10.87-11.49ZM146.8,86.26a45.24,45.24,0,0,1-5.39-.44c-.89-.11-1.79-.21-2.7-.3l-.71-.07.3-.64a7.51,7.51,0,0,1,5.23-3.9,5.82,5.82,0,0,1,5,.91,2.94,2.94,0,0,1,1,3.08,2,2,0,0,1-1.83,1.33Zm-7.24-1.65,2,.23a37.5,37.5,0,0,0,6.1.41.94.94,0,0,0,.92-.65,1.92,1.92,0,0,0-.69-2,4.84,4.84,0,0,0-4.12-.7A6.75,6.75,0,0,0,139.56,84.6ZM111.4,79.65l-1.64-3.59-.69,0,.43-.57-.27-.62a9.86,9.86,0,0,1-.8-2.31,2.92,2.92,0,0,1,.45-1.69c.13-.27.27-.56.39-.88l.36-1,2.71,4.4L111,75.12l2,.1v4Zm-.51-3.54L112,78.46l.08,0V76.17Zm-1.08-4.91,0,.06a2.44,2.44,0,0,0-.36,1.1,9,9,0,0,0,.73,2.08l.05.12.92-1.21ZM146.72,74l-1.65-.06.37-7.77.73.48c3.19,2.08,2,4.89.7,7.11Zm-.6-1h0c1.51-2.58,1.26-3.94.19-4.94ZM104,65.22l-1.1-1.73c-1.25-2-1.67-3.23-1.36-4.11a1.81,1.81,0,0,1,1.23-1.09l.6-.21Zm-1.49-5.56,0,.06a1.73,1.73,0,0,0,.12,1.08Z"/></g><g id="_Group_4" data-name="&lt;Group&gt;"><path class="cls-3" d="M105.46,71.26c2.08,6,3.69,12.16,11.58,12.22l-.36.65c.49.39.93,1,1.49,1.12,1.72.43,3.5.6,5.21,1.08.42.12,1,1.29.88,1.49-1,1.41-2.26,2.7-3.41,4-.82.95-1.63,1.9-2.25,2.63a20.81,20.81,0,0,0-3.75-2.18c-.53-.18-1.42.67-2.41,1.2-2.18-2.08-3.36,1.16-5.66,1.66,0-.71,0-1.35-.11-2-.22-1.42-.54-2.83-.73-4.25-.36-2.78-1.16-5.64-.8-8.33.24-1.77.63-3.19-.44-4.72S103.63,72.91,105.46,71.26Z"/><path class="cls-2" d="M106.3,95.76l0-.59c0-.23,0-.46,0-.67a10.11,10.11,0,0,0-.08-1.24c-.09-.61-.21-1.22-.32-1.84-.15-.79-.3-1.61-.41-2.43s-.23-1.51-.36-2.27a20.72,20.72,0,0,1-.44-6.19l.09-.63c.21-1.43.38-2.55-.45-3.74-1.3-1.87-1-3.6.83-5.28l.56-.51.61,1.76C108.17,77.68,110,82.92,117,83h.84l-.57,1,.17.16a2.31,2.31,0,0,0,.81.59c.78.2,1.59.34,2.37.48.94.17,1.91.34,2.85.6.62.17,1.07,1.13,1.18,1.45a.87.87,0,0,1,0,.81c-.78,1.06-1.66,2-2.51,3l-.92,1-1.67,1.95-.86,1-.36-.22c-.39-.24-.77-.49-1.14-.74a11.49,11.49,0,0,0-2.51-1.4,3.6,3.6,0,0,0-1,.56c-.31.21-.64.42-1,.61l-.32.17-.26-.25c-1-1-1.58-.57-2.79.4a6,6,0,0,1-2.42,1.38Zm-1.06-23.58a2.44,2.44,0,0,0-.13,3.42c1.05,1.51.84,2.94.61,4.46l-.09.61a20,20,0,0,0,.43,5.89c.13.77.26,1.54.36,2.31s.25,1.59.4,2.37c.12.62.23,1.24.33,1.87a10.55,10.55,0,0,1,.09,1.35,7.45,7.45,0,0,0,1.42-1c1-.82,2.27-1.83,3.82-.6l.6-.39c.71-.47,1.32-.88,1.91-.67a12.2,12.2,0,0,1,2.74,1.51l.74.49.3-.35,1.67-2,.93-1.06c.8-.9,1.63-1.84,2.36-2.81a2.09,2.09,0,0,0-.54-.85c-.87-.24-1.82-.41-2.73-.57s-1.63-.29-2.44-.5a3,3,0,0,1-1.25-.84c-.14-.13-.27-.26-.42-.37l-.33-.26.17-.31c-7.11-.46-9-6.06-10.87-11.49Z"/></g><g id="_Group_5" data-name="&lt;Group&gt;"><path class="cls-3" d="M141.65,214.37a3.33,3.33,0,0,1-3.53,3.45,3.1,3.1,0,0,1-3.35-3.28,3.72,3.72,0,0,1,3.65-3.74A3.6,3.6,0,0,1,141.65,214.37Z"/><path class="cls-2" d="M138.09,218.32a3.84,3.84,0,0,1-2.78-1,3.77,3.77,0,0,1-1-2.74,4.33,4.33,0,0,1,1.33-3.1,3.9,3.9,0,0,1,2.84-1.14,4.09,4.09,0,0,1,3.72,4.08h0a3.81,3.81,0,0,1-4,3.94Zm.21-7a2.9,2.9,0,0,0-2,.86,3.33,3.33,0,0,0-1,2.38,2.79,2.79,0,0,0,.75,2,2.87,2.87,0,0,0,2.08.75h0a2.83,2.83,0,0,0,3-3,3.1,3.1,0,0,0-2.76-3.07Z"/></g><g id="_Group_6" data-name="&lt;Group&gt;"><path class="cls-3" d="M153.11,105.82c.88-1.48.6-4.21,3.14-2.47.94.64,1.43,1.95,2.12,3a11,11,0,0,1-3,1.17,23,23,0,0,1-5.23-.31c-.7-.11-1.31-.85-2-1.31.57-.72,1-1.76,1.74-2.06a4,4,0,0,1,2.54.46C152.74,104.37,152.81,105.08,153.11,105.82Z"/><path class="cls-2" d="M154.09,108a25.45,25.45,0,0,1-4.06-.36,3.43,3.43,0,0,1-1.6-.94c-.19-.16-.37-.32-.56-.45l-.43-.3.33-.42c.16-.21.31-.44.47-.67a3.58,3.58,0,0,1,1.48-1.53,4.25,4.25,0,0,1,2.88.45,1,1,0,0,1,.56.6l0-.06c.26-.83.53-1.69,1.29-2a2.36,2.36,0,0,1,2.08.57A6.08,6.08,0,0,1,158.2,105c.19.33.38.66.59,1l.36.51-.58.23c-.3.12-.6.27-.91.42a6.29,6.29,0,0,1-2.28.79C155,108,154.53,108,154.09,108Zm-5.25-2.26.24.2a2.79,2.79,0,0,0,1.11.71,22.06,22.06,0,0,0,5.12.3,5.48,5.48,0,0,0,1.91-.68l.43-.21-.31-.53a5.28,5.28,0,0,0-1.36-1.79c-.73-.5-1.06-.5-1.18-.45-.29.1-.49.74-.66,1.31a6.79,6.79,0,0,1-.58,1.46l-.51.87-.38-.94c-.11-.27-.19-.54-.26-.78a2.77,2.77,0,0,0-.2-.55,3.89,3.89,0,0,0-2.1-.41,3,3,0,0,0-1,1.15Z"/></g><g id="_Group_7" data-name="&lt;Group&gt;"><path class="cls-3" d="M138.75,85c1.64-3.52,7-4.89,9.44-2.81,1.43,1.22,1.19,3.46-.54,3.53A68.2,68.2,0,0,1,138.75,85Z"/><path class="cls-2" d="M146.8,86.26a45.24,45.24,0,0,1-5.39-.44c-.89-.11-1.79-.21-2.7-.3l-.71-.07.3-.64a7.51,7.51,0,0,1,5.23-3.9,5.82,5.82,0,0,1,5,.91,2.94,2.94,0,0,1,1,3.08,2,2,0,0,1-1.83,1.33Zm-7.24-1.65,2,.23a37.5,37.5,0,0,0,6.1.41.94.94,0,0,0,.92-.65,1.92,1.92,0,0,0-.69-2,4.84,4.84,0,0,0-4.12-.7A6.75,6.75,0,0,0,139.56,84.6Z"/></g><g id="_Group_8" data-name="&lt;Group&gt;"><path class="cls-3" d="M120.42,186.29a20.53,20.53,0,0,1-3.26,2.69c-.29.15-1.79-1.15-1.72-1.31.63-1.32-.32-3.77,2.16-3.73C118.37,184,119.11,185.15,120.42,186.29Z"/><path class="cls-2" d="M117.12,189.48a3,3,0,0,1-1.7-1c-.26-.25-.62-.59-.43-1a3.94,3.94,0,0,0,.23-1.29c.08-1.09.21-2.72,2.32-2.72h.06c.71,0,1.27.6,2,1.34.34.35.72.75,1.16,1.13l.43.38-.44.38c-.41.35-.76.68-1.09,1a11,11,0,0,1-2.26,1.77A.58.58,0,0,1,117.12,189.48ZM116,187.62a5.63,5.63,0,0,0,1.06.84,11.44,11.44,0,0,0,1.91-1.54l.69-.63c-.29-.28-.56-.56-.8-.81-.51-.53-1-1-1.28-1h-.05c-1.13,0-1.22.56-1.32,1.8A5.76,5.76,0,0,1,116,187.62Z"/></g><g id="_Group_9" data-name="&lt;Group&gt;"><path class="cls-3" d="M145.6,73.45l.31-6.4c2.32,1.51,2.33,3.5.54,6.43Z"/><path class="cls-2" d="M146.72,74l-1.65-.06.37-7.77.73.48c3.19,2.08,2,4.89.7,7.11Zm-.6-1h0c1.51-2.58,1.26-3.94.19-4.94Z"/></g><g id="_Group_10" data-name="&lt;Group&gt;"><path class="cls-3" d="M110.08,75.54a16.33,16.33,0,0,1-1.15-3.1c-.1-.6.43-1.31.81-2.31l2,3.24L110,75.57Z"/><path class="cls-2" d="M110.39,75.94l-.4-.36-.38.15c-.12-.3-.25-.59-.38-.88a9.91,9.91,0,0,1-.8-2.32,2.92,2.92,0,0,1,.45-1.69c.13-.27.27-.56.39-.88l.36-1,2.71,4.4-1.69,2.21,0,.06Zm-.58-4.73,0,.06a2.44,2.44,0,0,0-.36,1.1,9,9,0,0,0,.73,2.08l0,.11.92-1.21Z"/></g><g id="_Group_11" data-name="&lt;Group&gt;"><path class="cls-3" d="M110,75.57l2.49.12v3.12l-.86.24-1.6-3.51Z"/><path class="cls-2" d="M111.4,79.65l-1.64-3.59-.91,0,.84-.8.3.32h0l-.28-.34.32.32h0l0-.43,3,.15v4Zm-.51-3.54L112,78.46l.08,0V76.17Z"/></g><g id="_Group_12" data-name="&lt;Group&gt;"><path class="cls-3" d="M103.28,63.22c-1.83-2.88-1.71-4-.39-4.45Z"/><path class="cls-2" d="M104,65.22l-1.1-1.73c-1.25-2-1.67-3.23-1.36-4.11a1.81,1.81,0,0,1,1.23-1.09l.6-.21Zm-1.49-5.56,0,.06a1.73,1.73,0,0,0,.12,1.08Z"/></g></g><g id="_Group_13" data-name="&lt;Group&gt;"><g id="_Group_14" data-name="&lt;Group&gt;"><path class="cls-4" d="M102.8,71.27H99.57L101,75.82l.52-.06Z"/></g><g id="_Group_15" data-name="&lt;Group&gt;"><path d="M148.38,170.38c-1.44.7-7.65.17-13.86-3.94-6.73-4.46-6.6-2-9-2.36-5.15-.8-4.16-1.33-4.79-2.42-1-1.76-1.84-3.24-3.8-3.11-3,.19-4.16-2-5.35-2.44-5.13-1.81-3.77-2.44-6.15-3.79-4-2.29-2.85,3-2.86,2.43-1.42-1.42-2.12-6.29-1.37-6-1.49-1.35,2.63-4.68-1.81-4.59.55-1.47,1.24-2.65-.68-3.72-.83-.46-1-2.44-1.14-3.76-.26-3.64-.34-7.29-.4-10.94,0-.86.44-1.71.5-2.58.36-5.48.62-11,1-16.44a20.56,20.56,0,0,1,1-3.79L97,104.43c.52-1.69.93-2.75,1.16-3.85A4.11,4.11,0,0,0,98,98.88c-.29-1.15-1-2.33-.89-3.43.33-3.12,1.12-6.19,1.43-9.31.12-1.19-.55-2.47-.85-3.68l2.3-3.53-.5-.43h2.24l-2.49,3.23a12,12,0,0,1,2,.63c-.38,2.77,2.06,6.21-1.81,8.43l1.92-.1.42,8.33a9.62,9.62,0,0,1,1.85,1.45,8.94,8.94,0,0,1,.64,1.75c.6,1.5.52,3.29,2.67,4,1,.32,1.67,1.79,2.33,2.84s2.65,1.07,3.75-.34v2.51c1.59-1.21,3.27-3.53,4.91-3.5,2.89.06,2.11-2.12,2.92-3.23,1.12-1.55,2-3.29,3-4.94,1.12-1.86,2.16-3.77,3.4-5.55,1.79-2.55,3.75-5,5.58-7.49a13.62,13.62,0,0,0,1.07-2.18,7.09,7.09,0,0,0-2.37-.33,47.32,47.32,0,0,1-17.34,1c-2.87-.44-5-1.62-5.74-4.66-1.06-4.38-2.5-8.7-3.18-13.14-.7-4.63.72-6.46,5.06-8.14a34.84,34.84,0,0,0,4.91-2c-5.15,0-9.87,2.08-15,2.79a9.53,9.53,0,0,1,2-.91c8.53-1.76,17-3.67,25.64-5.08,3-.5,6.28.07,9.38.53,7.83,1.16,15.3-.27,22.61-2.87,1.66-.59,3.07-1.9,4.74-2.49a35.7,35.7,0,0,1,8.81-2l-2.7,1.58c.47.27.67.44.71.41,2.68-2.14,5.68-1.32,8.69-1.1,4.43.32,8.88.4,13.33.46,2.05,0,3,.91,2.93,2.92a16.38,16.38,0,0,0,2.75,9.25c.78,1.3.59,3.18.91,5.28.67.79,3.53-.28,3.24,2.67l1.84-.15a2.61,2.61,0,0,1,.3.74c.14,5.22.1,10.45.43,15.65.32,5,1.06,9.9,1.51,14.85.14,1.47-.21,3-.08,4.46.27,3.35,1,6.69,1,10a62.08,62.08,0,0,0,.6,8.61c.12,1.09-.61,2.26-.52,3.36.18,2.17.81,4.3,1,6.47a15.25,15.25,0,0,1-.57,3.69c0,.25-.29.55-.21.72,1.29,2.82-3.11,5.44-4,8.09-.28.83-.27,1.75-.55,2.58a8.25,8.25,0,0,1-1.94,3.29,10.73,10.73,0,0,0,.06,2.36c.07.39-.75,1.34-.29,1.46s.68,1.11-4.62,2.47a24.7,24.7,0,0,0-7,2.93c-13.87,8.71-5.51.07-7.95,1.15-4.87,2.17-8.09,2.08-10.26,2.54-4.33.92-8.8,5.53-13.38,3.46-5-2.27-8.91,2.59-9.08,3.09ZM119.05,83.57l.13.56c5-1,10.13-1.93,15.11-3.2a8.68,8.68,0,0,0,6.65-6.74,63.84,63.84,0,0,0,1.63-9.76c.26-4.08-.62-5.12-4.49-6.31a19,19,0,0,0-4.73-.73A68.91,68.91,0,0,0,111.3,60c-2.35.68-4.8,1.62-5,4.58a28.92,28.92,0,0,0,2.92,14.82,6.82,6.82,0,0,0,5.93,4C116.47,83.48,117.76,83.51,119.05,83.57ZM188.64,101c1.69-3.2,3.55-6.77,7.32-9.14l2.19-3.35c0-1.19,0-2.25,0-3.31.22-4.25.73-8.5.63-12.73A33.7,33.7,0,0,0,197.22,64c-.3-1-1.67-1.78-2.82-2.92-.52,3.07-1,5.44-1.31,7.83-.71,4.8-3.57,7.87-8.13,8.85-5.17,1.11-10.47,1.61-15.71,2.36-1,.14-1.94.19-3.21.3,3,3.59,5.6,6.82,8.28,10s5.39,6.4,8.22,9.46c.54.59,1.73.64,2.64.81S187.27,100.88,188.64,101ZM158.2,81.36c-.17-1.89.05-3.42-.48-4.61-1.91-4.21-4-8.35-6.2-12.42a5.36,5.36,0,0,0-2.76-2.62c-1.72-.44-2.49,1.16-2.88,2.62-.68,2.57-1.18,5.19-1.87,7.77-.94,3.52-1.93,7.05-5,9.45-3.61,2.81-5.06,6.94-6.62,11-.27.7-.71,2.85.74,3.2s1.37-1.66,1.82-2.09c1.83-1.76,4.09-3.21,6.48-2,3.77,1.83,7.51,2.95,11.72,2.41-.12-.58-.45-1.18-.28-1.43,2.12-3,4.33-5.94,8.58-5.67,1.64.1,2.71-.38,2.83-2.15a2.44,2.44,0,0,0-2.48-2.91C160.54,81.69,159.29,81.5,158.2,81.36Zm8.62,35.32c-4.09-1.69-8.12-2.93-12.56-2.21,2.17-.63,4.31-1.15,6.42-1.73,1.44-.4,2.11-1.14,1.23-2.22l-16.76.65,1.28,3.66-.23.11-2.82-4.08-5.09,3.91c-1.34.41-3.47-.45-4.61.27s-1.61,3-1.64,4.61c0,1.41,1,2.85,1.51,4.27l.71-.23-.26,1.76,4.32,1.46-.17-2.4,1.47,2.25a36.35,36.35,0,0,1,3.33-3.29c2.46-1.89,5-4,8.34-1.74.11.07.42-.19.66-.25,1.67-.43,3.36-1.24,5-1.16a61.39,61.39,0,0,1,7.47,1.35,6.78,6.78,0,0,0,1.65-.11v-.47L161,119.52C163.58,120.2,165.22,119,166.82,116.68ZM158,105.1a16.36,16.36,0,0,0-1.76-2.16c-.47-.41-1.42-.38-1.75-.84-1.85-2.63-3.69-3.17-6.72-1.78.68,3.16.12,4-2.78,5.37a3.28,3.28,0,0,0-1.43,2.46c0,.53,1.18,1.55,1.88,1.59,3.17.18,6.37.19,9.55.06,1.39-.06,2.76-.68,4.16-.86a26,26,0,0,1,3.41,0l0-.47,2.29,1.78A14.45,14.45,0,0,0,165,108C162.45,107.44,161.1,104,158,105.1Zm-16.47-.27c-.75,1.62-1.45,3-2,4.44-.12.31.19,1.11.44,1.18a1.93,1.93,0,0,0,1.48-.29C143.17,108.79,143.1,107.11,141.49,104.83Zm3.36-43.7.94-.14a16.94,16.94,0,0,0-.48-4.07c-.24-.68-1.42-1-2.18-1.5l-.36.49ZM138.2,103.2l-1-.33-1.34,4.65.72.23ZM185.84,74a6.82,6.82,0,0,0,4.51-5.56,28.92,28.92,0,0,0-1.5-15c-1-2.79-3.63-3-6.08-2.95a68.91,68.91,0,0,0-21.85,3.94,19,19,0,0,0-4.32,2.07c-3.36,2.26-3.9,3.51-2.47,7.34a63.84,63.84,0,0,0,4.39,8.86,8.68,8.68,0,0,0,8.32,4.52c5.14-.23,10.26-.86,15.39-1.31l0-.57C183.4,74.87,184.63,74.46,185.84,74Z"/></g><g id="_Group_16" data-name="&lt;Group&gt;"><path d="M102.8,71.27l-1.24,4.49-.52.06-1.46-4.55Z"/></g><g id="_Group_17" data-name="&lt;Group&gt;"><path class="cls-4" d="M158.2,81.36c.76.79,2.34.33,3.6.46a2.44,2.44,0,0,1,2.48,2.91c-.12,1.77-1.19,2.26-2.83,2.15-4.26-.27-6.46,2.68-8.58,5.67-.18.25.62.95.28,1.43-2.45,3.47-8-.57-11.72-2.41-2.39-1.16-4.65.29-6.48,2-.45.44-.83,1-1.82,2.09-.36-1.44-1-2.5-.74-3.2,1.56-4,3-8.15,6.62-11,3.07-2.39,4.06-5.92,5-9.45.69-2.57,1.19-5.19,1.87-7.77.39-1.46,1.16-3.07,2.88-2.62a5.36,5.36,0,0,1,2.76,2.62c2.2,4.07,4.29,8.21,6.2,12.42C158.25,77.94,156.88,80,158.2,81.36Z"/></g><g id="_Group_18" data-name="&lt;Group&gt;"><path class="cls-4" d="M166.82,116.68c-1.6,2.3-3.23,3.52-5.84,2.83l5.11,1.57v.47a6.78,6.78,0,0,1-1.65.11,61.39,61.39,0,0,0-7.47-1.35c-1.65-.08-3.34.73-5,1.16-.23.06-.54.33-.66.25-3.37-2.21-5.88-.15-8.34,1.74a36.35,36.35,0,0,0-3.33,3.29l-1.47-2.25.17,2.4L134,125.44l.26-1.76-.71.23c-.54-1.42-1.54-2.86-1.51-4.27,0-1.61.53-3.91,1.64-4.61s3.27.14,4.61-.27l5.09-3.91,2.82,4.08.23-.11-1.28-3.66,16.76-.65c.88,1.07.2,1.82-1.23,2.22-2.12.59-4.26,1.1-6.42,1.73C158.7,113.75,162.72,115,166.82,116.68Z"/></g><g id="_Group_19" data-name="&lt;Group&gt;"><path class="cls-4" d="M158,105.1c3.15-1.08,4.5,2.34,7,2.93a14.45,14.45,0,0,1-.16,2.21l-2.29-1.78,0,.47a26,26,0,0,0-3.41,0c-1.4.19-2.76.81-4.16.86-3.18.13-6.37.12-9.55-.06-.7,0-1.9-1.06-1.88-1.59a3.28,3.28,0,0,1,1.43-2.46c2.91-1.37,3.46-2.21,2.78-5.37,3-1.4,4.88-.86,6.72,1.78.32.46,1.27.42,1.75.84A16.36,16.36,0,0,1,158,105.1Z"/></g><g id="_Group_20" data-name="&lt;Group&gt;"><path class="cls-4" d="M141.49,104.83c1.61,2.28,1.68,4-.09,5.33a1.93,1.93,0,0,1-1.48.29c-.24-.06-.56-.86-.44-1.18C140,107.84,140.74,106.46,141.49,104.83Z"/></g><g id="_Group_21" data-name="&lt;Group&gt;"><path class="cls-4" d="M144.85,61.13l-2.08-5.22.36-.49c.76.49,1.94.83,2.18,1.5a16.94,16.94,0,0,1,.48,4.07Z"/></g><g id="_Group_22" data-name="&lt;Group&gt;"><path class="cls-4" d="M138.2,103.2l-1.66,4.55-.72-.23,1.34-4.65Z"/></g></g><g id="_Group_23" data-name="&lt;Group&gt;"><g id="_Group_24" data-name="&lt;Group&gt;"><path class="cls-5" d="M124.53,173.56m14.3-8.53c3.64.85,7.18-1.92,10.6-2.87,2.59-.71,5.1,2.47,7.49,1.8,3.92-1.1,5.09.79,8.2-.08,1.69-.48,5.66-4.79,7-5.17,4.06-1.12,6.59-4.66,6.88-4.52,5.66,2.71-1,4.63,6.67,4.4-.33-9,6-10.22,6.35-7.24-2.66-.74-.44,5.48-.28,5.35,2.75-2.31,9.61-3.07,7.56-4.7-2.36-1.88-4.69.65-3.09-1.19-.33-1.1,3-.06,3.2-.52,1.48-2.81,2.29-6.73,5.7-8.9-.72-1.84,1.82-3.47.67-5.52a4.77,4.77,0,0,1,.21-5.67,2.18,2.18,0,0,0,.17-1.4c-.44-4.85-.84-9.7-1.43-14.54a22.31,22.31,0,0,0-1.21-4.14c.55-4.65,1-8.81,1.52-13,0-.09-.17-.2-.27-.31l-.87,1.66c-.81-1.66.34-3.88-1.86-4.72.06.88.35,1.65.11,2.21-.67,1.61-1.55,3.14-2.37,4.74l-.8-1c-.25,1.39-.19,4-.83,4.15-1.91.55-1.56,2.06-2.06,3.14-1.42,3.07-1.91,3.18-4.28.62-.08-.09-.28-.07-.55-.13v3.93l-1.22-.36c-.24,3.12,1.79,6.39-1.15,9.37v-4.28l-.48,0-.44,1.46-2.79,1.07c1-2.65-2.44-2.54-2.78-4.45a19.1,19.1,0,0,0,.22,3.43c.1,1.4.84,1.58,2,1.22l-3.28,8.87.55,0-1.59-4.52c.84-.86,2.2-1.56.74-2.62l-3.91-2a5.52,5.52,0,0,0,1.26,6l-1.27,1.94L175,123l-1,15.86-1-.05a20.17,20.17,0,0,0,.14-3.49c-.06-.55-.86-1.49-1.19-1.44a5.07,5.07,0,0,0-2.11,1.22c-.18.15,0,.72,0,1.15l2.29-1c-1.07,3.21-1.88,5.79-2.83,8.31-.12.33-.94.41-1.59.66L168,142l-.61-.48c-1.35,1.35-2.74,2.67-4,4.07s-2.22,3.66-4.84,3.75c-3.35.12-5.37,2-6.54,5.14a45.31,45.31,0,0,1-2.72,5.23l-3.76-3.43,1-4.24-5.75,3,1.65-4.13-.88-.42-3.36,6.59-.44-4.44-.57.06-.77,4-.8-.15,1-7.22L135,150c1-1.5,2.1-3,3.13-4.51s1.71-2.78,1-4.42c-1.46,2.31-2.92,4.41-6,4.4l-.55.58c-1.94-1-2.5.28-2.9,1.79l-2.45,1.8,1.15.57-1.46,4-.52.08-2.53-8-1.07,2-.48-.09.69-10-.73-.16-2,4c-.18-2.39-.47-4.34-.44-6.28,0-2.41.31-4.81.54-7.21s-1.11-4.47-2-6.66a4.14,4.14,0,0,0-4.25-2.88l-.35,4-2-2.29-1,2.16-1.51-3.86L108,121l-4.73-4.34c-.38,3.51-.78,6.24-1,9-.12,1.85-.19,3.82,2.16,4.68-.21.51-.25,1-.52,1.21-3.58,2.49-2,6.23-.46,8.05,2.13,2.49,1.63,5.34,2.83,7.8a1.39,1.39,0,0,1,.07.55l-2.08,1.7c4.78,0,1.78-.35,3.62,1.29-.68.38.14-3.53-.53-3.17,1.07.26,1-.51,1.9-.29-2.5,2.12.49.07,1.94.85-2.16,2,.69-.2,1.48,1.22.71-.62,1.26,1.28,1.82.8.15.1,1.81,2.14,2,2.24-1,1.55,2.51,1.68,1.76,2.91,1.14.82,3.42.68,3.75,1.86.39,1.43,2.84,3,5.32,2.49a9.36,9.36,0,0,1,5.49.82C134.55,161.32,137,164.61,138.83,165Zm-17.41-44.67.67.46c1.31-1.53,2.67-3,3.87-4.62.25-.33-.12-1.11-.2-1.69a5.82,5.82,0,0,0-1.42.93,23.77,23.77,0,0,0-2,2.85A16,16,0,0,0,121.42,120.36ZM161.5,144a25,25,0,0,0-3.15,1.72,23.41,23.41,0,0,0-2.52,2.57C159.42,148.61,161.65,146.65,161.5,144Zm-33.73-26.64,2.61-4C127.87,112.79,127.29,113.52,127.78,117.33Zm45,10.71L171,131.39l.8.42C173.1,131.25,173.87,130.43,172.74,128Zm-16,14.65c2.45-.79,2.25-2.45,2.82-3.72l-.71-.37Z"/></g><g id="_Group_25" data-name="&lt;Group&gt;"><path class="cls-5" d="M134.85,149.11l-.32,0L133,144.59c3.08,0,4.54-2.09,6-4.41.69,1.64-.08,3.05-1,4.42S135.89,147.61,134.85,149.11Z"/></g><g id="_Group_26" data-name="&lt;Group&gt;"><path class="cls-5" d="M180.16,122.46l-1.91,1.32a5.52,5.52,0,0,1-1.26-6l3.91,2C182.37,120.9,181,121.6,180.16,122.46Z"/></g><g id="_Group_27" data-name="&lt;Group&gt;"><path class="cls-5" d="M121.26,119.52a16,16,0,0,1,.9-2.05,23.77,23.77,0,0,1,2-2.85,5.82,5.82,0,0,1,1.42-.93c.08.57.45,1.36.2,1.69-1.2,1.61-2.56,3.09-3.87,4.62Z"/></g><g id="_Group_28" data-name="&lt;Group&gt;"><path class="cls-5" d="M161.35,143.13c.15,2.68-2.09,4.63-5.67,4.29a23.41,23.41,0,0,1,2.52-2.57A25,25,0,0,1,161.35,143.13Z"/></g><g id="_Group_29" data-name="&lt;Group&gt;"><path class="cls-5" d="M185.08,117.89l-.61.21c-1.12.36-1.85.18-2-1.22a19.1,19.1,0,0,1-.22-3.43C182.64,115.34,186.11,115.24,185.08,117.89Z"/></g><g id="_Group_30" data-name="&lt;Group&gt;"><path class="cls-5" d="M130.34,147.95l-.81-1c.4-1.51,1-2.76,2.91-1.79a15.42,15.42,0,0,1,.38,2.62c0,.37-.62,1.07-.84,1A6.07,6.07,0,0,1,130.34,147.95Z"/></g><g id="_Group_31" data-name="&lt;Group&gt;"><path class="cls-5" d="M130.34,147.95a6.07,6.07,0,0,0,1.64.87c.22,0,.83-.66.84-1a15.42,15.42,0,0,0-.38-2.62l.55-.58,1.54,4.56L132,150.92Z"/></g><g id="_Group_32" data-name="&lt;Group&gt;"><path class="cls-5" d="M134.47,108.77c-.48-3.82.1-4.54,2.61-4Z"/></g><g id="_Group_33" data-name="&lt;Group&gt;"><path class="cls-5" d="M172.58,127.19c1.13,2.39.36,3.21-.91,3.77l-.8-.42Z"/></g><g id="_Group_34" data-name="&lt;Group&gt;"><path class="cls-5" d="M156.58,141.84l2.11-4.08.71.37C158.83,139.39,159,141.05,156.58,141.84Z"/></g><g id="_Group_35" data-name="&lt;Group&gt;"><path class="cls-5" d="M108.29,129.55l4.93-3.08c-1.46,3.18-2.16,6.67-5.82,8.4l3-5.19-2.15-.16Z"/></g><g id="_Group_36" data-name="&lt;Group&gt;"><path class="cls-5" d="M200.2,171.18"/></g><g id="_Group_37" data-name="&lt;Group&gt;"><path class="cls-5" d="M154.15,156.38l2.38-6.86c.57.79.74.94.71,1-.75,2.06-1.52,4.11-2.28,6.16Z"/></g><g id="_Group_38" data-name="&lt;Group&gt;"><path class="cls-5" d="M108.26,129.51,105,135.19l-1-.71,4.23-4.93Z"/></g><g id="_Group_39" data-name="&lt;Group&gt;"><path class="cls-5" d="M116,133.62l1.36-2.56.71,0c.05.64.35,1.41.09,1.88s-1.1.89-1.68,1.32Z"/></g><g id="_Group_40" data-name="&lt;Group&gt;"><path class="cls-5" d="M159.26,154.19l-1.89,4.06c-.85-3-.58-3.5,1.87-4Z"/></g><g id="_Group_41" data-name="&lt;Group&gt;"><path class="cls-5" d="M116.14,127.23l-1-4.87.69-.14,1.13,4.84Z"/></g></g><path class="cls-6" d="M100.46,89.9s-3.52,21.23-3.52,29.23,2,23,6,30,18.48,19.5,28.24,20.25,36.76,1.75,40.76.75,21-7,26-11,13-18,15-23,0-22-1-28c-.75-4.5-7.17-20-8-24-.42-2.06-3.28,7.54-4,7-1.85-1.38,5,.68-2,3-3,1-9.64,1.92-11,6-1,3,8-2,6,5-2.46,8.62-24.05-12-32-9s-9.7,2.86-19,1c-5-1-11,4-13,5-3.58,1.79-11,14-16,9s8.06-8.63,4.53-10.31c-.28-.13,1.77,3.5,1.47,3.31-3.43-2.2,0-7-9-3-9.18,4.08-4,16-4,16v-17C105.94,99.13,100.46,89.9,100.46,89.9Z"/><path d="M214.7,113.67l-.18-.44c-3.92-15.63-9.33-33-9.49-33.1A1.83,1.83,0,0,0,203.59,79c-.75.06-3.4,7.47-3.65,8.09-1.31,4.46-1.35,4.93-2.12,6.64a8.87,8.87,0,0,0-4.42-.71c-5.68.44-7.63,4.35-7.92,6.48a3,3,0,0,0,1.9,3.16,2.91,2.91,0,0,0,3.53-1,.88.88,0,0,1,.59-.2,3,3,0,0,1,1.08,2.32c.1,1.35-.78,1.56-1.52,1.77-2.23.32-6.36-2.51-8.89-4.12-6.66-4.45-16.8-11-28.1-3.68a3.18,3.18,0,0,1-2.84.22c-12.31-5.51-20.88,2.22-27.2,8-2.94,2.78-6.06,5.28-8.15,5.44-1.36,0-1.69-.47-1.77-1.52a4.9,4.9,0,0,1,.56-2.45l.75-.06a3.36,3.36,0,0,0,3.37.79c.15,0,.15,0,.29-.17a3.12,3.12,0,0,0,1.39-3.42c-.6-1.91-3.14-5.62-8.82-5.18a8.75,8.75,0,0,0-3.82,1.2c-1.21-2-4.12-8.55-5.79-12.63a1.39,1.39,0,0,0-2.69.21c0,.15-4.64,17.65-5.38,35.3l-.08.91A47.92,47.92,0,0,0,129,172a90.49,90.49,0,0,0,31.35,2.83c10.31-.8,19.33-2.85,26.89-6.15A47.71,47.71,0,0,0,214.7,113.67Zm-96.88-8.27h0l-.16-.14a4.09,4.09,0,0,0-3.37-.79c-2.08.31-3.37,3.12-3.17,5.66s2,4.21,4.83,4.14c3.15-.09,6.39-2.9,10-6.19,6.32-5.75,13.49-12.17,23.93-7.42a5.55,5.55,0,0,0,5.68-.44c9.73-6.32,18.45-.53,24.79,3.64,4.12,2.69,7.75,5,10.88,4.57a4.38,4.38,0,0,0,4.14-4.83c0-2.25-1.74-5-3.86-5.11a3.23,3.23,0,0,0-2.88,1.58h-.15c0-.15.63-3.51,5.11-3.86a7.33,7.33,0,0,1,5.09,1.71,12.08,12.08,0,0,1,3.19,8.17c-.21,6.93-5,15.57-18,16.58-13.6,1.06-22.68-3.5-26.8-6.19a4,4,0,0,0-2.92-.83,4.21,4.21,0,0,0-2.76,1.27c-3.79,3.45-12.07,9.21-25.52,10.25-13,1-19-6.64-20.3-13.61a11.21,11.21,0,0,1,1.89-8.57,6.47,6.47,0,0,1,4.62-2.46C116.37,102.2,117.62,104.81,117.82,105.4ZM186,166c-7.13,3.11-15.84,5.14-25.86,5.92a91.78,91.78,0,0,1-30.28-2.61,44.69,44.69,0,0,1-32.79-44.67l.07-1.06a178.69,178.69,0,0,1,4.12-30.24,92.73,92.73,0,0,0,4.48,9.28,2.26,2.26,0,0,0-.55.64,13.52,13.52,0,0,0-2.46,10.87c1.54,8.15,8.56,17.23,23.35,16.08,14.5-1.13,23.34-7.38,27.42-11a1.8,1.8,0,0,1,2.09-.16c4.59,3,14.3,7.91,28.8,6.79,14.95-1.16,20.48-11.21,20.59-19.49a15.5,15.5,0,0,0-4.12-10.51.52.52,0,0,0-.31-.13A80.35,80.35,0,0,0,203.68,86c1.83,6.17,5.27,17.49,7.9,28.11l.18.44A44.58,44.58,0,0,1,186,166Z"/><path d="M153.39,164.59c-.91-.08-1.81,0-2.56-.1a1.44,1.44,0,0,0-.23,2.87,16.52,16.52,0,0,0,2.71.09h.15a1.59,1.59,0,0,0,1.39-1.46A1.3,1.3,0,0,0,153.39,164.59Z"/><path d="M143.29,164.17c-26.27-1.42-37.56-26.71-37.58-27a1.56,1.56,0,0,0-2-.75,1.5,1.5,0,0,0-.75,2c.17.29,12.2,27.32,40.28,28.75h.15a1.59,1.59,0,0,0,1.39-1.46A1.53,1.53,0,0,0,143.29,164.17Z"/><path d="M132.78,112.21a1.36,1.36,0,0,0,1-.53l.69-.81a1.49,1.49,0,1,0-2.12-2.09l-.83,1a1.45,1.45,0,0,0,.16,2.09A1.62,1.62,0,0,0,132.78,112.21Z"/><path d="M137.15,108.41a.9.9,0,0,0,.59-.2c4.75-2.77,8.91-1.44,9.07-1.31a1.48,1.48,0,1,0,1-2.78,14.25,14.25,0,0,0-11.61,1.5,1.49,1.49,0,0,0-.6,2A1.82,1.82,0,0,0,137.15,108.41Z"/></g><g id="_Group_42" data-name="&lt;Group&gt;"><path d="M22.73,247.63c-3.11,3-8.16,2.29-12.14,2.29-2.38,0-2.68-.13-2.68-2.42V219.77c0-1.86,4-1,5.14-1,4.1,0,9,0,11.15,4.19,1.68,3.2,1.47,8.47-1.69,10.63,4,2.63,3.41,11,.22,14.08Zm-8.55-6c0,2.25-.52,2.33,1.43,2.68,3.59,0,3.89-3.28,3.37-6.18-.39-2.25-3.07-2-4.79-2Zm4.23-11.45c3.5-4.45-4.23-8.12-4.23-4.75v5.4c0,.56,3.8-.09,4.23-.65S18,230.66,18.41,230.14Z"/><path d="M27.74,245.09V224.22c0-1-.6-4.28.17-5.1,1-1,5.53-.22,6.78-.22,1.73,0,6.61-.91,8.08,0,1.17,0,1.3,5.36-.09,5.36H34c-.22,0-.13,6.35-.13,7.08,0,.3,6.65.17,7.52.17,1.43,0,1.3,5.36.13,5.36-1.6,1-6.26-1.3-7.65,0-.3.3-.3,7,0,7.21,1.08,1,6.91,0,8.42,0s1.81,4.54,1,5.4c-1.12,1.12-6.31.22-7.69.22H28.43C27.18,249.71,27.74,245.73,27.74,245.09Z"/><path d="M64.71,248.15c0,3.46-5.53,2.76-6.61.13l-5.7-13.61V245.6c0,4.15.3,4.54-4.1,4.54-2.94,0-2.25-1.55-2.25-4.06V221.54c0-3.2.65-2.94,3.93-2.94s3.5,3.63,4.58,6.22c1.25,3.11,2.51,6.18,3.8,9.29V222.36c0-.6-.52-3.76.69-3.76.91-.56,3.84,0,4.92,0C65.49,218.61,64.71,245.17,64.71,248.15Z"/><path d="M69.64,249.15c-3.24-1.86-3.24-2.46-.61-4.32s2.07-.35,5-.35c3.41,0,2.59-4.88,2.59-7.08,0-2-1-18.71.91-18.71,2.85,0,5.36-1,5.36,2.29v21.12c0,6.44-7.95,10.15-13.26,7C68.56,248.54,70.76,249.8,69.64,249.15Z"/><path d="M105.19,246.38c.17.6,1.08,2.59.56,3.24s-5.92.69-6.13-.26c-1.12-1.08-.09-5-1.3-5.87a16.94,16.94,0,0,0-5.53,0c-1.25.86-.22,4.79-1.34,5.88-.22,1-5.57,1-6.13.26-1.12-1.47,2-9,2.42-10.58L92,222.45c.13-.65.3-2.72.82-3.24.22-1,5.18-1,5.4,0C100.56,228.28,102.9,237.31,105.19,246.38ZM95.51,231c-.52,2.38-1,4.71-1.55,7.08h3.11Z"/><path d="M131.79,247.51c0,1.38.26,2.42-1.47,2.42-1.17,0-4.88.78-4.88-1V234.59c-1,2.72-2.12,10-5.49,10s-4.45-7.21-5.44-9.94v10.54c0,4.23.39,4.75-4.1,4.75-2.94,0-2.25-1.56-2.25-4.06V221.37c0-3.15.65-2.94,3.93-2.94s3.46,3.76,4.49,6.35c1.12,2.85,2.25,5.66,3.37,8.51,1.42-3.67,2.89-7.3,4.32-10.93,1.64-4.19,2.16-3.93,6.83-3.93C132.57,218.43,131.79,244.61,131.79,247.51Z"/><path d="M134.43,230.75V220.46c0-2.07,4.06-2.59,5.57-1.6,1.47,0,.69,17.58.69,19.27v10.28c0,2.63-3.58,1.6-5.57,1.6C133.61,250,134.43,232.43,134.43,230.75Z"/><path d="M161.81,248.15c0,3.46-5.53,2.76-6.61.13l-5.7-13.61V245.6c0,4.15.3,4.54-4.1,4.54-2.94,0-2.25-1.55-2.25-4.06V221.54c0-3.2.65-2.94,3.93-2.94s3.5,3.63,4.58,6.22c1.25,3.11,2.5,6.18,3.8,9.29V222.36c0-.6-.52-3.76.69-3.76.91-.56,3.84,0,4.92,0C162.59,218.61,161.81,245.17,161.81,248.15Z"/><path d="M171.18,219.43c.3.73-.17,2.76-1.34,6.52a22.23,22.23,0,0,0-.69,2.46c-.13,1-2.76,1.25-3.5,1.25a2.07,2.07,0,0,1-.65-.09.79.79,0,0,1-.61-.34c-.52-.82.09-3.15,1.94-7.3l.09-.22c.35-.82,1.86-3.11,3.37-3.11a1.45,1.45,0,0,1,1.17.56c.09,0,.17.13.17.17S171.18,219.38,171.18,219.43Z"/><path d="M189.28,220.77c1.17,1,4,5.92,2.25,7.69-.82.82-4.1.17-5.18.17-1.94,0-.13-4.54-3.63-4.54-3.8,0-3.24,5.4-.3,6.44,2.16,1,4.58,1.25,6.52,2.68,3,2.16,3.15,6.57,2.59,9.94-1.25,7.47-11.84,9.42-16.37,3.58-.56-.73-3.07-6.74-.65-6.74,1.08,0,4.32-.6,5.18.22,1.64,1.68-.69,4.84,3.89,4.1,2.2-.3,2.55-4.79,1.47-6.39s-5-2-6.7-2.85c-3.2-1.51-4.49-4.32-4.49-7.78,0-7.95,9.59-11.75,15.42-6.52C190.06,221.46,188.51,220,189.28,220.77Z"/><path d="M207.34,248.46c-4-2.85-2.89-9.07-2.89-13.35,0-3.84-1.08-10.11,1.38-13.43,2.68-3.54,8.34-4.19,12.05-2,1.77,1,5.44,5.92,3.71,8.21,0,1.34-4.58.73-5.36.73-1.47,0-.73-2.94-1.56-3.84-4.49-5.05-4,8-4,9.2,0,2.29-1.38,10.41,2.25,10.41,3.2,0,1.51-4.45,3.07-4.45a13.23,13.23,0,0,1,4.88,0c2.59,0-1.08,7.21-1.77,7.86a9.93,9.93,0,0,1-11.79.65C206.52,247.85,208.2,249.06,207.34,248.46Z"/><path d="M239.39,220.42c4.62,3.54,2.89,12.79,2.89,17.84,0,2.33.35,5.14-.82,7.3-2.59,4.88-9.81,5.7-14,2.46-4.62-3.54-2.89-12.79-2.89-17.84,0-2.38-.3-5.1.82-7.26,2.55-5,9.81-5.75,14-2.5C240.25,221.07,238.57,219.77,239.39,220.42Zm-8.55,6V231c0,3.28-.86,7.86,0,11,0,3.11,5.18,3.07,5.18,0V226.38C236,223.27,230.84,223.36,230.84,226.47Z"/><path d="M245,220.21c0-2.64,10.24-1.3,12.23-1.3,1.64,0,3.67-.65,3.67,1.51,0,2.55.56,3.89-2.29,3.89-.69,0-7.34-.13-7.34.13v7.34c0,.26,6.44.13,7.21.13,1.55,0,1.86,3.63,1.17,4.67,0,1.43-6.39.73-7.34.73-1.9,0-1,2.55-1,4.19v7.69c0,1.47-4.62.78-5.57.78C244.27,250,245,223.27,245,220.21Z"/><path d="M263.36,220.21c0-2.64,10.24-1.3,12.23-1.3,1.64,0,3.67-.65,3.67,1.51,0,2.55.56,3.89-2.29,3.89-.69,0-7.34-.13-7.34.13v7.34c0,.26,6.44.13,7.21.13,1.55,0,1.86,3.63,1.17,4.67,0,1.43-6.39.73-7.34.73-1.9,0-1,2.55-1,4.19v7.69c0,1.47-4.62.78-5.57.78C262.63,250,263.36,223.27,263.36,220.21Z"/><path d="M281.76,245.09V224.22c0-1-.6-4.28.17-5.1,1-1,5.53-.22,6.78-.22,1.73,0,6.61-.91,8.08,0,1.17,0,1.3,5.36-.09,5.36h-8.64c-.22,0-.13,6.35-.13,7.08,0,.3,6.65.17,7.52.17,1.43,0,1.3,5.36.13,5.36-1.6,1-6.26-1.3-7.65,0-.3.3-.3,7,0,7.21,1.08,1,6.91,0,8.42,0s1.81,4.54,1,5.4c-1.12,1.12-6.31.22-7.69.22h-7.17C281.2,249.71,281.76,245.73,281.76,245.09Z"/><path d="M300.25,245.09V224.22c0-1-.6-4.28.17-5.1,1-1,5.53-.22,6.78-.22,1.73,0,6.61-.91,8.08,0,1.17,0,1.3,5.36-.09,5.36h-8.64c-.22,0-.13,6.35-.13,7.08,0,.3,6.65.17,7.52.17,1.43,0,1.3,5.36.13,5.36-1.6,1-6.26-1.3-7.65,0-.3.3-.3,7,0,7.21,1.08,1,6.91,0,8.42,0s1.81,4.54,1,5.4c-1.12,1.12-6.31.22-7.69.22h-7.17C299.69,249.71,300.25,245.73,300.25,245.09Z"/></g><g id="_Group_43" data-name="&lt;Group&gt;"><path d="M86.93,284.16H79.09l-2,4.44h-3l9.05-19.45,8.73,19.45h-3Zm-1.13-2.59-2.71-6.22-2.84,6.22Z"/><path d="M101.07,270.31v11a6.06,6.06,0,0,0,.77,3.45,4.12,4.12,0,0,0,6.48,0,6,6,0,0,0,.77-3.45v-11h2.76v11.78a6.59,6.59,0,0,1-1.8,4.76,7,7,0,0,1-9.94,0,6.59,6.59,0,0,1-1.8-4.76V270.31Z"/><path d="M126.14,272.9v15.7h-2.76V272.9h-4.21v-2.59h11.16v2.59Z"/><path d="M140.42,277.46h7.89v-7.16h2.76v18.3h-2.76v-8.54h-7.89v8.54h-2.76v-18.3h2.76Z"/><path d="M170.4,272.9h-7.33v4.4h7.12v2.6h-7.12V286h7.33v2.6h-10.1v-18.3h10.1Z"/><path d="M178.88,288.6V269.06l13.34,14V270.31H195v19.41l-13.34-13.92V288.6Z"/><path d="M209.28,272.9v15.7h-2.76V272.9h-4.21v-2.59h11.16v2.59Z"/><path d="M223.55,270.31v18.3h-2.76v-18.3Z"/><path d="M246.32,271.29v3.27a7.66,7.66,0,0,0-5-2,6.31,6.31,0,0,0-4.75,2,6.83,6.83,0,0,0-1.94,4.93,6.67,6.67,0,0,0,1.94,4.86,6.42,6.42,0,0,0,4.76,2,5.84,5.84,0,0,0,2.48-.47,7.14,7.14,0,0,0,1.18-.64,13.92,13.92,0,0,0,1.29-1v3.33a10,10,0,0,1-5,1.34,9.19,9.19,0,0,1-6.7-2.74,9.08,9.08,0,0,1-2.76-6.66,9.39,9.39,0,0,1,2.31-6.23,9.2,9.2,0,0,1,7.36-3.35A9.35,9.35,0,0,1,246.32,271.29Z"/></g><g id="_Group_44" data-name="&lt;Group&gt;"><path d="M187.18,67.85l-1.64-10.39c1.95,3.29,1.91,6.85,1.62,10.44Z"/></g><g id="_Group_45" data-name="&lt;Group&gt;"><g id="_Group_46" data-name="&lt;Group&gt;"><path d="M275.11,280.14a22.45,22.45,0,0,0,4.82-1.54c3-1.25,5.72-2.34,11.82-.57-.52,4.88-5.66,8.81-12,9-6.11.17-11.27-3.17-12.38-7.71A14.33,14.33,0,0,0,275.11,280.14Z"/></g><g id="_Group_47" data-name="&lt;Group&gt;"><path d="M291.61,275.58c-6.36-1.66-9.5-.38-12.55.87a20.32,20.32,0,0,1-4.35,1.4,12.3,12.3,0,0,1-7.57-1.18c.51-4.88,5.66-8.81,12-9C285.38,267.52,290.59,270.95,291.61,275.58Z"/></g></g><g id="_Group_48" data-name="&lt;Group&gt;"><g id="_Group_49" data-name="&lt;Group&gt;"><path d="M45.78,280.14A22.45,22.45,0,0,1,41,278.6c-3-1.25-5.72-2.34-11.82-.57.52,4.88,5.66,8.81,12,9,6.11.17,11.27-3.17,12.38-7.71A14.33,14.33,0,0,1,45.78,280.14Z"/></g><g id="_Group_50" data-name="&lt;Group&gt;"><path d="M29.29,275.58c6.36-1.66,9.5-.38,12.55.87a20.32,20.32,0,0,0,4.35,1.4,12.3,12.3,0,0,0,7.57-1.18c-.51-4.88-5.66-8.81-12-9C35.51,267.52,30.3,270.95,29.29,275.58Z"/></g></g><path d="M63.07,130.73a.57.57,0,0,0,.8-.81l-6-6v-4.62l5.22,5.22a.57.57,0,0,0,.8-.81l-6-6V49.84L61,55.35a.57.57,0,0,0,.49.29.55.55,0,0,0,.29-.08.57.57,0,0,0,.21-.78l-4.25-7.36h0l-.08-.11h0l-.1-.08,0,0-.1,0h0l-.14,0-.13,0h0l-.09,0,0,0-.1.08h0a.5.5,0,0,0-.08.11h0l-4.25,7.36a.57.57,0,0,0,1,.57l3.19-5.51v67.82l-6,6a.57.57,0,0,0,.81.81l5.22-5.22v4.63l-6,6a.57.57,0,1,0,.81.81l5.22-5.22v4.62l-6,6a.57.57,0,0,0,.81.81l5.79-5.79L63.08,137a.56.56,0,0,0,.4.17.57.57,0,0,0,.4-1l-6-6v-4.62Z"/><path d="M28.81,53.54a.57.57,0,1,0-.81.81l6,6V65l-5.22-5.22a.57.57,0,1,0-.81.81l6,6v67.82l-3.19-5.51a.57.57,0,0,0-.49-.29.55.55,0,0,0-.28.08.57.57,0,0,0-.21.78l4.25,7.36h0a.53.53,0,0,0,.08.11h0l.1.08,0,0,.09,0h0l.14,0,.14,0h0l.09,0,0,0L35,137h0a.5.5,0,0,0,.08-.11h0l4.25-7.36a.57.57,0,0,0-1-.57l-3.18,5.51V66.61l6-6a.57.57,0,1,0-.81-.81L35.17,65V60.37l6-6a.57.57,0,0,0-.81-.81l-5.22,5.22V54.14l6-6a.57.57,0,0,0-.81-.81L34.6,53.09,28.81,47.3a.56.56,0,0,0-.4-.17.58.58,0,0,0-.4.17.57.57,0,0,0,0,.81l6,6v4.62Z"/><path d="M273.07,130.73a.57.57,0,0,0,.8-.81l-6-6v-4.62l5.22,5.22a.57.57,0,0,0,.8-.81l-6-6V49.84L271,55.35a.57.57,0,0,0,.49.29.55.55,0,0,0,.29-.08.57.57,0,0,0,.21-.78l-4.25-7.36h0l-.08-.11h0l-.1-.08,0,0-.1,0h0l-.14,0-.13,0h0l-.09,0,0,0-.1.08h0a.5.5,0,0,0-.08.11h0l-4.25,7.36a.57.57,0,0,0,1,.57l3.19-5.51v67.82l-6,6a.57.57,0,0,0,.81.81l5.22-5.22v4.63l-6,6a.57.57,0,0,0,.81.81l5.22-5.22v4.62l-6,6a.57.57,0,0,0,.81.81l5.79-5.79,5.79,5.79a.56.56,0,0,0,.4.17.57.57,0,0,0,.4-1l-6-6v-4.62Z"/><path d="M238.81,53.54a.57.57,0,0,0-.81.81l6,6V65l-5.22-5.22a.57.57,0,0,0-.81.81l6,6v67.82l-3.19-5.51a.57.57,0,0,0-.49-.29.55.55,0,0,0-.28.08.57.57,0,0,0-.21.78l4.25,7.36h0a.53.53,0,0,0,.08.11h0l.1.08,0,0,.09,0h0l.14,0,.14,0h0l.09,0,0,0,.1-.08h0a.5.5,0,0,0,.08-.11h0l4.25-7.36a.57.57,0,0,0-1-.57l-3.18,5.51V66.61l6-6a.57.57,0,0,0-.81-.81L245.17,65V60.37l6-6a.57.57,0,0,0-.81-.81l-5.22,5.22V54.14l6-6a.57.57,0,1,0-.81-.81l-5.79,5.79-5.79-5.79a.56.56,0,0,0-.4-.17.58.58,0,0,0-.4.17.57.57,0,0,0,0,.81l6,6v4.62Z"/><polygon class="cls-7" points="8.44 82.89 0.87 96.01 16.02 96.01 8.44 82.89"/><polygon class="cls-7" points="289.15 83.58 284.87 91.01 293.44 91.01 289.15 83.58"/><circle class="cls-7" cx="79.94" cy="19.13" r="5.5"/><circle class="cls-7" cx="224.94" cy="172.13" r="5.5"/><circle class="cls-7" cx="224.94" cy="102.13" r="3.5"/><polygon class="cls-7" points="14.65 102.89 9.87 111.18 19.44 111.18 14.65 102.89"/></g></g></svg>